<?xml version="1.0" encoding="utf-8"?>
<!-- Generator: Adobe Illustrator 19.1.0, SVG Export Plug-In . SVG Version: 6.00 Build 0)  -->
<!DOCTYPE svg PUBLIC "-//W3C//DTD SVG 1.1//EN" "http://www.w3.org/Graphics/SVG/1.1/DTD/svg11.dtd">
<svg version="1.1" id="sweco" xmlns="http://www.w3.org/2000/svg" xmlns:xlink="http://www.w3.org/1999/xlink" x="0px" y="0px"
	 viewBox="107 -36 284 142" style="enable-background:new 107 -36 284 142;" xml:space="preserve">
<g>
	<g>
		<path d="M338.7,53v5.1h-30.9V53l15.4-15.3L338.7,53z M349.1,30.6h-18.8l12.1-12.1l-4.3-4.3l-14.9,14.9l-15-15.2l-4.3,4.4
			l12.3,12.3h-18.7v5.7h18.6l-14.4,14.2v13.7h43V50.4l-14.4-14.2H349L349.1,30.6L349.1,30.6z"/>
		<path d="M329.4,12.3c0,3.4-2.7,6.1-6.1,6.1c-3.4,0-6.1-2.7-6.1-6.1c0-3.4,2.7-6.1,6.1-6.1S329.4,8.9,329.4,12.3"/>
		<path d="M272.8,39.1c8.1,0,12.4,4.6,12.4,12.6c0,7.8-4.3,12.6-12.4,12.6c-8.1,0-12.4-4.8-12.4-12.6
			C260.5,43.7,264.8,39.1,272.8,39.1 M272.8,59.5c4,0,5.4-3.8,5.4-7.8c0-4.3-1.3-7.8-5.4-7.8c-4,0-5.6,3.5-5.6,7.8
			C267.2,55.8,268.8,59.5,272.8,59.5"/>
		<path d="M248.6,39.1c2.4,0,4.8,0.5,7.3,1.1l-0.5,5.4c-2.2-1.1-4.3-1.6-6.5-1.6c-4.6,0-7.8,3.2-7.8,7.8c0,4.8,3.5,7.8,8.3,7.8
			c2.2,0,4.3-0.5,6.2-1.3l0.3,5.1c-1.9,0.5-4,1.1-7.3,1.1c-6.7,0-14.3-3.2-14.3-12.6C234.4,43.1,240.6,39.1,248.6,39.1"/>
		<polygon points="211.8,39.4 229,39.4 229,43.9 218,43.9 218,49 228.2,49 228.2,53.9 218,53.9 218,59.3 229.3,59.3 229.3,64.1 
			211.8,64.1 		"/>
		<polygon points="172,39.4 178.7,39.4 181.7,58.2 181.9,58.2 185.2,39.4 193.5,39.4 197,58.2 200.2,39.4 206.7,39.4 201,64.1 
			192.7,64.1 189.2,45 186,64.1 177.4,64.1 		"/>
		<path d="M159.9,39.1c2.4,0,4.6,0.3,6.5,0.8l-0.6,5.1c-1.6-0.8-3.5-1.1-5.4-1.1c-1.6,0-4.6,0-4.6,2.2c0,4,11.8,1.3,11.8,10.2
			c0,6.5-5.4,8.1-11,8.1c-2.1,0-5.1-0.3-7.3-1.1l0.5-5.4c1.9,0.8,4,1.6,6.7,1.6c2.2,0,4-0.5,4-2.4c0-4.6-11.6-1.6-11.6-10.5
			C149.1,40.7,155,39.1,159.9,39.1"/>
	</g>
</g>
</svg>
