<?xml version="1.0" encoding="UTF-8"?>
<svg xmlns="http://www.w3.org/2000/svg" xmlns:xlink="http://www.w3.org/1999/xlink" version="1.2" >
<font id="SwecoSans-Regular">
<font-face  font-family="Sweco Sans" units-per-em="1000" ascent="800" descent="-200" font-style="normal" font-weight="400" font-stretch="normal" cap-height="720" x-height="514" underline-position="-93" underline-thickness="56" />
<missing-glyph  horiz-adv-x="500" d="M410 -200 L93 -200 L93 800 L410 800 L410 -200 Z M168 733 L168 700 L233 700 L233 663 L167 663 L167 630 L333 630 L333 663 L267 663 L267 700 L333 700 L333 733 L168 733 Z M167 604 L167 500 L333 500 L333 534 L267 534 L267 604 L167 604 Z M233 534 L200 534 L200 570 L233 570 L233 534 Z M167 473 L167 440 L233 440 L233 403 L167 403 L167 370 L267 370 L267 440 L333 440 L333 473 L167 473 Z M300 413 L300 347 L167 347 L167 313 L333 313 L333 413 L300 413 Z M233 291 L233 235 L267 235 L267 258 L300 258 L300 211 L200 211 L200 291 L167 291 L167 178 L333 178 L333 291 L233 291 Z M167 118 L167 5 L333 5 L333 118 L167 118 Z M300 38 L200 38 L200 85 L300 85 L300 38 Z M167 -18 L167 -51 L237 -51 L167 -98 L167 -131 L333 -131 L333 -98 L231 -98 L301 -51 L333 -51 L333 -18 L167 -18 Z " />
<glyph glyph-name="space" unicode="&#x20;" horiz-adv-x="220" d="" />
<glyph glyph-name="A" unicode="A" horiz-adv-x="519" d="M492 27 Q493 24 493 18 Q493 0 471 0 L446 0 Q425 0 420 21 L369 216 L146 216 L95 21 Q91 0 69 0 L48 0 Q26 0 26 18 Q26 24 27 27 L204 699 Q209 720 230 720 L286 720 Q308 720 312 699 L492 27 Z M351 285 L258 647 L164 285 L351 285 Z " />
<glyph glyph-name="Aacute" unicode="&#xc1;" horiz-adv-x="519" d="M492 27 Q493 24 493 18 Q493 0 471 0 L446 0 Q425 0 420 21 L369 216 L146 216 L95 21 Q91 0 69 0 L48 0 Q26 0 26 18 Q26 24 27 27 L204 699 Q209 720 230 720 L286 720 Q308 720 312 699 L492 27 Z M351 285 L258 647 L164 285 L351 285 Z M358 899 Q366 899 371 895.5 Q376 892 376 887 Q376 881 370 875 L302 786 Q293 774 278 774 L249 774 Q231 774 231 786 Q231 790 235 798 L292 886 Q299 899 316 899 L358 899 Z " />
<glyph glyph-name="Abreve" unicode="&#x102;" horiz-adv-x="519" d="M492 27 Q493 24 493 18 Q493 0 471 0 L446 0 Q425 0 420 21 L369 216 L146 216 L95 21 Q91 0 69 0 L48 0 Q26 0 26 18 Q26 24 27 27 L204 699 Q209 720 230 720 L286 720 Q308 720 312 699 L492 27 Z M351 285 L258 647 L164 285 L351 285 Z M259 773 Q208 773 173 799 Q138 825 131 870 L131 874 Q131 891 150 891 L170 891 Q179 891 184 886.5 Q189 882 192 872 Q197 850 215 836.5 Q233 823 259 823 Q285 823 303 836.5 Q321 850 326 872 Q329 882 334 886.5 Q339 891 348 891 L368 891 Q390 891 388 871 Q381 826 345.5 799.5 Q310 773 259 773 Z " />
<glyph glyph-name="Acircumflex" unicode="&#xc2;" horiz-adv-x="519" d="M492 27 Q493 24 493 18 Q493 0 471 0 L446 0 Q425 0 420 21 L369 216 L146 216 L95 21 Q91 0 69 0 L48 0 Q26 0 26 18 Q26 24 27 27 L204 699 Q209 720 230 720 L286 720 Q308 720 312 699 L492 27 Z M351 285 L258 647 L164 285 L351 285 Z M289 899 Q304 899 313 887 L383 798 Q388 791 388 786 Q388 781 383.5 777.5 Q379 774 371 774 L348 774 Q333 774 323 785 L259 856 L195 785 Q185 774 170 774 L147 774 Q139 774 134.5 777.5 Q130 781 130 786 Q130 791 135 798 L205 887 Q214 899 229 899 L289 899 Z " />
<glyph glyph-name="Adieresis" unicode="&#xc4;" horiz-adv-x="519" d="M492 27 Q493 24 493 18 Q493 0 471 0 L446 0 Q425 0 420 21 L369 216 L146 216 L95 21 Q91 0 69 0 L48 0 Q26 0 26 18 Q26 24 27 27 L204 699 Q209 720 230 720 L286 720 Q308 720 312 699 L492 27 Z M351 285 L258 647 L164 285 L351 285 Z M198 885 Q218 885 218 865 L218 812 Q218 792 198 792 L152 792 Q132 792 132 812 L132 865 Q132 885 152 885 L198 885 Z M366 885 Q386 885 386 865 L386 812 Q386 792 366 792 L320 792 Q300 792 300 812 L300 865 Q300 885 320 885 L366 885 Z " />
<glyph glyph-name="Agrave" unicode="&#xc0;" horiz-adv-x="519" d="M492 27 Q493 24 493 18 Q493 0 471 0 L446 0 Q425 0 420 21 L369 216 L146 216 L95 21 Q91 0 69 0 L48 0 Q26 0 26 18 Q26 24 27 27 L204 699 Q209 720 230 720 L286 720 Q308 720 312 699 L492 27 Z M351 285 L258 647 L164 285 L351 285 Z M148 875 Q142 881 142 887 Q142 892 147 895.5 Q152 899 160 899 L202 899 Q219 899 226 886 L282 798 Q286 791 286 786 Q286 781 281.5 777.5 Q277 774 269 774 L240 774 Q225 774 216 786 L148 875 Z " />
<glyph glyph-name="Amacron" unicode="&#x100;" horiz-adv-x="519" d="M492 27 Q493 24 493 18 Q493 0 471 0 L446 0 Q425 0 420 21 L369 216 L146 216 L95 21 Q91 0 69 0 L48 0 Q26 0 26 18 Q26 24 27 27 L204 699 Q209 720 230 720 L286 720 Q308 720 312 699 L492 27 Z M351 285 L258 647 L164 285 L351 285 Z M362 866 Q382 866 382 846 L382 822 Q382 802 362 802 L156 802 Q136 802 136 822 L136 846 Q136 866 156 866 L362 866 Z " />
<glyph glyph-name="Aogonek" unicode="&#x104;" horiz-adv-x="519" d="M482 -147 Q496 -149 496 -165 L496 -182 Q496 -200 480 -200 Q426 -200 394.5 -175 Q363 -150 363 -105 Q363 -45 429 5 Q423 9 420 21 L369 216 L146 216 L95 21 Q91 0 69 0 L48 0 Q26 0 26 18 Q26 24 27 27 L204 699 Q209 720 230 720 L286 720 Q308 720 312 699 L492 27 Q493 24 493 17 Q493 2 480 -8 Q447 -33 433.5 -52 Q420 -71 420 -96 Q420 -122 437 -132.5 Q454 -143 482 -147 Z M351 285 L258 647 L164 285 L351 285 Z " />
<glyph glyph-name="Aring" unicode="&#xc5;" horiz-adv-x="519" d="M492 27 Q494 19 494 17 Q494 0 471 0 L446 0 Q425 0 420 21 L369 216 L146 216 L95 21 Q91 0 69 0 L48 0 Q26 0 26 18 Q26 24 27 27 L209 716 Q183 730 168 754.5 Q153 779 153 809 Q153 852 184 882.5 Q215 913 259 913 Q303 913 333.5 882.5 Q364 852 364 809 Q364 779 348.5 754 Q333 729 307 716 L492 27 Z M259 869 Q233 869 216.5 852 Q200 835 200 809 Q200 782 216.5 765 Q233 748 259 748 Q284 748 300.5 765 Q317 782 317 809 Q317 835 300.5 852 Q284 869 259 869 Z M351 285 L258 647 L164 285 L351 285 Z " />
<glyph glyph-name="Atilde" unicode="&#xc3;" horiz-adv-x="519" d="M492 27 Q493 24 493 18 Q493 0 471 0 L446 0 Q425 0 420 21 L369 216 L146 216 L95 21 Q91 0 69 0 L48 0 Q26 0 26 18 Q26 24 27 27 L204 699 Q209 720 230 720 L286 720 Q308 720 312 699 L492 27 Z M351 285 L258 647 L164 285 L351 285 Z M387 880 Q407 880 405 859 Q401 822 379.5 801.5 Q358 781 321 781 Q303 781 287.5 787.5 Q272 794 249 807 Q218 827 200 827 Q176 827 170 800 Q168 790 163 785.5 Q158 781 149 781 L133 781 Q114 781 115 802 Q119 839 140.5 859.5 Q162 880 199 880 Q217 880 232.5 873.5 Q248 867 271 854 Q302 834 320 834 Q344 834 350 861 Q352 871 357 875.5 Q362 880 371 880 L387 880 Z " />
<glyph glyph-name="AE" unicode="&#xc6;" horiz-adv-x="791" d="M722 69 Q746 69 746 45 L746 24 Q746 0 722 0 L396 0 Q372 0 372 24 L372 216 L180 216 L93 18 Q86 0 65 0 L41 0 Q19 0 19 16 Q19 22 22 28 L318 702 Q326 720 346 720 L712 720 Q736 720 736 696 L736 675 Q736 651 712 651 L444 651 L444 406 L624 406 Q648 406 648 382 L648 361 Q648 337 624 337 L444 337 L444 69 L722 69 Z M372 285 L372 655 L210 285 L372 285 Z " />
<glyph glyph-name="B" unicode="B" horiz-adv-x="547" d="M402 376 Q447 357 472 317 Q497 277 497 221 L497 182 Q497 100 446 50 Q395 0 310 0 L108 0 Q84 0 84 24 L84 696 Q84 720 108 720 L296 720 Q383 720 431.5 671.5 Q480 623 480 541 L480 515 Q480 414 402 376 Z M156 651 L156 403 L293 403 Q350 403 379 433.5 Q408 464 408 521 L408 535 Q408 592 379 621.5 Q350 651 293 651 L156 651 Z M425 215 Q425 271 393.5 303.5 Q362 336 307 336 L156 336 L156 69 L307 69 Q363 69 394 100.5 Q425 132 425 188 L425 215 Z " />
<glyph glyph-name="C" unicode="C" horiz-adv-x="539" d="M275 -10 Q215 -10 168.5 15 Q122 40 96 86 Q70 132 70 192 L70 528 Q70 588 96 634 Q122 680 168.5 705 Q215 730 275 730 Q367 730 423.5 673 Q480 616 480 522 Q480 498 456 498 L434 498 Q421 498 415.5 504 Q410 510 409 522 Q404 588 370 624.5 Q336 661 275 661 Q214 661 178 624 Q142 587 142 522 L142 198 Q142 133 178 96 Q214 59 275 59 Q341 59 375 99 Q409 139 409 218 Q409 242 433 242 L456 242 Q480 242 480 218 L480 192 Q480 132 453.5 86 Q427 40 380.5 15 Q334 -10 275 -10 Z " />
<glyph glyph-name="Cacute" unicode="&#x106;" horiz-adv-x="539" d="M275 -10 Q215 -10 168.5 15 Q122 40 96 86 Q70 132 70 192 L70 528 Q70 588 96 634 Q122 680 168.5 705 Q215 730 275 730 Q367 730 423.5 673 Q480 616 480 522 Q480 498 456 498 L434 498 Q421 498 415.5 504 Q410 510 409 522 Q404 588 370 624.5 Q336 661 275 661 Q214 661 178 624 Q142 587 142 522 L142 198 Q142 133 178 96 Q214 59 275 59 Q341 59 375 99 Q409 139 409 218 Q409 242 433 242 L456 242 Q480 242 480 218 L480 192 Q480 132 453.5 86 Q427 40 380.5 15 Q334 -10 275 -10 Z M379 899 Q387 899 392 895.5 Q397 892 397 887 Q397 881 391 875 L323 786 Q314 774 299 774 L270 774 Q252 774 252 786 Q252 790 256 798 L313 886 Q320 899 337 899 L379 899 Z " />
<glyph glyph-name="Ccaron" unicode="&#x10c;" horiz-adv-x="539" d="M275 -10 Q215 -10 168.5 15 Q122 40 96 86 Q70 132 70 192 L70 528 Q70 588 96 634 Q122 680 168.5 705 Q215 730 275 730 Q367 730 423.5 673 Q480 616 480 522 Q480 498 456 498 L434 498 Q421 498 415.5 504 Q410 510 409 522 Q404 588 370 624.5 Q336 661 275 661 Q214 661 178 624 Q142 587 142 522 L142 198 Q142 133 178 96 Q214 59 275 59 Q341 59 375 99 Q409 139 409 218 Q409 242 433 242 L456 242 Q480 242 480 218 L480 192 Q480 132 453.5 86 Q427 40 380.5 15 Q334 -10 275 -10 Z M392 899 Q400 899 404.5 895.5 Q409 892 409 887 Q409 882 404 875 L334 786 Q325 774 310 774 L250 774 Q235 774 226 786 L156 875 Q151 882 151 887 Q151 892 155.5 895.5 Q160 899 168 899 L191 899 Q206 899 216 888 L280 817 L344 888 Q354 899 369 899 L392 899 Z " />
<glyph glyph-name="Ccedilla" unicode="&#xc7;" horiz-adv-x="539" d="M456 242 Q480 242 480 218 L480 192 Q480 107 428.5 52 Q377 -3 294 -9 L277 -47 Q324 -44 352 -64.5 Q380 -85 380 -123 Q380 -162 352 -186 Q324 -210 279 -210 Q231 -210 192 -189 Q182 -183 182 -173 Q182 -166 186 -161 L190 -155 Q196 -144 205 -144 Q209 -144 217 -148 Q245 -163 276 -163 Q299 -163 313.5 -153 Q328 -143 328 -124 Q328 -106 314 -97 Q300 -88 276 -88 Q265 -88 260 -89 L256 -89 Q244 -89 233 -77 Q226 -68 226 -61 Q226 -56 229 -50 L248 -9 Q167 0 118.5 54 Q70 108 70 192 L70 528 Q70 588 96 634 Q122 680 168.5 705 Q215 730 275 730 Q367 730 423.5 673 Q480 616 480 522 Q480 498 456 498 L434 498 Q421 498 415.5 504 Q410 510 409 522 Q404 588 370 624.5 Q336 661 275 661 Q214 661 178 624 Q142 587 142 522 L142 198 Q142 133 178 96 Q214 59 275 59 Q341 59 375 99 Q409 139 409 218 Q409 242 433 242 L456 242 Z " />
<glyph glyph-name="Cdotaccent" unicode="&#x10a;" horiz-adv-x="539" d="M275 -10 Q215 -10 168.5 15 Q122 40 96 86 Q70 132 70 192 L70 528 Q70 588 96 634 Q122 680 168.5 705 Q215 730 275 730 Q367 730 423.5 673 Q480 616 480 522 Q480 498 456 498 L434 498 Q421 498 415.5 504 Q410 510 409 522 Q404 588 370 624.5 Q336 661 275 661 Q214 661 178 624 Q142 587 142 522 L142 198 Q142 133 178 96 Q214 59 275 59 Q341 59 375 99 Q409 139 409 218 Q409 242 433 242 L456 242 Q480 242 480 218 L480 192 Q480 132 453.5 86 Q427 40 380.5 15 Q334 -10 275 -10 Z M301 882 Q323 882 323 860 L323 811 Q323 789 301 789 L259 789 Q237 789 237 811 L237 860 Q237 882 259 882 L301 882 Z " />
<glyph glyph-name="D" unicode="D" horiz-adv-x="562" d="M280 720 Q342 720 390 694.5 Q438 669 465 623 Q492 577 492 517 L492 203 Q492 143 465 97 Q438 51 390 25.5 Q342 0 280 0 L108 0 Q84 0 84 24 L84 696 Q84 720 108 720 L280 720 Z M420 511 Q420 576 382 613.5 Q344 651 280 651 L156 651 L156 69 L280 69 Q344 69 382 106.5 Q420 144 420 209 L420 511 Z " />
<glyph glyph-name="Eth" unicode="&#xd0;" horiz-adv-x="587" d="M305 720 Q367 720 415 694.5 Q463 669 490 623 Q517 577 517 517 L517 203 Q517 143 490 97 Q463 51 415 25.5 Q367 0 305 0 L133 0 Q109 0 109 24 L109 339 L60 339 Q40 339 40 359 L40 384 Q40 404 60 404 L109 404 L109 696 Q109 720 133 720 L305 720 Z M445 511 Q445 576 407 613.5 Q369 651 305 651 L181 651 L181 404 L300 404 Q320 404 320 384 L320 359 Q320 339 300 339 L181 339 L181 69 L305 69 Q369 69 407 106.5 Q445 144 445 209 L445 511 Z " />
<glyph glyph-name="Dcaron" unicode="&#x10e;" horiz-adv-x="562" d="M280 720 Q342 720 390 694.5 Q438 669 465 623 Q492 577 492 517 L492 203 Q492 143 465 97 Q438 51 390 25.5 Q342 0 280 0 L108 0 Q84 0 84 24 L84 696 Q84 720 108 720 L280 720 Z M420 511 Q420 576 382 613.5 Q344 651 280 651 L156 651 L156 69 L280 69 Q344 69 382 106.5 Q420 144 420 209 L420 511 Z M387 899 Q395 899 399.5 895.5 Q404 892 404 887 Q404 882 399 875 L329 786 Q320 774 305 774 L245 774 Q230 774 221 786 L151 875 Q146 882 146 887 Q146 892 150.5 895.5 Q155 899 163 899 L186 899 Q201 899 211 888 L275 817 L339 888 Q349 899 364 899 L387 899 Z " />
<glyph glyph-name="Dcroat" unicode="&#x110;" horiz-adv-x="587" d="M305 720 Q367 720 415 694.5 Q463 669 490 623 Q517 577 517 517 L517 203 Q517 143 490 97 Q463 51 415 25.5 Q367 0 305 0 L133 0 Q109 0 109 24 L109 339 L60 339 Q40 339 40 359 L40 384 Q40 404 60 404 L109 404 L109 696 Q109 720 133 720 L305 720 Z M445 511 Q445 576 407 613.5 Q369 651 305 651 L181 651 L181 404 L300 404 Q320 404 320 384 L320 359 Q320 339 300 339 L181 339 L181 69 L305 69 Q369 69 407 106.5 Q445 144 445 209 L445 511 Z " />
<glyph glyph-name="E" unicode="E" horiz-adv-x="498" d="M434 69 Q458 69 458 45 L458 24 Q458 0 434 0 L108 0 Q84 0 84 24 L84 696 Q84 720 108 720 L424 720 Q448 720 448 696 L448 675 Q448 651 424 651 L156 651 L156 406 L336 406 Q360 406 360 382 L360 361 Q360 337 336 337 L156 337 L156 69 L434 69 Z " />
<glyph glyph-name="Eacute" unicode="&#xc9;" horiz-adv-x="498" d="M434 69 Q458 69 458 45 L458 24 Q458 0 434 0 L108 0 Q84 0 84 24 L84 696 Q84 720 108 720 L424 720 Q448 720 448 696 L448 675 Q448 651 424 651 L156 651 L156 406 L336 406 Q360 406 360 382 L360 361 Q360 337 336 337 L156 337 L156 69 L434 69 Z M368 899 Q376 899 381 895.5 Q386 892 386 887 Q386 881 380 875 L312 786 Q303 774 288 774 L259 774 Q241 774 241 786 Q241 790 245 798 L302 886 Q309 899 326 899 L368 899 Z " />
<glyph glyph-name="Ecaron" unicode="&#x11a;" horiz-adv-x="498" d="M434 69 Q458 69 458 45 L458 24 Q458 0 434 0 L108 0 Q84 0 84 24 L84 696 Q84 720 108 720 L424 720 Q448 720 448 696 L448 675 Q448 651 424 651 L156 651 L156 406 L336 406 Q360 406 360 382 L360 361 Q360 337 336 337 L156 337 L156 69 L434 69 Z M381 899 Q389 899 393.5 895.5 Q398 892 398 887 Q398 882 393 875 L323 786 Q314 774 299 774 L239 774 Q224 774 215 786 L145 875 Q140 882 140 887 Q140 892 144.5 895.5 Q149 899 157 899 L180 899 Q195 899 205 888 L269 817 L333 888 Q343 899 358 899 L381 899 Z " />
<glyph glyph-name="Ecircumflex" unicode="&#xca;" horiz-adv-x="498" d="M434 69 Q458 69 458 45 L458 24 Q458 0 434 0 L108 0 Q84 0 84 24 L84 696 Q84 720 108 720 L424 720 Q448 720 448 696 L448 675 Q448 651 424 651 L156 651 L156 406 L336 406 Q360 406 360 382 L360 361 Q360 337 336 337 L156 337 L156 69 L434 69 Z M299 899 Q314 899 323 887 L393 798 Q398 791 398 786 Q398 781 393.5 777.5 Q389 774 381 774 L358 774 Q343 774 333 785 L269 856 L205 785 Q195 774 180 774 L157 774 Q149 774 144.5 777.5 Q140 781 140 786 Q140 791 145 798 L215 887 Q224 899 239 899 L299 899 Z " />
<glyph glyph-name="Edieresis" unicode="&#xcb;" horiz-adv-x="498" d="M434 69 Q458 69 458 45 L458 24 Q458 0 434 0 L108 0 Q84 0 84 24 L84 696 Q84 720 108 720 L424 720 Q448 720 448 696 L448 675 Q448 651 424 651 L156 651 L156 406 L336 406 Q360 406 360 382 L360 361 Q360 337 336 337 L156 337 L156 69 L434 69 Z M208 885 Q228 885 228 865 L228 812 Q228 792 208 792 L162 792 Q142 792 142 812 L142 865 Q142 885 162 885 L208 885 Z M376 885 Q396 885 396 865 L396 812 Q396 792 376 792 L330 792 Q310 792 310 812 L310 865 Q310 885 330 885 L376 885 Z " />
<glyph glyph-name="Edotaccent" unicode="&#x116;" horiz-adv-x="498" d="M434 69 Q458 69 458 45 L458 24 Q458 0 434 0 L108 0 Q84 0 84 24 L84 696 Q84 720 108 720 L424 720 Q448 720 448 696 L448 675 Q448 651 424 651 L156 651 L156 406 L336 406 Q360 406 360 382 L360 361 Q360 337 336 337 L156 337 L156 69 L434 69 Z M290 882 Q312 882 312 860 L312 811 Q312 789 290 789 L248 789 Q226 789 226 811 L226 860 Q226 882 248 882 L290 882 Z " />
<glyph glyph-name="Egrave" unicode="&#xc8;" horiz-adv-x="498" d="M434 69 Q458 69 458 45 L458 24 Q458 0 434 0 L108 0 Q84 0 84 24 L84 696 Q84 720 108 720 L424 720 Q448 720 448 696 L448 675 Q448 651 424 651 L156 651 L156 406 L336 406 Q360 406 360 382 L360 361 Q360 337 336 337 L156 337 L156 69 L434 69 Z M158 875 Q152 881 152 887 Q152 892 157 895.5 Q162 899 170 899 L212 899 Q229 899 236 886 L292 798 Q296 791 296 786 Q296 781 291.5 777.5 Q287 774 279 774 L250 774 Q235 774 226 786 L158 875 Z " />
<glyph glyph-name="Emacron" unicode="&#x112;" horiz-adv-x="498" d="M434 69 Q458 69 458 45 L458 24 Q458 0 434 0 L108 0 Q84 0 84 24 L84 696 Q84 720 108 720 L424 720 Q448 720 448 696 L448 675 Q448 651 424 651 L156 651 L156 406 L336 406 Q360 406 360 382 L360 361 Q360 337 336 337 L156 337 L156 69 L434 69 Z M372 866 Q392 866 392 846 L392 822 Q392 802 372 802 L166 802 Q146 802 146 822 L146 846 Q146 866 166 866 L372 866 Z " />
<glyph glyph-name="Eogonek" unicode="&#x118;" horiz-adv-x="498" d="M434 69 Q458 69 458 45 L458 24 Q458 11 450 4 Q407 -30 388 -51.5 Q369 -73 369 -96 Q369 -122 386 -132.5 Q403 -143 431 -147 Q445 -149 445 -165 L445 -182 Q445 -200 429 -200 Q375 -200 343.5 -175 Q312 -150 312 -105 Q312 -46 372 0 L108 0 Q84 0 84 24 L84 696 Q84 720 108 720 L424 720 Q448 720 448 696 L448 675 Q448 651 424 651 L156 651 L156 406 L336 406 Q360 406 360 382 L360 361 Q360 337 336 337 L156 337 L156 69 L434 69 Z " />
<glyph glyph-name="F" unicode="F" horiz-adv-x="473" d="M108 0 Q84 0 84 24 L84 696 Q84 720 108 720 L414 720 Q438 720 438 696 L438 675 Q438 651 414 651 L156 651 L156 406 L336 406 Q360 406 360 382 L360 361 Q360 337 336 337 L156 337 L156 24 Q156 0 132 0 L108 0 Z " />
<glyph glyph-name="G" unicode="G" horiz-adv-x="543" d="M456 372 Q480 372 480 348 L480 192 Q480 132 453.5 86 Q427 40 380.5 15 Q334 -10 275 -10 Q215 -10 168.5 15 Q122 40 96 86 Q70 132 70 192 L70 528 Q70 588 96 634 Q122 680 168.5 705 Q215 730 275 730 Q367 730 423.5 673 Q480 616 480 522 Q480 498 456 498 L432 498 Q420 498 414.5 504 Q409 510 408 522 Q404 588 369.5 624.5 Q335 661 275 661 Q214 661 178 624 Q142 587 142 522 L142 198 Q142 133 178 96 Q214 59 275 59 Q336 59 372 96 Q408 133 408 198 L408 303 L319 303 Q295 303 295 327 L295 348 Q295 372 319 372 L456 372 Z " />
<glyph glyph-name="Gbreve" unicode="&#x11e;" horiz-adv-x="543" d="M456 372 Q480 372 480 348 L480 192 Q480 132 453.5 86 Q427 40 380.5 15 Q334 -10 275 -10 Q215 -10 168.5 15 Q122 40 96 86 Q70 132 70 192 L70 528 Q70 588 96 634 Q122 680 168.5 705 Q215 730 275 730 Q367 730 423.5 673 Q480 616 480 522 Q480 498 456 498 L432 498 Q420 498 414.5 504 Q409 510 408 522 Q404 588 369.5 624.5 Q335 661 275 661 Q214 661 178 624 Q142 587 142 522 L142 198 Q142 133 178 96 Q214 59 275 59 Q336 59 372 96 Q408 133 408 198 L408 303 L319 303 Q295 303 295 327 L295 348 Q295 372 319 372 L456 372 Z M278 773 Q227 773 192 799 Q157 825 150 870 L150 874 Q150 891 169 891 L189 891 Q198 891 203 886.5 Q208 882 211 872 Q216 850 234 836.5 Q252 823 278 823 Q304 823 322 836.5 Q340 850 345 872 Q348 882 353 886.5 Q358 891 367 891 L387 891 Q409 891 407 871 Q400 826 364.5 799.5 Q329 773 278 773 Z " />
<glyph glyph-name="Gcommaaccent" unicode="&#x122;" horiz-adv-x="543" d="M456 372 Q480 372 480 348 L480 192 Q480 132 453.5 86 Q427 40 380.5 15 Q334 -10 275 -10 Q215 -10 168.5 15 Q122 40 96 86 Q70 132 70 192 L70 528 Q70 588 96 634 Q122 680 168.5 705 Q215 730 275 730 Q367 730 423.5 673 Q480 616 480 522 Q480 498 456 498 L432 498 Q420 498 414.5 504 Q409 510 408 522 Q404 588 369.5 624.5 Q335 661 275 661 Q214 661 178 624 Q142 587 142 522 L142 198 Q142 133 178 96 Q214 59 275 59 Q336 59 372 96 Q408 133 408 198 L408 303 L319 303 Q295 303 295 327 L295 348 Q295 372 319 372 L456 372 Z M294 -64 Q314 -64 314 -84 L314 -138 Q314 -151 307 -162 L273 -214 Q269 -221 264.5 -224 Q260 -227 251 -227 L244 -227 Q229 -227 229 -218 Q229 -212 235 -203 L266 -151 L246 -151 Q226 -151 226 -131 L226 -84 Q226 -64 246 -64 L294 -64 Z " />
<glyph glyph-name="Gdotaccent" unicode="&#x120;" horiz-adv-x="543" d="M456 372 Q480 372 480 348 L480 192 Q480 132 453.5 86 Q427 40 380.5 15 Q334 -10 275 -10 Q215 -10 168.5 15 Q122 40 96 86 Q70 132 70 192 L70 528 Q70 588 96 634 Q122 680 168.5 705 Q215 730 275 730 Q367 730 423.5 673 Q480 616 480 522 Q480 498 456 498 L432 498 Q420 498 414.5 504 Q409 510 408 522 Q404 588 369.5 624.5 Q335 661 275 661 Q214 661 178 624 Q142 587 142 522 L142 198 Q142 133 178 96 Q214 59 275 59 Q336 59 372 96 Q408 133 408 198 L408 303 L319 303 Q295 303 295 327 L295 348 Q295 372 319 372 L456 372 Z M299 882 Q321 882 321 860 L321 811 Q321 789 299 789 L257 789 Q235 789 235 811 L235 860 Q235 882 257 882 L299 882 Z " />
<glyph glyph-name="H" unicode="H" horiz-adv-x="588" d="M480 720 Q504 720 504 696 L504 24 Q504 0 480 0 L456 0 Q432 0 432 24 L432 341 L156 341 L156 24 Q156 0 132 0 L108 0 Q84 0 84 24 L84 696 Q84 720 108 720 L132 720 Q156 720 156 696 L156 410 L432 410 L432 696 Q432 720 456 720 L480 720 Z " />
<glyph glyph-name="Hbar" unicode="&#x126;" horiz-adv-x="602" d="M538 607 Q562 607 562 583 L562 568 Q562 544 538 544 L511 544 L511 24 Q511 0 487 0 L463 0 Q439 0 439 24 L439 341 L163 341 L163 24 Q163 0 139 0 L115 0 Q91 0 91 24 L91 544 L64 544 Q40 544 40 568 L40 583 Q40 607 64 607 L91 607 L91 696 Q91 720 115 720 L139 720 Q163 720 163 696 L163 607 L439 607 L439 696 Q439 720 463 720 L487 720 Q511 720 511 696 L511 607 L538 607 Z M439 544 L163 544 L163 410 L439 410 L439 544 Z " />
<glyph glyph-name="I" unicode="I" horiz-adv-x="240" d="M132 720 Q156 720 156 696 L156 24 Q156 0 132 0 L108 0 Q84 0 84 24 L84 696 Q84 720 108 720 L132 720 Z " />
<glyph glyph-name="IJ" unicode="&#x132;" horiz-adv-x="708" d="M132 720 Q156 720 156 696 L156 24 Q156 0 132 0 L108 0 Q84 0 84 24 L84 696 Q84 720 108 720 L132 720 Z M605 720 Q629 720 629 696 L629 167 Q629 117 607 76.5 Q585 36 544 13 Q503 -10 447 -10 Q369 -10 321.5 33.5 Q274 77 266 148 Q264 173 289 173 L313 173 Q326 173 332 168.5 Q338 164 340 152 Q360 59 447 59 Q498 59 527.5 91 Q557 123 557 173 L557 651 L416 651 Q392 651 392 675 L392 696 Q392 720 416 720 L605 720 Z " />
<glyph glyph-name="Iacute" unicode="&#xcd;" horiz-adv-x="240" d="M132 720 Q156 720 156 696 L156 24 Q156 0 132 0 L108 0 Q84 0 84 24 L84 696 Q84 720 108 720 L132 720 Z M219 899 Q227 899 232 895.5 Q237 892 237 887 Q237 881 231 875 L163 786 Q154 774 139 774 L110 774 Q92 774 92 786 Q92 790 96 798 L153 886 Q160 899 177 899 L219 899 Z " />
<glyph glyph-name="Icircumflex" unicode="&#xce;" horiz-adv-x="240" d="M132 720 Q156 720 156 696 L156 24 Q156 0 132 0 L108 0 Q84 0 84 24 L84 696 Q84 720 108 720 L132 720 Z M150 899 Q165 899 174 887 L244 798 Q249 791 249 786 Q249 781 244.5 777.5 Q240 774 232 774 L209 774 Q194 774 184 785 L120 856 L56 785 Q46 774 31 774 L8 774 Q0 774 -4.5 777.5 Q-9 781 -9 786 Q-9 791 -4 798 L66 887 Q75 899 90 899 L150 899 Z " />
<glyph glyph-name="Idieresis" unicode="&#xcf;" horiz-adv-x="240" d="M132 720 Q156 720 156 696 L156 24 Q156 0 132 0 L108 0 Q84 0 84 24 L84 696 Q84 720 108 720 L132 720 Z M59 885 Q79 885 79 865 L79 812 Q79 792 59 792 L13 792 Q-7 792 -7 812 L-7 865 Q-7 885 13 885 L59 885 Z M227 885 Q247 885 247 865 L247 812 Q247 792 227 792 L181 792 Q161 792 161 812 L161 865 Q161 885 181 885 L227 885 Z " />
<glyph glyph-name="Idot" unicode="&#x130;" horiz-adv-x="240" d="M132 720 Q156 720 156 696 L156 24 Q156 0 132 0 L108 0 Q84 0 84 24 L84 696 Q84 720 108 720 L132 720 Z M141 882 Q163 882 163 860 L163 811 Q163 789 141 789 L99 789 Q77 789 77 811 L77 860 Q77 882 99 882 L141 882 Z " />
<glyph glyph-name="Igrave" unicode="&#xcc;" horiz-adv-x="240" d="M132 720 Q156 720 156 696 L156 24 Q156 0 132 0 L108 0 Q84 0 84 24 L84 696 Q84 720 108 720 L132 720 Z M9 875 Q3 881 3 887 Q3 892 8 895.5 Q13 899 21 899 L63 899 Q80 899 87 886 L143 798 Q147 791 147 786 Q147 781 142.5 777.5 Q138 774 130 774 L101 774 Q86 774 77 786 L9 875 Z " />
<glyph glyph-name="Imacron" unicode="&#x12a;" horiz-adv-x="240" d="M132 720 Q156 720 156 696 L156 24 Q156 0 132 0 L108 0 Q84 0 84 24 L84 696 Q84 720 108 720 L132 720 Z M223 866 Q243 866 243 846 L243 822 Q243 802 223 802 L17 802 Q-3 802 -3 822 L-3 846 Q-3 866 17 866 L223 866 Z " />
<glyph glyph-name="Iogonek" unicode="&#x12e;" horiz-adv-x="240" d="M156 27 Q156 9 149 3 Q111 -24 94.5 -47 Q78 -70 78 -96 Q78 -122 95 -132.5 Q112 -143 140 -147 Q154 -149 154 -165 L154 -182 Q154 -200 138 -200 Q84 -200 52.5 -175 Q21 -150 21 -105 Q21 -42 90 6 Q84 12 84 24 L84 696 Q84 720 108 720 L132 720 Q156 720 156 696 L156 27 Z " />
<glyph glyph-name="J" unicode="J" horiz-adv-x="468" d="M365 720 Q389 720 389 696 L389 167 Q389 117 367 76.5 Q345 36 304 13 Q263 -10 207 -10 Q129 -10 81.5 33.5 Q34 77 26 148 Q24 173 49 173 L73 173 Q86 173 92 168.5 Q98 164 100 152 Q120 59 207 59 Q258 59 287.5 91 Q317 123 317 173 L317 651 L176 651 Q152 651 152 675 L152 696 Q152 720 176 720 L365 720 Z " />
<glyph glyph-name="K" unicode="K" horiz-adv-x="517" d="M495 28 Q498 22 498 16 Q498 0 477 0 L447 0 Q428 0 419 17 L239 376 L156 267 L156 24 Q156 0 132 0 L108 0 Q84 0 84 24 L84 696 Q84 720 108 720 L132 720 Q156 720 156 696 L156 368 L405 705 Q416 720 434 720 L463 720 Q473 720 478.5 716 Q484 712 484 706 Q484 699 478 691 L286 438 L495 28 Z " />
<glyph glyph-name="Kcommaaccent" unicode="&#x136;" horiz-adv-x="517" d="M495 28 Q498 22 498 16 Q498 0 477 0 L447 0 Q428 0 419 17 L239 376 L156 267 L156 24 Q156 0 132 0 L108 0 Q84 0 84 24 L84 696 Q84 720 108 720 L132 720 Q156 720 156 696 L156 368 L405 705 Q416 720 434 720 L463 720 Q473 720 478.5 716 Q484 712 484 706 Q484 699 478 691 L286 438 L495 28 Z M282 -64 Q302 -64 302 -84 L302 -138 Q302 -151 295 -162 L261 -214 Q257 -221 252.5 -224 Q248 -227 239 -227 L232 -227 Q217 -227 217 -218 Q217 -212 223 -203 L254 -151 L234 -151 Q214 -151 214 -131 L214 -84 Q214 -64 234 -64 L282 -64 Z " />
<glyph glyph-name="L" unicode="L" horiz-adv-x="438" d="M399 69 Q423 69 423 45 L423 24 Q423 0 399 0 L108 0 Q84 0 84 24 L84 696 Q84 720 108 720 L132 720 Q156 720 156 696 L156 69 L399 69 Z " />
<glyph glyph-name="Lacute" unicode="&#x139;" horiz-adv-x="438" d="M399 69 Q423 69 423 45 L423 24 Q423 0 399 0 L108 0 Q84 0 84 24 L84 696 Q84 720 108 720 L132 720 Q156 720 156 696 L156 69 L399 69 Z M224 899 Q232 899 237 895.5 Q242 892 242 887 Q242 881 236 875 L168 786 Q159 774 144 774 L115 774 Q97 774 97 786 Q97 790 101 798 L158 886 Q165 899 182 899 L224 899 Z " />
<glyph glyph-name="Lcaron" unicode="&#x13d;" horiz-adv-x="438" d="M399 69 Q423 69 423 45 L423 24 Q423 0 399 0 L108 0 Q84 0 84 24 L84 696 Q84 720 108 720 L132 720 Q156 720 156 696 L156 69 L399 69 Z M315 720 Q335 720 335 700 L335 640 Q335 629 329 615 L295 546 Q288 531 272 531 Q254 531 254 542 Q254 548 257 554 L290 627 L266 627 Q246 627 246 647 L246 700 Q246 720 266 720 L315 720 Z " />
<glyph glyph-name="Lcommaaccent" unicode="&#x13b;" horiz-adv-x="438" d="M399 69 Q423 69 423 45 L423 24 Q423 0 399 0 L108 0 Q84 0 84 24 L84 696 Q84 720 108 720 L132 720 Q156 720 156 696 L156 69 L399 69 Z M282 -64 Q302 -64 302 -84 L302 -138 Q302 -151 295 -162 L261 -214 Q257 -221 252.5 -224 Q248 -227 239 -227 L232 -227 Q217 -227 217 -218 Q217 -212 223 -203 L254 -151 L234 -151 Q214 -151 214 -131 L214 -84 Q214 -64 234 -64 L282 -64 Z " />
<glyph glyph-name="Ldot" unicode="&#x13f;" horiz-adv-x="438" d="M399 69 Q423 69 423 45 L423 24 Q423 0 399 0 L108 0 Q84 0 84 24 L84 696 Q84 720 108 720 L132 720 Q156 720 156 696 L156 69 L399 69 Z M345 427 Q369 427 369 403 L369 351 Q369 327 345 327 L293 327 Q269 327 269 351 L269 403 Q269 427 293 427 L345 427 Z " />
<glyph glyph-name="Lslash" unicode="&#x141;" horiz-adv-x="454" d="M415 69 Q439 69 439 45 L439 24 Q439 0 415 0 L124 0 Q100 0 100 24 L100 274 L59 247 Q53 242 45 242 Q30 242 30 263 L30 283 Q30 302 46 312 L100 347 L100 696 Q100 720 124 720 L148 720 Q172 720 172 696 L172 394 L277 463 Q283 468 291 468 Q306 468 306 447 L306 427 Q306 408 290 398 L172 321 L172 69 L415 69 Z " />
<glyph glyph-name="M" unicode="M" horiz-adv-x="668" d="M496 702 Q504 720 525 720 L560 720 Q584 720 584 696 L584 24 Q584 0 560 0 L539 0 Q515 0 515 24 L515 593 L365 284 Q358 269 351 263.5 Q344 258 334 258 Q316 258 304 282 L153 594 L153 24 Q153 0 129 0 L108 0 Q84 0 84 24 L84 696 Q84 720 108 720 L143 720 Q164 720 172 702 L334 368 L496 702 Z " />
<glyph glyph-name="N" unicode="N" horiz-adv-x="597" d="M444 696 Q444 720 468 720 L489 720 Q513 720 513 696 L513 24 Q513 0 489 0 L465 0 Q444 0 436 18 L153 592 L153 24 Q153 0 129 0 L108 0 Q84 0 84 24 L84 696 Q84 720 108 720 L145 720 Q166 720 174 702 L444 155 L444 696 Z " />
<glyph glyph-name="Nacute" unicode="&#x143;" horiz-adv-x="597" d="M444 696 Q444 720 468 720 L489 720 Q513 720 513 696 L513 24 Q513 0 489 0 L465 0 Q444 0 436 18 L153 592 L153 24 Q153 0 129 0 L108 0 Q84 0 84 24 L84 696 Q84 720 108 720 L145 720 Q166 720 174 702 L444 155 L444 696 Z M409 899 Q417 899 422 895.5 Q427 892 427 887 Q427 881 421 875 L353 786 Q344 774 329 774 L300 774 Q282 774 282 786 Q282 790 286 798 L343 886 Q350 899 367 899 L409 899 Z " />
<glyph glyph-name="Ncaron" unicode="&#x147;" horiz-adv-x="597" d="M444 696 Q444 720 468 720 L489 720 Q513 720 513 696 L513 24 Q513 0 489 0 L465 0 Q444 0 436 18 L153 592 L153 24 Q153 0 129 0 L108 0 Q84 0 84 24 L84 696 Q84 720 108 720 L145 720 Q166 720 174 702 L444 155 L444 696 Z M422 899 Q430 899 434.5 895.5 Q439 892 439 887 Q439 882 434 875 L364 786 Q355 774 340 774 L280 774 Q265 774 256 786 L186 875 Q181 882 181 887 Q181 892 185.5 895.5 Q190 899 198 899 L221 899 Q236 899 246 888 L310 817 L374 888 Q384 899 399 899 L422 899 Z " />
<glyph glyph-name="Ncommaaccent" unicode="&#x145;" horiz-adv-x="597" d="M444 696 Q444 720 468 720 L489 720 Q513 720 513 696 L513 24 Q513 0 489 0 L465 0 Q444 0 436 18 L153 592 L153 24 Q153 0 129 0 L108 0 Q84 0 84 24 L84 696 Q84 720 108 720 L145 720 Q166 720 174 702 L444 155 L444 696 Z M323 -64 Q343 -64 343 -84 L343 -138 Q343 -151 336 -162 L302 -214 Q298 -221 293.5 -224 Q289 -227 280 -227 L273 -227 Q258 -227 258 -218 Q258 -212 264 -203 L295 -151 L275 -151 Q255 -151 255 -131 L255 -84 Q255 -64 275 -64 L323 -64 Z " />
<glyph glyph-name="Eng" unicode="&#x14a;" horiz-adv-x="597" d="M489 720 Q513 720 513 696 L513 -52 Q513 -116 479 -155 Q445 -194 380 -201 Q368 -202 361.5 -195.5 Q355 -189 355 -177 L355 -159 Q355 -139 378 -134 Q444 -123 444 -45 L444 2 L153 592 L153 24 Q153 0 129 0 L108 0 Q84 0 84 24 L84 696 Q84 720 108 720 L145 720 Q166 720 174 702 L444 155 L444 696 Q444 720 468 720 L489 720 Z " />
<glyph glyph-name="Ntilde" unicode="&#xd1;" horiz-adv-x="597" d="M444 696 Q444 720 468 720 L489 720 Q513 720 513 696 L513 24 Q513 0 489 0 L465 0 Q444 0 436 18 L153 592 L153 24 Q153 0 129 0 L108 0 Q84 0 84 24 L84 696 Q84 720 108 720 L145 720 Q166 720 174 702 L444 155 L444 696 Z M438 880 Q458 880 456 859 Q452 822 430.5 801.5 Q409 781 372 781 Q354 781 338.5 787.5 Q323 794 300 807 Q269 827 251 827 Q227 827 221 800 Q219 790 214 785.5 Q209 781 200 781 L184 781 Q165 781 166 802 Q170 839 191.5 859.5 Q213 880 250 880 Q268 880 283.5 873.5 Q299 867 322 854 Q353 834 371 834 Q395 834 401 861 Q403 871 408 875.5 Q413 880 422 880 L438 880 Z " />
<glyph glyph-name="O" unicode="O" horiz-adv-x="550" d="M275 730 Q334 730 380.5 705 Q427 680 453.5 634 Q480 588 480 528 L480 192 Q480 132 454 86 Q428 40 381.5 15 Q335 -10 275 -10 Q215 -10 168.5 15 Q122 40 96 86 Q70 132 70 192 L70 528 Q70 588 96.5 634 Q123 680 169.5 705 Q216 730 275 730 Z M275 661 Q214 661 178 624 Q142 587 142 522 L142 198 Q142 133 178 96 Q214 59 275 59 Q336 59 372 96 Q408 133 408 198 L408 522 Q408 587 372 624 Q336 661 275 661 Z " />
<glyph glyph-name="Oacute" unicode="&#xd3;" horiz-adv-x="550" d="M275 730 Q334 730 380.5 705 Q427 680 453.5 634 Q480 588 480 528 L480 192 Q480 132 454 86 Q428 40 381.5 15 Q335 -10 275 -10 Q215 -10 168.5 15 Q122 40 96 86 Q70 132 70 192 L70 528 Q70 588 96.5 634 Q123 680 169.5 705 Q216 730 275 730 Z M275 661 Q214 661 178 624 Q142 587 142 522 L142 198 Q142 133 178 96 Q214 59 275 59 Q336 59 372 96 Q408 133 408 198 L408 522 Q408 587 372 624 Q336 661 275 661 Z M374 899 Q382 899 387 895.5 Q392 892 392 887 Q392 881 386 875 L318 786 Q309 774 294 774 L265 774 Q247 774 247 786 Q247 790 251 798 L308 886 Q315 899 332 899 L374 899 Z " />
<glyph glyph-name="Ocircumflex" unicode="&#xd4;" horiz-adv-x="550" d="M275 730 Q334 730 380.5 705 Q427 680 453.5 634 Q480 588 480 528 L480 192 Q480 132 454 86 Q428 40 381.5 15 Q335 -10 275 -10 Q215 -10 168.5 15 Q122 40 96 86 Q70 132 70 192 L70 528 Q70 588 96.5 634 Q123 680 169.5 705 Q216 730 275 730 Z M275 661 Q214 661 178 624 Q142 587 142 522 L142 198 Q142 133 178 96 Q214 59 275 59 Q336 59 372 96 Q408 133 408 198 L408 522 Q408 587 372 624 Q336 661 275 661 Z M305 899 Q320 899 329 887 L399 798 Q404 791 404 786 Q404 781 399.5 777.5 Q395 774 387 774 L364 774 Q349 774 339 785 L275 856 L211 785 Q201 774 186 774 L163 774 Q155 774 150.5 777.5 Q146 781 146 786 Q146 791 151 798 L221 887 Q230 899 245 899 L305 899 Z " />
<glyph glyph-name="Odieresis" unicode="&#xd6;" horiz-adv-x="550" d="M275 730 Q334 730 380.5 705 Q427 680 453.5 634 Q480 588 480 528 L480 192 Q480 132 454 86 Q428 40 381.5 15 Q335 -10 275 -10 Q215 -10 168.5 15 Q122 40 96 86 Q70 132 70 192 L70 528 Q70 588 96.5 634 Q123 680 169.5 705 Q216 730 275 730 Z M275 661 Q214 661 178 624 Q142 587 142 522 L142 198 Q142 133 178 96 Q214 59 275 59 Q336 59 372 96 Q408 133 408 198 L408 522 Q408 587 372 624 Q336 661 275 661 Z M214 885 Q234 885 234 865 L234 812 Q234 792 214 792 L168 792 Q148 792 148 812 L148 865 Q148 885 168 885 L214 885 Z M382 885 Q402 885 402 865 L402 812 Q402 792 382 792 L336 792 Q316 792 316 812 L316 865 Q316 885 336 885 L382 885 Z " />
<glyph glyph-name="Ograve" unicode="&#xd2;" horiz-adv-x="550" d="M275 730 Q334 730 380.5 705 Q427 680 453.5 634 Q480 588 480 528 L480 192 Q480 132 454 86 Q428 40 381.5 15 Q335 -10 275 -10 Q215 -10 168.5 15 Q122 40 96 86 Q70 132 70 192 L70 528 Q70 588 96.5 634 Q123 680 169.5 705 Q216 730 275 730 Z M275 661 Q214 661 178 624 Q142 587 142 522 L142 198 Q142 133 178 96 Q214 59 275 59 Q336 59 372 96 Q408 133 408 198 L408 522 Q408 587 372 624 Q336 661 275 661 Z M164 875 Q158 881 158 887 Q158 892 163 895.5 Q168 899 176 899 L218 899 Q235 899 242 886 L298 798 Q302 791 302 786 Q302 781 297.5 777.5 Q293 774 285 774 L256 774 Q241 774 232 786 L164 875 Z " />
<glyph glyph-name="Ohungarumlaut" unicode="&#x150;" horiz-adv-x="550" d="M275 730 Q334 730 380.5 705 Q427 680 453.5 634 Q480 588 480 528 L480 192 Q480 132 454 86 Q428 40 381.5 15 Q335 -10 275 -10 Q215 -10 168.5 15 Q122 40 96 86 Q70 132 70 192 L70 528 Q70 588 96.5 634 Q123 680 169.5 705 Q216 730 275 730 Z M275 661 Q214 661 178 624 Q142 587 142 522 L142 198 Q142 133 178 96 Q214 59 275 59 Q336 59 372 96 Q408 133 408 198 L408 522 Q408 587 372 624 Q336 661 275 661 Z M298 899 Q306 899 311 895.5 Q316 892 316 887 Q316 881 310 875 L243 786 Q234 774 219 774 L191 774 Q174 774 174 787 Q174 793 178 798 L238 886 Q247 899 262 899 L298 899 Z M448 899 Q456 899 461 895.5 Q466 892 466 887 Q466 881 460 875 L393 786 Q384 774 369 774 L341 774 Q324 774 324 787 Q324 793 328 798 L388 886 Q397 899 412 899 L448 899 Z " />
<glyph glyph-name="Omacron" unicode="&#x14c;" horiz-adv-x="550" d="M275 730 Q334 730 380.5 705 Q427 680 453.5 634 Q480 588 480 528 L480 192 Q480 132 454 86 Q428 40 381.5 15 Q335 -10 275 -10 Q215 -10 168.5 15 Q122 40 96 86 Q70 132 70 192 L70 528 Q70 588 96.5 634 Q123 680 169.5 705 Q216 730 275 730 Z M275 661 Q214 661 178 624 Q142 587 142 522 L142 198 Q142 133 178 96 Q214 59 275 59 Q336 59 372 96 Q408 133 408 198 L408 522 Q408 587 372 624 Q336 661 275 661 Z M378 866 Q398 866 398 846 L398 822 Q398 802 378 802 L172 802 Q152 802 152 822 L152 846 Q152 866 172 866 L378 866 Z " />
<glyph glyph-name="Oslash" unicode="&#xd8;" horiz-adv-x="550" d="M480 716 Q497 707 497 695 Q497 689 493 682 L459 623 Q480 581 480 528 L480 192 Q480 132 454 86 Q428 40 381.5 15 Q335 -10 275 -10 Q186 -10 130 43 L112 11 Q105 -2 93 -2 Q85 -2 74 4 Q59 13 59 24 Q59 31 63 38 L93 91 Q70 135 70 192 L70 528 Q70 588 96.5 634 Q123 680 169.5 705 Q216 730 275 730 Q319 730 357.5 715 Q396 700 424 673 L444 709 Q451 722 462 722 Q466 722 480 716 Z M142 198 Q142 185 143 179 L386 606 Q369 632 340.5 646.5 Q312 661 275 661 Q214 661 178 624 Q142 587 142 522 L142 198 Z M408 532 L167 109 Q184 85 212 72 Q240 59 275 59 Q336 59 372 96 Q408 133 408 198 L408 522 L408 532 Z " />
<glyph glyph-name="Otilde" unicode="&#xd5;" horiz-adv-x="550" d="M275 730 Q334 730 380.5 705 Q427 680 453.5 634 Q480 588 480 528 L480 192 Q480 132 454 86 Q428 40 381.5 15 Q335 -10 275 -10 Q215 -10 168.5 15 Q122 40 96 86 Q70 132 70 192 L70 528 Q70 588 96.5 634 Q123 680 169.5 705 Q216 730 275 730 Z M275 661 Q214 661 178 624 Q142 587 142 522 L142 198 Q142 133 178 96 Q214 59 275 59 Q336 59 372 96 Q408 133 408 198 L408 522 Q408 587 372 624 Q336 661 275 661 Z M403 880 Q423 880 421 859 Q417 822 395.5 801.5 Q374 781 337 781 Q319 781 303.5 787.5 Q288 794 265 807 Q234 827 216 827 Q192 827 186 800 Q184 790 179 785.5 Q174 781 165 781 L149 781 Q130 781 131 802 Q135 839 156.5 859.5 Q178 880 215 880 Q233 880 248.5 873.5 Q264 867 287 854 Q318 834 336 834 Q360 834 366 861 Q368 871 373 875.5 Q378 880 387 880 L403 880 Z " />
<glyph glyph-name="OE" unicode="&#x152;" horiz-adv-x="820" d="M756 69 Q780 69 780 45 L780 24 Q780 0 756 0 L282 0 Q220 0 172 25.5 Q124 51 97 97 Q70 143 70 203 L70 517 Q70 577 97 623 Q124 669 172 694.5 Q220 720 282 720 L746 720 Q770 720 770 696 L770 675 Q770 651 746 651 L478 651 L478 406 L658 406 Q682 406 682 382 L682 361 Q682 337 658 337 L478 337 L478 69 L756 69 Z M142 209 Q142 144 180 106.5 Q218 69 282 69 L406 69 L406 651 L282 651 Q218 651 180 613.5 Q142 576 142 511 L142 209 Z " />
<glyph glyph-name="P" unicode="P" horiz-adv-x="513" d="M284 720 Q369 720 420 670 Q471 620 471 538 L471 472 Q471 390 420 340 Q369 290 284 290 L156 290 L156 24 Q156 0 132 0 L108 0 Q84 0 84 24 L84 696 Q84 720 108 720 L284 720 Z M399 535 Q399 591 368 621 Q337 651 281 651 L156 651 L156 359 L281 359 Q337 359 368 389 Q399 419 399 475 L399 535 Z " />
<glyph glyph-name="Thorn" unicode="&#xde;" horiz-adv-x="513" d="M284 590 Q369 590 420 540 Q471 490 471 408 L471 342 Q471 260 420 210 Q369 160 284 160 L156 160 L156 24 Q156 0 132 0 L108 0 Q84 0 84 24 L84 696 Q84 720 108 720 L132 720 Q156 720 156 696 L156 590 L284 590 Z M399 405 Q399 461 368 491 Q337 521 281 521 L156 521 L156 229 L281 229 Q337 229 368 259 Q399 289 399 345 L399 405 Z " />
<glyph glyph-name="Q" unicode="Q" horiz-adv-x="551" d="M480 192 Q480 137 457 93 Q434 49 394 23 L424 -42 Q427 -48 427 -54 Q427 -61 421.5 -65.5 Q416 -70 406 -70 L381 -70 Q361 -70 353 -52 L331 -4 Q304 -10 275 -10 Q215 -10 168.5 15 Q122 40 96 86 Q70 132 70 192 L70 528 Q70 588 96.5 634 Q123 680 169.5 705 Q216 730 275 730 Q334 730 380.5 705 Q427 680 453.5 634 Q480 588 480 528 L480 192 Z M408 522 Q408 587 372 624 Q336 661 275 661 Q214 661 178 624 Q142 587 142 522 L142 198 Q142 133 178 96 Q214 59 275 59 Q285 59 301 61 L253 166 Q250 172 250 178 Q250 185 255.5 189.5 Q261 194 271 194 L296 194 Q317 194 324 176 L364 89 Q385 106 396.5 134 Q408 162 408 198 L408 522 Z " />
<glyph glyph-name="R" unicode="R" horiz-adv-x="551" d="M108 0 Q84 0 84 24 L84 696 Q84 720 108 720 L301 720 Q386 720 437 670 Q488 620 488 538 L488 500 Q488 435 454.5 389 Q421 343 362 326 L497 28 Q500 22 500 16 Q500 9 494.5 4.5 Q489 0 479 0 L452 0 Q432 0 424 18 L287 318 L156 318 L156 24 Q156 0 132 0 L108 0 Z M298 387 Q354 387 385 417 Q416 447 416 503 L416 535 Q416 591 385 621 Q354 651 298 651 L156 651 L156 387 L298 387 Z " />
<glyph glyph-name="Racute" unicode="&#x154;" horiz-adv-x="551" d="M108 0 Q84 0 84 24 L84 696 Q84 720 108 720 L301 720 Q386 720 437 670 Q488 620 488 538 L488 500 Q488 435 454.5 389 Q421 343 362 326 L497 28 Q500 22 500 16 Q500 9 494.5 4.5 Q489 0 479 0 L452 0 Q432 0 424 18 L287 318 L156 318 L156 24 Q156 0 132 0 L108 0 Z M298 387 Q354 387 385 417 Q416 447 416 503 L416 535 Q416 591 385 621 Q354 651 298 651 L156 651 L156 387 L298 387 Z M381 899 Q389 899 394 895.5 Q399 892 399 887 Q399 881 393 875 L325 786 Q316 774 301 774 L272 774 Q254 774 254 786 Q254 790 258 798 L315 886 Q322 899 339 899 L381 899 Z " />
<glyph glyph-name="Rcaron" unicode="&#x158;" horiz-adv-x="551" d="M108 0 Q84 0 84 24 L84 696 Q84 720 108 720 L301 720 Q386 720 437 670 Q488 620 488 538 L488 500 Q488 435 454.5 389 Q421 343 362 326 L497 28 Q500 22 500 16 Q500 9 494.5 4.5 Q489 0 479 0 L452 0 Q432 0 424 18 L287 318 L156 318 L156 24 Q156 0 132 0 L108 0 Z M298 387 Q354 387 385 417 Q416 447 416 503 L416 535 Q416 591 385 621 Q354 651 298 651 L156 651 L156 387 L298 387 Z M394 899 Q402 899 406.5 895.5 Q411 892 411 887 Q411 882 406 875 L336 786 Q327 774 312 774 L252 774 Q237 774 228 786 L158 875 Q153 882 153 887 Q153 892 157.5 895.5 Q162 899 170 899 L193 899 Q208 899 218 888 L282 817 L346 888 Q356 899 371 899 L394 899 Z " />
<glyph glyph-name="Rcommaaccent" unicode="&#x156;" horiz-adv-x="551" d="M108 0 Q84 0 84 24 L84 696 Q84 720 108 720 L301 720 Q386 720 437 670 Q488 620 488 538 L488 500 Q488 435 454.5 389 Q421 343 362 326 L497 28 Q500 22 500 16 Q500 9 494.5 4.5 Q489 0 479 0 L452 0 Q432 0 424 18 L287 318 L156 318 L156 24 Q156 0 132 0 L108 0 Z M298 387 Q354 387 385 417 Q416 447 416 503 L416 535 Q416 591 385 621 Q354 651 298 651 L156 651 L156 387 L298 387 Z M306 -64 Q326 -64 326 -84 L326 -138 Q326 -151 319 -162 L285 -214 Q281 -221 276.5 -224 Q272 -227 263 -227 L256 -227 Q241 -227 241 -218 Q241 -212 247 -203 L278 -151 L258 -151 Q238 -151 238 -131 L238 -84 Q238 -64 258 -64 L306 -64 Z " />
<glyph glyph-name="S" unicode="S" horiz-adv-x="502" d="M221 349 Q140 376 98 421 Q56 466 56 540 Q56 624 109 676 Q162 728 247 728 Q327 728 378.5 683 Q430 638 438 563 Q439 551 432.5 544.5 Q426 538 414 538 L390 538 Q370 538 365 561 Q355 609 327 634 Q299 659 247 659 Q190 659 159 626.5 Q128 594 128 539 Q128 493 157.5 465.5 Q187 438 244 418 L281 405 Q366 375 409.5 329 Q453 283 453 199 Q453 136 427 89 Q401 42 354.5 16 Q308 -10 248 -10 Q162 -10 106 40 Q50 90 43 176 Q42 188 48.5 194.5 Q55 201 67 201 L91 201 Q111 201 116 178 Q137 59 248 59 Q310 59 345.5 97.5 Q381 136 381 199 Q381 255 349 286 Q317 317 257 337 L221 349 Z " />
<glyph glyph-name="Sacute" unicode="&#x15a;" horiz-adv-x="502" d="M221 349 Q140 376 98 421 Q56 466 56 540 Q56 624 109 676 Q162 728 247 728 Q327 728 378.5 683 Q430 638 438 563 Q439 551 432.5 544.5 Q426 538 414 538 L390 538 Q370 538 365 561 Q355 609 327 634 Q299 659 247 659 Q190 659 159 626.5 Q128 594 128 539 Q128 493 157.5 465.5 Q187 438 244 418 L281 405 Q366 375 409.5 329 Q453 283 453 199 Q453 136 427 89 Q401 42 354.5 16 Q308 -10 248 -10 Q162 -10 106 40 Q50 90 43 176 Q42 188 48.5 194.5 Q55 201 67 201 L91 201 Q111 201 116 178 Q137 59 248 59 Q310 59 345.5 97.5 Q381 136 381 199 Q381 255 349 286 Q317 317 257 337 L221 349 Z M350 899 Q358 899 363 895.5 Q368 892 368 887 Q368 881 362 875 L294 786 Q285 774 270 774 L241 774 Q223 774 223 786 Q223 790 227 798 L284 886 Q291 899 308 899 L350 899 Z " />
<glyph glyph-name="Scaron" unicode="&#x160;" horiz-adv-x="502" d="M221 349 Q140 376 98 421 Q56 466 56 540 Q56 624 109 676 Q162 728 247 728 Q327 728 378.5 683 Q430 638 438 563 Q439 551 432.5 544.5 Q426 538 414 538 L390 538 Q370 538 365 561 Q355 609 327 634 Q299 659 247 659 Q190 659 159 626.5 Q128 594 128 539 Q128 493 157.5 465.5 Q187 438 244 418 L281 405 Q366 375 409.5 329 Q453 283 453 199 Q453 136 427 89 Q401 42 354.5 16 Q308 -10 248 -10 Q162 -10 106 40 Q50 90 43 176 Q42 188 48.5 194.5 Q55 201 67 201 L91 201 Q111 201 116 178 Q137 59 248 59 Q310 59 345.5 97.5 Q381 136 381 199 Q381 255 349 286 Q317 317 257 337 L221 349 Z M363 899 Q371 899 375.5 895.5 Q380 892 380 887 Q380 882 375 875 L305 786 Q296 774 281 774 L221 774 Q206 774 197 786 L127 875 Q122 882 122 887 Q122 892 126.5 895.5 Q131 899 139 899 L162 899 Q177 899 187 888 L251 817 L315 888 Q325 899 340 899 L363 899 Z " />
<glyph glyph-name="Scedilla" unicode="&#x15e;" horiz-adv-x="502" d="M453 199 Q453 111 403 55 Q353 -1 272 -9 L254 -47 Q301 -44 329 -64.5 Q357 -85 357 -123 Q357 -162 329 -186 Q301 -210 256 -210 Q208 -210 169 -189 Q159 -183 159 -173 Q159 -166 163 -161 L167 -155 Q173 -144 182 -144 Q186 -144 194 -148 Q222 -163 253 -163 Q276 -163 290.5 -153 Q305 -143 305 -124 Q305 -106 291 -97 Q277 -88 253 -88 Q242 -88 237 -89 L233 -89 Q221 -89 210 -77 Q203 -68 203 -61 Q203 -56 206 -50 L224 -9 Q147 -2 98.5 47 Q50 96 43 176 Q42 188 48.5 194.5 Q55 201 67 201 L91 201 Q111 201 116 178 Q137 59 248 59 Q310 59 345.5 97.5 Q381 136 381 199 Q381 255 349 286 Q317 317 257 337 L221 349 Q140 376 98 421 Q56 466 56 540 Q56 624 109 676 Q162 728 247 728 Q327 728 378.5 683 Q430 638 438 563 Q439 551 432.5 544.5 Q426 538 414 538 L390 538 Q370 538 365 561 Q355 609 327 634 Q299 659 247 659 Q190 659 159 626.5 Q128 594 128 539 Q128 493 157.5 465.5 Q187 438 244 418 L281 405 Q366 375 409.5 329 Q453 283 453 199 Z " />
<glyph glyph-name="Scommaaccent" unicode="&#x218;" horiz-adv-x="502" d="M221 349 Q140 376 98 421 Q56 466 56 540 Q56 624 109 676 Q162 728 247 728 Q327 728 378.5 683 Q430 638 438 563 Q439 551 432.5 544.5 Q426 538 414 538 L390 538 Q370 538 365 561 Q355 609 327 634 Q299 659 247 659 Q190 659 159 626.5 Q128 594 128 539 Q128 493 157.5 465.5 Q187 438 244 418 L281 405 Q366 375 409.5 329 Q453 283 453 199 Q453 136 427 89 Q401 42 354.5 16 Q308 -10 248 -10 Q162 -10 106 40 Q50 90 43 176 Q42 188 48.5 194.5 Q55 201 67 201 L91 201 Q111 201 116 178 Q137 59 248 59 Q310 59 345.5 97.5 Q381 136 381 199 Q381 255 349 286 Q317 317 257 337 L221 349 Z M275 -64 Q295 -64 295 -84 L295 -138 Q295 -151 288 -162 L254 -214 Q250 -221 245.5 -224 Q241 -227 232 -227 L225 -227 Q210 -227 210 -218 Q210 -212 216 -203 L247 -151 L227 -151 Q207 -151 207 -131 L207 -84 Q207 -64 227 -64 L275 -64 Z " />
<glyph glyph-name="T" unicode="T" horiz-adv-x="471" d="M422 720 Q446 720 446 696 L446 675 Q446 651 422 651 L272 651 L272 24 Q272 0 248 0 L224 0 Q200 0 200 24 L200 651 L50 651 Q26 651 26 675 L26 696 Q26 720 50 720 L422 720 Z " />
<glyph glyph-name="Tbar" unicode="&#x166;" horiz-adv-x="471" d="M421 720 Q445 720 445 696 L445 675 Q445 651 421 651 L272 651 L272 413 L351 413 Q375 413 375 389 L375 374 Q375 350 351 350 L272 350 L272 24 Q272 0 248 0 L224 0 Q200 0 200 24 L200 350 L113 350 Q89 350 89 374 L89 389 Q89 413 113 413 L200 413 L200 651 L50 651 Q26 651 26 675 L26 696 Q26 720 50 720 L421 720 Z " />
<glyph glyph-name="Tcaron" unicode="&#x164;" horiz-adv-x="471" d="M422 720 Q446 720 446 696 L446 675 Q446 651 422 651 L272 651 L272 24 Q272 0 248 0 L224 0 Q200 0 200 24 L200 651 L50 651 Q26 651 26 675 L26 696 Q26 720 50 720 L422 720 Z M348 899 Q356 899 360.5 895.5 Q365 892 365 887 Q365 882 360 875 L290 786 Q281 774 266 774 L206 774 Q191 774 182 786 L112 875 Q107 882 107 887 Q107 892 111.5 895.5 Q116 899 124 899 L147 899 Q162 899 172 888 L236 817 L300 888 Q310 899 325 899 L348 899 Z " />
<glyph glyph-name="uni0162" unicode="&#x162;" horiz-adv-x="471" d="M422 720 Q446 720 446 696 L446 675 Q446 651 422 651 L272 651 L272 24 Q272 8 261 2 L238 -47 Q285 -44 313 -64.5 Q341 -85 341 -123 Q341 -162 313 -186 Q285 -210 240 -210 Q192 -210 153 -189 Q143 -183 143 -173 Q143 -166 147 -161 L151 -155 Q157 -144 166 -144 Q170 -144 178 -148 Q206 -163 237 -163 Q260 -163 274.5 -153 Q289 -143 289 -124 Q289 -106 275 -97 Q261 -88 237 -88 Q226 -88 221 -89 L217 -89 Q205 -89 194 -77 Q187 -68 187 -61 Q187 -56 190 -50 L213 2 Q200 6 200 24 L200 651 L50 651 Q26 651 26 675 L26 696 Q26 720 50 720 L422 720 Z " />
<glyph glyph-name="uni021A" unicode="&#x21a;" horiz-adv-x="471" d="M422 720 Q446 720 446 696 L446 675 Q446 651 422 651 L272 651 L272 24 Q272 0 248 0 L224 0 Q200 0 200 24 L200 651 L50 651 Q26 651 26 675 L26 696 Q26 720 50 720 L422 720 Z M259 -64 Q279 -64 279 -84 L279 -138 Q279 -151 272 -162 L238 -214 Q234 -221 229.5 -224 Q225 -227 216 -227 L209 -227 Q194 -227 194 -218 Q194 -212 200 -203 L231 -151 L211 -151 Q191 -151 191 -131 L191 -84 Q191 -64 211 -64 L259 -64 Z " />
<glyph glyph-name="U" unicode="U" horiz-adv-x="568" d="M465 720 Q489 720 489 696 L489 192 Q489 132 463 86 Q437 40 390.5 15 Q344 -10 284 -10 Q224 -10 177.5 15 Q131 40 105 86 Q79 132 79 192 L79 696 Q79 720 103 720 L127 720 Q151 720 151 696 L151 198 Q151 133 187 96 Q223 59 284 59 Q345 59 381 96 Q417 133 417 198 L417 696 Q417 720 441 720 L465 720 Z " />
<glyph glyph-name="Uacute" unicode="&#xda;" horiz-adv-x="568" d="M465 720 Q489 720 489 696 L489 192 Q489 132 463 86 Q437 40 390.5 15 Q344 -10 284 -10 Q224 -10 177.5 15 Q131 40 105 86 Q79 132 79 192 L79 696 Q79 720 103 720 L127 720 Q151 720 151 696 L151 198 Q151 133 187 96 Q223 59 284 59 Q345 59 381 96 Q417 133 417 198 L417 696 Q417 720 441 720 L465 720 Z M382 899 Q390 899 395 895.5 Q400 892 400 887 Q400 881 394 875 L326 786 Q317 774 302 774 L273 774 Q255 774 255 786 Q255 790 259 798 L316 886 Q323 899 340 899 L382 899 Z " />
<glyph glyph-name="Ucircumflex" unicode="&#xdb;" horiz-adv-x="568" d="M465 720 Q489 720 489 696 L489 192 Q489 132 463 86 Q437 40 390.5 15 Q344 -10 284 -10 Q224 -10 177.5 15 Q131 40 105 86 Q79 132 79 192 L79 696 Q79 720 103 720 L127 720 Q151 720 151 696 L151 198 Q151 133 187 96 Q223 59 284 59 Q345 59 381 96 Q417 133 417 198 L417 696 Q417 720 441 720 L465 720 Z M313 899 Q328 899 337 887 L407 798 Q412 791 412 786 Q412 781 407.5 777.5 Q403 774 395 774 L372 774 Q357 774 347 785 L283 856 L219 785 Q209 774 194 774 L171 774 Q163 774 158.5 777.5 Q154 781 154 786 Q154 791 159 798 L229 887 Q238 899 253 899 L313 899 Z " />
<glyph glyph-name="Udieresis" unicode="&#xdc;" horiz-adv-x="568" d="M465 720 Q489 720 489 696 L489 192 Q489 132 463 86 Q437 40 390.5 15 Q344 -10 284 -10 Q224 -10 177.5 15 Q131 40 105 86 Q79 132 79 192 L79 696 Q79 720 103 720 L127 720 Q151 720 151 696 L151 198 Q151 133 187 96 Q223 59 284 59 Q345 59 381 96 Q417 133 417 198 L417 696 Q417 720 441 720 L465 720 Z M222 885 Q242 885 242 865 L242 812 Q242 792 222 792 L176 792 Q156 792 156 812 L156 865 Q156 885 176 885 L222 885 Z M390 885 Q410 885 410 865 L410 812 Q410 792 390 792 L344 792 Q324 792 324 812 L324 865 Q324 885 344 885 L390 885 Z " />
<glyph glyph-name="Ugrave" unicode="&#xd9;" horiz-adv-x="568" d="M465 720 Q489 720 489 696 L489 192 Q489 132 463 86 Q437 40 390.5 15 Q344 -10 284 -10 Q224 -10 177.5 15 Q131 40 105 86 Q79 132 79 192 L79 696 Q79 720 103 720 L127 720 Q151 720 151 696 L151 198 Q151 133 187 96 Q223 59 284 59 Q345 59 381 96 Q417 133 417 198 L417 696 Q417 720 441 720 L465 720 Z M172 875 Q166 881 166 887 Q166 892 171 895.5 Q176 899 184 899 L226 899 Q243 899 250 886 L306 798 Q310 791 310 786 Q310 781 305.5 777.5 Q301 774 293 774 L264 774 Q249 774 240 786 L172 875 Z " />
<glyph glyph-name="Uhungarumlaut" unicode="&#x170;" horiz-adv-x="568" d="M465 720 Q489 720 489 696 L489 192 Q489 132 463 86 Q437 40 390.5 15 Q344 -10 284 -10 Q224 -10 177.5 15 Q131 40 105 86 Q79 132 79 192 L79 696 Q79 720 103 720 L127 720 Q151 720 151 696 L151 198 Q151 133 187 96 Q223 59 284 59 Q345 59 381 96 Q417 133 417 198 L417 696 Q417 720 441 720 L465 720 Z M306 899 Q314 899 319 895.5 Q324 892 324 887 Q324 881 318 875 L251 786 Q242 774 227 774 L199 774 Q182 774 182 787 Q182 793 186 798 L246 886 Q255 899 270 899 L306 899 Z M456 899 Q464 899 469 895.5 Q474 892 474 887 Q474 881 468 875 L401 786 Q392 774 377 774 L349 774 Q332 774 332 787 Q332 793 336 798 L396 886 Q405 899 420 899 L456 899 Z " />
<glyph glyph-name="Umacron" unicode="&#x16a;" horiz-adv-x="568" d="M465 720 Q489 720 489 696 L489 192 Q489 132 463 86 Q437 40 390.5 15 Q344 -10 284 -10 Q224 -10 177.5 15 Q131 40 105 86 Q79 132 79 192 L79 696 Q79 720 103 720 L127 720 Q151 720 151 696 L151 198 Q151 133 187 96 Q223 59 284 59 Q345 59 381 96 Q417 133 417 198 L417 696 Q417 720 441 720 L465 720 Z M386 866 Q406 866 406 846 L406 822 Q406 802 386 802 L180 802 Q160 802 160 822 L160 846 Q160 866 180 866 L386 866 Z " />
<glyph glyph-name="Uogonek" unicode="&#x172;" horiz-adv-x="568" d="M389 -200 Q334 -200 303 -174.5 Q272 -149 272 -102 Q272 -56 310 -10 L284 -10 Q224 -10 177.5 15 Q131 40 105 86 Q79 132 79 192 L79 696 Q79 720 103 720 L127 720 Q151 720 151 696 L151 198 Q151 133 187 96 Q223 59 284 59 Q345 59 381 96 Q417 133 417 198 L417 696 Q417 720 441 720 L465 720 Q489 720 489 696 L489 192 Q489 89 413 30 Q370 -3 349.5 -32 Q329 -61 329 -93 Q329 -121 346 -132.5 Q363 -144 391 -147 Q405 -149 405 -163 L405 -180 Q405 -193 401.5 -196.5 Q398 -200 389 -200 Z " />
<glyph glyph-name="Uring" unicode="&#x16e;" horiz-adv-x="568" d="M465 720 Q489 720 489 696 L489 192 Q489 132 463 86 Q437 40 390.5 15 Q344 -10 284 -10 Q224 -10 177.5 15 Q131 40 105 86 Q79 132 79 192 L79 696 Q79 720 103 720 L127 720 Q151 720 151 696 L151 198 Q151 133 187 96 Q223 59 284 59 Q345 59 381 96 Q417 133 417 198 L417 696 Q417 720 441 720 L465 720 Z M283 920 Q327 920 357.5 889.5 Q388 859 388 816 Q388 772 357.5 741.5 Q327 711 283 711 Q239 711 208 741.5 Q177 772 177 816 Q177 859 208 889.5 Q239 920 283 920 Z M283 875 Q258 875 241.5 858 Q225 841 225 816 Q225 790 241.5 773 Q258 756 283 756 Q307 756 323.5 773 Q340 790 340 816 Q340 841 323.5 858 Q307 875 283 875 Z " />
<glyph glyph-name="V" unicode="V" horiz-adv-x="515" d="M467 720 Q489 720 489 701 Q489 696 488 693 L310 21 Q306 0 284 0 L232 0 Q211 0 206 21 L27 693 Q26 696 26 701 Q26 720 48 720 L71 720 Q93 720 97 699 L259 87 L419 699 Q424 720 445 720 L467 720 Z " />
<glyph glyph-name="W" unicode="W" horiz-adv-x="835" d="M204 0 Q183 0 178 21 L37 694 Q35 706 40.5 713 Q46 720 59 720 L81 720 Q103 720 107 699 L237 67 L371 699 Q376 720 397 720 L441 720 Q463 720 467 699 L601 67 L729 699 Q734 720 755 720 L776 720 Q789 720 794.5 713 Q800 706 798 694 L659 21 Q655 0 633 0 L572 0 Q551 0 545 21 L418 621 L291 21 Q285 0 264 0 L204 0 Z " />
<glyph glyph-name="Wacute" unicode="&#x1e82;" horiz-adv-x="835" d="M204 0 Q183 0 178 21 L37 694 Q35 706 40.5 713 Q46 720 59 720 L81 720 Q103 720 107 699 L237 67 L371 699 Q376 720 397 720 L441 720 Q463 720 467 699 L601 67 L729 699 Q734 720 755 720 L776 720 Q789 720 794.5 713 Q800 706 798 694 L659 21 Q655 0 633 0 L572 0 Q551 0 545 21 L418 621 L291 21 Q285 0 264 0 L204 0 Z M516 899 Q524 899 529 895.5 Q534 892 534 887 Q534 881 528 875 L460 786 Q451 774 436 774 L407 774 Q389 774 389 786 Q389 790 393 798 L450 886 Q457 899 474 899 L516 899 Z " />
<glyph glyph-name="Wcircumflex" unicode="&#x174;" horiz-adv-x="835" d="M204 0 Q183 0 178 21 L37 694 Q35 706 40.5 713 Q46 720 59 720 L81 720 Q103 720 107 699 L237 67 L371 699 Q376 720 397 720 L441 720 Q463 720 467 699 L601 67 L729 699 Q734 720 755 720 L776 720 Q789 720 794.5 713 Q800 706 798 694 L659 21 Q655 0 633 0 L572 0 Q551 0 545 21 L418 621 L291 21 Q285 0 264 0 L204 0 Z M447 899 Q462 899 471 887 L541 798 Q546 791 546 786 Q546 781 541.5 777.5 Q537 774 529 774 L506 774 Q491 774 481 785 L417 856 L353 785 Q343 774 328 774 L305 774 Q297 774 292.5 777.5 Q288 781 288 786 Q288 791 293 798 L363 887 Q372 899 387 899 L447 899 Z " />
<glyph glyph-name="Wdieresis" unicode="&#x1e84;" horiz-adv-x="835" d="M204 0 Q183 0 178 21 L37 694 Q35 706 40.5 713 Q46 720 59 720 L81 720 Q103 720 107 699 L237 67 L371 699 Q376 720 397 720 L441 720 Q463 720 467 699 L601 67 L729 699 Q734 720 755 720 L776 720 Q789 720 794.5 713 Q800 706 798 694 L659 21 Q655 0 633 0 L572 0 Q551 0 545 21 L418 621 L291 21 Q285 0 264 0 L204 0 Z M356 885 Q376 885 376 865 L376 812 Q376 792 356 792 L310 792 Q290 792 290 812 L290 865 Q290 885 310 885 L356 885 Z M524 885 Q544 885 544 865 L544 812 Q544 792 524 792 L478 792 Q458 792 458 812 L458 865 Q458 885 478 885 L524 885 Z " />
<glyph glyph-name="Wgrave" unicode="&#x1e80;" horiz-adv-x="835" d="M204 0 Q183 0 178 21 L37 694 Q35 706 40.5 713 Q46 720 59 720 L81 720 Q103 720 107 699 L237 67 L371 699 Q376 720 397 720 L441 720 Q463 720 467 699 L601 67 L729 699 Q734 720 755 720 L776 720 Q789 720 794.5 713 Q800 706 798 694 L659 21 Q655 0 633 0 L572 0 Q551 0 545 21 L418 621 L291 21 Q285 0 264 0 L204 0 Z M306 875 Q300 881 300 887 Q300 892 305 895.5 Q310 899 318 899 L360 899 Q377 899 384 886 L440 798 Q444 791 444 786 Q444 781 439.5 777.5 Q435 774 427 774 L398 774 Q383 774 374 786 L306 875 Z " />
<glyph glyph-name="X" unicode="X" horiz-adv-x="508" d="M471 29 Q475 22 475 16 Q475 9 469.5 4.5 Q464 0 454 0 L429 0 Q410 0 401 17 L253 305 L106 17 Q98 0 78 0 L54 0 Q44 0 38.5 4.5 Q33 9 33 16 Q33 22 37 29 L216 372 L50 691 Q46 698 46 704 Q46 711 51.5 715.5 Q57 720 67 720 L91 720 Q111 720 119 703 L255 439 L390 703 Q399 720 418 720 L441 720 Q451 720 456.5 715.5 Q462 711 462 704 Q462 698 458 691 L292 372 L471 29 Z " />
<glyph glyph-name="Y" unicode="Y" horiz-adv-x="493" d="M445 720 Q455 720 460.5 716 Q466 712 466 705 Q466 699 462 692 L283 346 L283 24 Q283 0 259 0 L235 0 Q211 0 211 24 L211 344 L31 692 Q27 699 27 705 Q27 712 32.5 716 Q38 720 48 720 L74 720 Q94 720 102 703 L247 419 L392 703 Q401 720 420 720 L445 720 Z " />
<glyph glyph-name="Yacute" unicode="&#xdd;" horiz-adv-x="493" d="M445 720 Q455 720 460.5 716 Q466 712 466 705 Q466 699 462 692 L283 346 L283 24 Q283 0 259 0 L235 0 Q211 0 211 24 L211 344 L31 692 Q27 699 27 705 Q27 712 32.5 716 Q38 720 48 720 L74 720 Q94 720 102 703 L247 419 L392 703 Q401 720 420 720 L445 720 Z M348 899 Q356 899 361 895.5 Q366 892 366 887 Q366 881 360 875 L292 786 Q283 774 268 774 L239 774 Q221 774 221 786 Q221 790 225 798 L282 886 Q289 899 306 899 L348 899 Z " />
<glyph glyph-name="Ycircumflex" unicode="&#x176;" horiz-adv-x="493" d="M445 720 Q455 720 460.5 716 Q466 712 466 705 Q466 699 462 692 L283 346 L283 24 Q283 0 259 0 L235 0 Q211 0 211 24 L211 344 L31 692 Q27 699 27 705 Q27 712 32.5 716 Q38 720 48 720 L74 720 Q94 720 102 703 L247 419 L392 703 Q401 720 420 720 L445 720 Z M279 899 Q294 899 303 887 L373 798 Q378 791 378 786 Q378 781 373.5 777.5 Q369 774 361 774 L338 774 Q323 774 313 785 L249 856 L185 785 Q175 774 160 774 L137 774 Q129 774 124.5 777.5 Q120 781 120 786 Q120 791 125 798 L195 887 Q204 899 219 899 L279 899 Z " />
<glyph glyph-name="Ydieresis" unicode="&#x178;" horiz-adv-x="493" d="M445 720 Q455 720 460.5 716 Q466 712 466 705 Q466 699 462 692 L283 346 L283 24 Q283 0 259 0 L235 0 Q211 0 211 24 L211 344 L31 692 Q27 699 27 705 Q27 712 32.5 716 Q38 720 48 720 L74 720 Q94 720 102 703 L247 419 L392 703 Q401 720 420 720 L445 720 Z M188 885 Q208 885 208 865 L208 812 Q208 792 188 792 L142 792 Q122 792 122 812 L122 865 Q122 885 142 885 L188 885 Z M356 885 Q376 885 376 865 L376 812 Q376 792 356 792 L310 792 Q290 792 290 812 L290 865 Q290 885 310 885 L356 885 Z " />
<glyph glyph-name="Ygrave" unicode="&#x1ef2;" horiz-adv-x="493" d="M445 720 Q455 720 460.5 716 Q466 712 466 705 Q466 699 462 692 L283 346 L283 24 Q283 0 259 0 L235 0 Q211 0 211 24 L211 344 L31 692 Q27 699 27 705 Q27 712 32.5 716 Q38 720 48 720 L74 720 Q94 720 102 703 L247 419 L392 703 Q401 720 420 720 L445 720 Z M138 875 Q132 881 132 887 Q132 892 137 895.5 Q142 899 150 899 L192 899 Q209 899 216 886 L272 798 Q276 791 276 786 Q276 781 271.5 777.5 Q267 774 259 774 L230 774 Q215 774 206 786 L138 875 Z " />
<glyph glyph-name="Z" unicode="Z" horiz-adv-x="480" d="M438 675 Q438 659 431 645 L124 69 L414 69 Q438 69 438 45 L438 24 Q438 0 414 0 L66 0 Q42 0 42 24 L42 45 Q42 61 49 75 L356 651 L76 651 Q52 651 52 675 L52 696 Q52 720 76 720 L414 720 Q438 720 438 696 L438 675 Z " />
<glyph glyph-name="Zacute" unicode="&#x179;" horiz-adv-x="480" d="M438 675 Q438 659 431 645 L124 69 L414 69 Q438 69 438 45 L438 24 Q438 0 414 0 L66 0 Q42 0 42 24 L42 45 Q42 61 49 75 L356 651 L76 651 Q52 651 52 675 L52 696 Q52 720 76 720 L414 720 Q438 720 438 696 L438 675 Z M353 899 Q361 899 366 895.5 Q371 892 371 887 Q371 881 365 875 L297 786 Q288 774 273 774 L244 774 Q226 774 226 786 Q226 790 230 798 L287 886 Q294 899 311 899 L353 899 Z " />
<glyph glyph-name="Zcaron" unicode="&#x17d;" horiz-adv-x="480" d="M438 675 Q438 659 431 645 L124 69 L414 69 Q438 69 438 45 L438 24 Q438 0 414 0 L66 0 Q42 0 42 24 L42 45 Q42 61 49 75 L356 651 L76 651 Q52 651 52 675 L52 696 Q52 720 76 720 L414 720 Q438 720 438 696 L438 675 Z M366 899 Q374 899 378.5 895.5 Q383 892 383 887 Q383 882 378 875 L308 786 Q299 774 284 774 L224 774 Q209 774 200 786 L130 875 Q125 882 125 887 Q125 892 129.5 895.5 Q134 899 142 899 L165 899 Q180 899 190 888 L254 817 L318 888 Q328 899 343 899 L366 899 Z " />
<glyph glyph-name="Zdotaccent" unicode="&#x17b;" horiz-adv-x="480" d="M438 675 Q438 659 431 645 L124 69 L414 69 Q438 69 438 45 L438 24 Q438 0 414 0 L66 0 Q42 0 42 24 L42 45 Q42 61 49 75 L356 651 L76 651 Q52 651 52 675 L52 696 Q52 720 76 720 L414 720 Q438 720 438 696 L438 675 Z M275 882 Q297 882 297 860 L297 811 Q297 789 275 789 L233 789 Q211 789 211 811 L211 860 Q211 882 233 882 L275 882 Z " />
<glyph glyph-name="a" unicode="a" horiz-adv-x="499" d="M448 64 Q459 60 462.5 56 Q466 52 466 40 L466 24 Q466 10 462 4.5 Q458 -1 447 -1 Q414 -1 391 16.5 Q368 34 362 58 Q341 27 304 9.5 Q267 -8 218 -8 Q147 -8 99 28 Q51 64 51 131 Q51 197 94 233 Q137 269 228 284 L300 296 Q336 302 346 310.5 Q356 319 356 341 Q356 397 326.5 427.5 Q297 458 244 458 Q148 458 129 361 Q124 338 103 338 L82 338 Q70 338 63.5 344.5 Q57 351 58 363 Q66 437 116 480.5 Q166 524 243 524 Q325 524 375.5 475 Q426 426 426 346 L426 116 Q426 93 430.5 81.5 Q435 70 448 64 Z M221 56 Q281 56 318.5 89.5 Q356 123 356 176 L356 255 Q348 248 337.5 244.5 Q327 241 305 237 L247 227 Q182 216 151.5 195 Q121 174 121 134 Q121 98 148 77 Q175 56 221 56 Z " />
<glyph glyph-name="aacute" unicode="&#xe1;" horiz-adv-x="499" d="M448 64 Q459 60 462.5 56 Q466 52 466 40 L466 24 Q466 10 462 4.5 Q458 -1 447 -1 Q414 -1 391 16.5 Q368 34 362 58 Q341 27 304 9.5 Q267 -8 218 -8 Q147 -8 99 28 Q51 64 51 131 Q51 197 94 233 Q137 269 228 284 L300 296 Q336 302 346 310.5 Q356 319 356 341 Q356 397 326.5 427.5 Q297 458 244 458 Q148 458 129 361 Q124 338 103 338 L82 338 Q70 338 63.5 344.5 Q57 351 58 363 Q66 437 116 480.5 Q166 524 243 524 Q325 524 375.5 475 Q426 426 426 346 L426 116 Q426 93 430.5 81.5 Q435 70 448 64 Z M221 56 Q281 56 318.5 89.5 Q356 123 356 176 L356 255 Q348 248 337.5 244.5 Q327 241 305 237 L247 227 Q182 216 151.5 195 Q121 174 121 134 Q121 98 148 77 Q175 56 221 56 Z M351 741 Q359 741 363.5 737.5 Q368 734 368 729 Q368 722 364 717 L294 617 Q285 604 270 604 L240 604 Q232 604 227 607.5 Q222 611 222 617 Q222 620 226 628 L284 727 Q292 741 308 741 L351 741 Z " />
<glyph glyph-name="abreve" unicode="&#x103;" horiz-adv-x="499" d="M448 64 Q459 60 462.5 56 Q466 52 466 40 L466 24 Q466 10 462 4.5 Q458 -1 447 -1 Q414 -1 391 16.5 Q368 34 362 58 Q341 27 304 9.5 Q267 -8 218 -8 Q147 -8 99 28 Q51 64 51 131 Q51 197 94 233 Q137 269 228 284 L300 296 Q336 302 346 310.5 Q356 319 356 341 Q356 397 326.5 427.5 Q297 458 244 458 Q148 458 129 361 Q124 338 103 338 L82 338 Q70 338 63.5 344.5 Q57 351 58 363 Q66 437 116 480.5 Q166 524 243 524 Q325 524 375.5 475 Q426 426 426 346 L426 116 Q426 93 430.5 81.5 Q435 70 448 64 Z M221 56 Q281 56 318.5 89.5 Q356 123 356 176 L356 255 Q348 248 337.5 244.5 Q327 241 305 237 L247 227 Q182 216 151.5 195 Q121 174 121 134 Q121 98 148 77 Q175 56 221 56 Z M250 602 Q199 602 164 628 Q129 654 122 699 L122 703 Q122 720 141 720 L161 720 Q170 720 175 715.5 Q180 711 183 701 Q188 679 206 665.5 Q224 652 250 652 Q276 652 294 665.5 Q312 679 317 701 Q320 711 325 715.5 Q330 720 339 720 L359 720 Q381 720 379 700 Q372 655 336.5 628.5 Q301 602 250 602 Z " />
<glyph glyph-name="acircumflex" unicode="&#xe2;" horiz-adv-x="499" d="M448 64 Q459 60 462.5 56 Q466 52 466 40 L466 24 Q466 10 462 4.5 Q458 -1 447 -1 Q414 -1 391 16.5 Q368 34 362 58 Q341 27 304 9.5 Q267 -8 218 -8 Q147 -8 99 28 Q51 64 51 131 Q51 197 94 233 Q137 269 228 284 L300 296 Q336 302 346 310.5 Q356 319 356 341 Q356 397 326.5 427.5 Q297 458 244 458 Q148 458 129 361 Q124 338 103 338 L82 338 Q70 338 63.5 344.5 Q57 351 58 363 Q66 437 116 480.5 Q166 524 243 524 Q325 524 375.5 475 Q426 426 426 346 L426 116 Q426 93 430.5 81.5 Q435 70 448 64 Z M221 56 Q281 56 318.5 89.5 Q356 123 356 176 L356 255 Q348 248 337.5 244.5 Q327 241 305 237 L247 227 Q182 216 151.5 195 Q121 174 121 134 Q121 98 148 77 Q175 56 221 56 Z M278 741 Q293 741 302 729 L374 628 Q378 623 378 616 Q378 611 373.5 607.5 Q369 604 361 604 L337 604 Q322 604 313 616 L248 698 L183 616 Q174 604 159 604 L135 604 Q127 604 122.5 607.5 Q118 611 118 616 Q118 623 122 628 L194 729 Q203 741 218 741 L278 741 Z " />
<glyph glyph-name="adieresis" unicode="&#xe4;" horiz-adv-x="499" d="M448 64 Q459 60 462.5 56 Q466 52 466 40 L466 24 Q466 10 462 4.5 Q458 -1 447 -1 Q414 -1 391 16.5 Q368 34 362 58 Q341 27 304 9.5 Q267 -8 218 -8 Q147 -8 99 28 Q51 64 51 131 Q51 197 94 233 Q137 269 228 284 L300 296 Q336 302 346 310.5 Q356 319 356 341 Q356 397 326.5 427.5 Q297 458 244 458 Q148 458 129 361 Q124 338 103 338 L82 338 Q70 338 63.5 344.5 Q57 351 58 363 Q66 437 116 480.5 Q166 524 243 524 Q325 524 375.5 475 Q426 426 426 346 L426 116 Q426 93 430.5 81.5 Q435 70 448 64 Z M221 56 Q281 56 318.5 89.5 Q356 123 356 176 L356 255 Q348 248 337.5 244.5 Q327 241 305 237 L247 227 Q182 216 151.5 195 Q121 174 121 134 Q121 98 148 77 Q175 56 221 56 Z M187 720 Q207 720 207 700 L207 647 Q207 627 187 627 L141 627 Q121 627 121 647 L121 700 Q121 720 141 720 L187 720 Z M355 720 Q375 720 375 700 L375 647 Q375 627 355 627 L309 627 Q289 627 289 647 L289 700 Q289 720 309 720 L355 720 Z " />
<glyph glyph-name="agrave" unicode="&#xe0;" horiz-adv-x="499" d="M448 64 Q459 60 462.5 56 Q466 52 466 40 L466 24 Q466 10 462 4.5 Q458 -1 447 -1 Q414 -1 391 16.5 Q368 34 362 58 Q341 27 304 9.5 Q267 -8 218 -8 Q147 -8 99 28 Q51 64 51 131 Q51 197 94 233 Q137 269 228 284 L300 296 Q336 302 346 310.5 Q356 319 356 341 Q356 397 326.5 427.5 Q297 458 244 458 Q148 458 129 361 Q124 338 103 338 L82 338 Q70 338 63.5 344.5 Q57 351 58 363 Q66 437 116 480.5 Q166 524 243 524 Q325 524 375.5 475 Q426 426 426 346 L426 116 Q426 93 430.5 81.5 Q435 70 448 64 Z M221 56 Q281 56 318.5 89.5 Q356 123 356 176 L356 255 Q348 248 337.5 244.5 Q327 241 305 237 L247 227 Q182 216 151.5 195 Q121 174 121 134 Q121 98 148 77 Q175 56 221 56 Z M132 717 Q128 722 128 729 Q128 734 132.5 737.5 Q137 741 145 741 L188 741 Q204 741 212 727 L270 628 Q274 620 274 617 Q274 611 269 607.5 Q264 604 256 604 L226 604 Q211 604 202 617 L132 717 Z " />
<glyph glyph-name="amacron" unicode="&#x101;" horiz-adv-x="499" d="M448 64 Q459 60 462.5 56 Q466 52 466 40 L466 24 Q466 10 462 4.5 Q458 -1 447 -1 Q414 -1 391 16.5 Q368 34 362 58 Q341 27 304 9.5 Q267 -8 218 -8 Q147 -8 99 28 Q51 64 51 131 Q51 197 94 233 Q137 269 228 284 L300 296 Q336 302 346 310.5 Q356 319 356 341 Q356 397 326.5 427.5 Q297 458 244 458 Q148 458 129 361 Q124 338 103 338 L82 338 Q70 338 63.5 344.5 Q57 351 58 363 Q66 437 116 480.5 Q166 524 243 524 Q325 524 375.5 475 Q426 426 426 346 L426 116 Q426 93 430.5 81.5 Q435 70 448 64 Z M221 56 Q281 56 318.5 89.5 Q356 123 356 176 L356 255 Q348 248 337.5 244.5 Q327 241 305 237 L247 227 Q182 216 151.5 195 Q121 174 121 134 Q121 98 148 77 Q175 56 221 56 Z M351 706 Q371 706 371 686 L371 662 Q371 642 351 642 L145 642 Q125 642 125 662 L125 686 Q125 706 145 706 L351 706 Z " />
<glyph glyph-name="aogonek" unicode="&#x105;" horiz-adv-x="499" d="M448 -200 Q394 -200 362.5 -175 Q331 -150 331 -105 Q331 -40 404 9 Q387 17 376 30 Q365 43 361 58 Q339 26 303 9 Q267 -8 218 -8 Q147 -8 99 28 Q51 64 51 131 Q51 196 94.5 232.5 Q138 269 228 284 L300 296 Q336 302 346 310.5 Q356 319 356 341 Q356 397 326.5 427.5 Q297 458 244 458 Q148 458 129 361 Q124 338 104 338 L82 338 Q70 338 63.5 344.5 Q57 351 58 363 Q66 437 116 480.5 Q166 524 243 524 Q325 524 375.5 475 Q426 426 426 346 L426 116 Q426 92 430.5 80.5 Q435 69 448 65 Q458 62 462 57.5 Q466 53 466 43 L466 25 Q466 14 464 9 Q462 4 455 -1 Q422 -25 405 -47.5 Q388 -70 388 -96 Q388 -122 405 -132.5 Q422 -143 450 -147 Q464 -149 464 -165 L464 -182 Q464 -200 448 -200 Z M221 56 Q281 56 318.5 89.5 Q356 123 356 176 L356 255 Q348 248 337.5 244.5 Q327 241 305 237 L247 227 Q182 216 151.5 195 Q121 174 121 134 Q121 98 148 77 Q175 56 221 56 Z " />
<glyph glyph-name="aring" unicode="&#xe5;" horiz-adv-x="499" d="M448 64 Q459 60 462.5 56 Q466 52 466 40 L466 24 Q466 10 462 4.5 Q458 -1 447 -1 Q414 -1 391 16.5 Q368 34 362 58 Q341 27 304 9.5 Q267 -8 218 -8 Q147 -8 99 28 Q51 64 51 131 Q51 197 94 233 Q137 269 228 284 L300 296 Q336 302 346 310.5 Q356 319 356 341 Q356 397 326.5 427.5 Q297 458 244 458 Q148 458 129 361 Q124 338 103 338 L82 338 Q70 338 63.5 344.5 Q57 351 58 363 Q66 437 116 480.5 Q166 524 243 524 Q325 524 375.5 475 Q426 426 426 346 L426 116 Q426 93 430.5 81.5 Q435 70 448 64 Z M221 56 Q281 56 318.5 89.5 Q356 123 356 176 L356 255 Q348 248 337.5 244.5 Q327 241 305 237 L247 227 Q182 216 151.5 195 Q121 174 121 134 Q121 98 148 77 Q175 56 221 56 Z M248 786 Q292 786 322.5 755.5 Q353 725 353 682 Q353 638 322.5 607.5 Q292 577 248 577 Q204 577 173 607.5 Q142 638 142 682 Q142 725 173 755.5 Q204 786 248 786 Z M248 742 Q222 742 205.5 725 Q189 708 189 682 Q189 655 205.5 638 Q222 621 248 621 Q273 621 289.5 638 Q306 655 306 682 Q306 708 289.5 725 Q273 742 248 742 Z " />
<glyph glyph-name="atilde" unicode="&#xe3;" horiz-adv-x="499" d="M448 64 Q459 60 462.5 56 Q466 52 466 40 L466 24 Q466 10 462 4.5 Q458 -1 447 -1 Q414 -1 391 16.5 Q368 34 362 58 Q341 27 304 9.5 Q267 -8 218 -8 Q147 -8 99 28 Q51 64 51 131 Q51 197 94 233 Q137 269 228 284 L300 296 Q336 302 346 310.5 Q356 319 356 341 Q356 397 326.5 427.5 Q297 458 244 458 Q148 458 129 361 Q124 338 103 338 L82 338 Q70 338 63.5 344.5 Q57 351 58 363 Q66 437 116 480.5 Q166 524 243 524 Q325 524 375.5 475 Q426 426 426 346 L426 116 Q426 93 430.5 81.5 Q435 70 448 64 Z M221 56 Q281 56 318.5 89.5 Q356 123 356 176 L356 255 Q348 248 337.5 244.5 Q327 241 305 237 L247 227 Q182 216 151.5 195 Q121 174 121 134 Q121 98 148 77 Q175 56 221 56 Z M375 719 Q395 719 393 698 Q388 661 366.5 640.5 Q345 620 309 620 Q290 620 274 626.5 Q258 633 237 645 Q221 654 210 659 Q199 664 188 664 Q164 664 158 639 Q156 629 151 624.5 Q146 620 137 620 L121 620 Q102 620 103 641 Q108 678 129.5 698.5 Q151 719 187 719 Q206 719 222 712.5 Q238 706 259 694 Q275 685 286 680 Q297 675 308 675 Q332 675 338 700 Q340 710 345 714.5 Q350 719 359 719 L375 719 Z " />
<glyph glyph-name="ae" unicode="&#xe6;" horiz-adv-x="787" d="M546 -10 Q493 -10 450.5 11.5 Q408 33 384 72 Q360 34 317.5 13 Q275 -8 219 -8 Q148 -8 99.5 28 Q51 64 51 131 Q51 196 94.5 232.5 Q138 269 228 284 L300 296 Q335 302 345.5 310 Q356 318 356 338 Q356 396 326.5 427 Q297 458 242 458 Q149 458 129 361 Q124 338 104 338 L82 338 Q70 338 63.5 344.5 Q57 351 58 363 Q67 437 116 480.5 Q165 524 242 524 Q291 524 329.5 506 Q368 488 392 454 Q418 487 457.5 505.5 Q497 524 546 524 Q600 524 643.5 501 Q687 478 711.5 437 Q736 396 736 344 L736 273 Q736 249 712 249 L426 249 L426 178 Q426 120 458.5 88 Q491 56 546 56 Q597 56 624.5 79 Q652 102 664 148 Q667 160 672.5 165.5 Q678 171 689 171 L711 171 Q723 171 729 164.5 Q735 158 734 146 Q724 73 674 31.5 Q624 -10 546 -10 Z M546 458 Q491 458 458.5 426 Q426 394 426 336 L426 309 L666 309 L666 336 Q666 394 633.5 426 Q601 458 546 458 Z M221 56 Q281 56 318.5 89.5 Q356 123 356 176 L356 254 Q347 248 336.5 244.5 Q326 241 306 237 L247 227 Q182 216 151.5 195 Q121 174 121 134 Q121 98 148 77 Q175 56 221 56 Z " />
<glyph glyph-name="b" unicode="b" horiz-adv-x="514" d="M275 524 Q329 524 370.5 501 Q412 478 435.5 437 Q459 396 459 344 L459 170 Q459 118 435.5 77 Q412 36 370 13 Q328 -10 275 -10 Q231 -10 197.5 6.5 Q164 23 143 54 L143 24 Q143 0 119 0 L102 0 Q78 0 78 24 L78 696 Q78 720 102 720 L124 720 Q148 720 148 696 L148 467 Q192 524 275 524 Z M389 336 Q389 394 355.5 426 Q322 458 268 458 Q214 458 181 426 Q148 394 148 336 L148 178 Q148 120 181 88 Q214 56 268 56 Q322 56 355.5 88 Q389 120 389 178 L389 336 Z " />
<glyph glyph-name="c" unicode="c" horiz-adv-x="478" d="M245 56 Q295 56 325 81.5 Q355 107 363 155 Q366 178 388 178 L410 178 Q422 178 428.5 171.5 Q435 165 434 153 Q427 76 376 33 Q325 -10 245 -10 Q191 -10 147.5 13 Q104 36 79.5 77 Q55 118 55 170 L55 344 Q55 396 79.5 437 Q104 478 147.5 501 Q191 524 245 524 Q325 524 376 480.5 Q427 437 434 361 Q435 349 428.5 342.5 Q422 336 410 336 L388 336 Q368 336 363 359 Q344 458 245 458 Q190 458 157.5 426 Q125 394 125 336 L125 178 Q125 120 157.5 88 Q190 56 245 56 Z " />
<glyph glyph-name="cacute" unicode="&#x107;" horiz-adv-x="478" d="M245 56 Q295 56 325 81.5 Q355 107 363 155 Q366 178 388 178 L410 178 Q422 178 428.5 171.5 Q435 165 434 153 Q427 76 376 33 Q325 -10 245 -10 Q191 -10 147.5 13 Q104 36 79.5 77 Q55 118 55 170 L55 344 Q55 396 79.5 437 Q104 478 147.5 501 Q191 524 245 524 Q325 524 376 480.5 Q427 437 434 361 Q435 349 428.5 342.5 Q422 336 410 336 L388 336 Q368 336 363 359 Q344 458 245 458 Q190 458 157.5 426 Q125 394 125 336 L125 178 Q125 120 157.5 88 Q190 56 245 56 Z M356 741 Q364 741 368.5 737.5 Q373 734 373 729 Q373 722 369 717 L299 617 Q290 604 275 604 L245 604 Q237 604 232 607.5 Q227 611 227 617 Q227 620 231 628 L289 727 Q297 741 313 741 L356 741 Z " />
<glyph glyph-name="ccaron" unicode="&#x10d;" horiz-adv-x="478" d="M245 56 Q295 56 325 81.5 Q355 107 363 155 Q366 178 388 178 L410 178 Q422 178 428.5 171.5 Q435 165 434 153 Q427 76 376 33 Q325 -10 245 -10 Q191 -10 147.5 13 Q104 36 79.5 77 Q55 118 55 170 L55 344 Q55 396 79.5 437 Q104 478 147.5 501 Q191 524 245 524 Q325 524 376 480.5 Q427 437 434 361 Q435 349 428.5 342.5 Q422 336 410 336 L388 336 Q368 336 363 359 Q344 458 245 458 Q190 458 157.5 426 Q125 394 125 336 L125 178 Q125 120 157.5 88 Q190 56 245 56 Z M366 741 Q374 741 378.5 737.5 Q383 734 383 729 Q383 722 379 717 L307 616 Q298 604 283 604 L223 604 Q208 604 199 616 L127 717 Q123 722 123 729 Q123 734 127.5 737.5 Q132 741 140 741 L164 741 Q179 741 188 729 L253 647 L318 729 Q327 741 342 741 L366 741 Z " />
<glyph glyph-name="ccedilla" unicode="&#xe7;" horiz-adv-x="478" d="M410 178 Q422 178 428.5 171.5 Q435 165 434 153 Q427 82 383 39.5 Q339 -3 268 -9 L250 -47 Q297 -44 325 -64.5 Q353 -85 353 -123 Q353 -162 325 -186 Q297 -210 252 -210 Q204 -210 165 -189 Q155 -183 155 -173 Q155 -166 159 -161 L163 -155 Q169 -144 178 -144 Q182 -144 190 -148 Q218 -163 249 -163 Q272 -163 286.5 -153 Q301 -143 301 -124 Q301 -106 287 -97 Q273 -88 249 -88 Q238 -88 233 -89 L229 -89 Q217 -89 206 -77 Q199 -68 199 -61 Q199 -56 202 -50 L221 -9 Q147 -1 101 48.5 Q55 98 55 170 L55 344 Q55 396 79.5 437 Q104 478 147.5 501 Q191 524 245 524 Q325 524 376 480.5 Q427 437 434 361 Q435 349 428.5 342.5 Q422 336 410 336 L388 336 Q368 336 363 359 Q344 458 245 458 Q190 458 157.5 426 Q125 394 125 336 L125 178 Q125 120 157.5 88 Q190 56 245 56 Q295 56 325 81.5 Q355 107 363 155 Q366 178 388 178 L410 178 Z " />
<glyph glyph-name="cdotaccent" unicode="&#x10b;" horiz-adv-x="478" d="M245 56 Q295 56 325 81.5 Q355 107 363 155 Q366 178 388 178 L410 178 Q422 178 428.5 171.5 Q435 165 434 153 Q427 76 376 33 Q325 -10 245 -10 Q191 -10 147.5 13 Q104 36 79.5 77 Q55 118 55 170 L55 344 Q55 396 79.5 437 Q104 478 147.5 501 Q191 524 245 524 Q325 524 376 480.5 Q427 437 434 361 Q435 349 428.5 342.5 Q422 336 410 336 L388 336 Q368 336 363 359 Q344 458 245 458 Q190 458 157.5 426 Q125 394 125 336 L125 178 Q125 120 157.5 88 Q190 56 245 56 Z M274 720 Q296 720 296 698 L296 649 Q296 627 274 627 L232 627 Q210 627 210 649 L210 698 Q210 720 232 720 L274 720 Z " />
<glyph glyph-name="d" unicode="d" horiz-adv-x="514" d="M239 -10 Q186 -10 144 13 Q102 36 78.5 77 Q55 118 55 170 L55 344 Q55 396 78.5 437 Q102 478 143.5 501 Q185 524 239 524 Q322 524 366 467 L366 696 Q366 720 390 720 L412 720 Q436 720 436 696 L436 24 Q436 0 412 0 L395 0 Q371 0 371 24 L371 54 Q350 23 316.5 6.5 Q283 -10 239 -10 Z M246 56 Q300 56 333 88 Q366 120 366 178 L366 336 Q366 394 333 426 Q300 458 246 458 Q192 458 158.5 426 Q125 394 125 336 L125 178 Q125 120 158.5 88 Q192 56 246 56 Z " />
<glyph glyph-name="eth" unicode="&#xf0;" horiz-adv-x="500" d="M419 689 Q423 691 429 691 Q435 691 439 686.5 Q443 682 443 674 L443 656 Q443 641 428 633 L397 618 Q435 560 435 481 L435 170 Q435 118 410.5 77 Q386 36 341 13 Q296 -10 238 -10 Q185 -10 143 13 Q101 36 78 77 Q55 118 55 170 L55 319 Q55 371 78 412 Q101 453 143 476 Q185 499 238 499 Q321 499 365 442 L365 489 Q365 544 337 588 L230 536 Q226 534 220 534 Q214 534 210 538.5 Q206 543 206 551 L206 569 Q206 585 221 592 L297 629 Q252 662 184 666 Q160 668 160 691 L160 706 Q160 717 166.5 723.5 Q173 730 185 729 Q293 723 362 661 L419 689 Z M365 311 Q365 369 332 401 Q299 433 245 433 Q191 433 158 401 Q125 369 125 311 L125 178 Q125 121 158 88.5 Q191 56 245 56 Q299 56 332 88 Q365 120 365 178 L365 311 Z " />
<glyph glyph-name="dcaron" unicode="&#x10f;" horiz-adv-x="611" d="M240 -10 Q187 -10 145 13 Q103 36 79.5 77 Q56 118 56 170 L56 344 Q56 396 79.5 437 Q103 478 144.5 501 Q186 524 240 524 Q323 524 367 467 L367 696 Q367 720 391 720 L413 720 Q437 720 437 696 L437 24 Q437 0 413 0 L396 0 Q372 0 372 24 L372 54 Q351 23 317.5 6.5 Q284 -10 240 -10 Z M247 56 Q301 56 334 88 Q367 120 367 178 L367 336 Q367 394 334 426 Q301 458 247 458 Q193 458 159.5 426 Q126 394 126 336 L126 178 Q126 120 159.5 88 Q193 56 247 56 Z M587 720 Q607 720 607 700 L607 640 Q607 629 601 615 L567 546 Q560 531 544 531 Q526 531 526 542 Q526 548 529 554 L562 627 L538 627 Q518 627 518 647 L518 700 Q518 720 538 720 L587 720 Z " />
<glyph glyph-name="dslash" unicode="&#x111;" horiz-adv-x="515" d="M471 651 Q495 651 495 627 L495 619 Q495 595 471 595 L436 595 L436 24 Q436 0 412 0 L395 0 Q371 0 371 24 L371 54 Q350 23 316.5 6.5 Q283 -10 239 -10 Q186 -10 144 13 Q102 36 78.5 77 Q55 118 55 170 L55 344 Q55 396 78.5 437 Q102 478 143.5 501 Q185 524 239 524 Q322 524 366 467 L366 595 L243 595 Q219 595 219 619 L219 627 Q219 651 243 651 L366 651 L366 696 Q366 720 390 720 L412 720 Q436 720 436 696 L436 651 L471 651 Z M366 336 Q366 394 333 426 Q300 458 246 458 Q192 458 158.5 426 Q125 394 125 336 L125 178 Q125 120 158.5 88 Q192 56 246 56 Q300 56 333 88 Q366 120 366 178 L366 336 Z " />
<glyph glyph-name="e" unicode="e" horiz-adv-x="487" d="M126 249 L126 178 Q126 120 158.5 88 Q191 56 246 56 Q297 56 324.5 79 Q352 102 364 148 Q367 160 372.5 165.5 Q378 171 389 171 L411 171 Q423 171 429 164.5 Q435 158 434 146 Q424 73 374 31.5 Q324 -10 246 -10 Q192 -10 148.5 13 Q105 36 80.5 77 Q56 118 56 170 L56 344 Q56 396 80.5 437 Q105 478 148 501 Q191 524 246 524 Q300 524 343.5 501 Q387 478 411.5 437 Q436 396 436 344 L436 273 Q436 249 412 249 L126 249 Z M246 458 Q191 458 158.5 426 Q126 394 126 336 L126 309 L366 309 L366 336 Q366 394 333.5 426 Q301 458 246 458 Z " />
<glyph glyph-name="eacute" unicode="&#xe9;" horiz-adv-x="487" d="M126 249 L126 178 Q126 120 158.5 88 Q191 56 246 56 Q297 56 324.5 79 Q352 102 364 148 Q367 160 372.5 165.5 Q378 171 389 171 L411 171 Q423 171 429 164.5 Q435 158 434 146 Q424 73 374 31.5 Q324 -10 246 -10 Q192 -10 148.5 13 Q105 36 80.5 77 Q56 118 56 170 L56 344 Q56 396 80.5 437 Q105 478 148 501 Q191 524 246 524 Q300 524 343.5 501 Q387 478 411.5 437 Q436 396 436 344 L436 273 Q436 249 412 249 L126 249 Z M246 458 Q191 458 158.5 426 Q126 394 126 336 L126 309 L366 309 L366 336 Q366 394 333.5 426 Q301 458 246 458 Z M355 741 Q363 741 367.5 737.5 Q372 734 372 729 Q372 722 368 717 L298 617 Q289 604 274 604 L244 604 Q236 604 231 607.5 Q226 611 226 617 Q226 620 230 628 L288 727 Q296 741 312 741 L355 741 Z " />
<glyph glyph-name="ecaron" unicode="&#x11b;" horiz-adv-x="487" d="M126 249 L126 178 Q126 120 158.5 88 Q191 56 246 56 Q297 56 324.5 79 Q352 102 364 148 Q367 160 372.5 165.5 Q378 171 389 171 L411 171 Q423 171 429 164.5 Q435 158 434 146 Q424 73 374 31.5 Q324 -10 246 -10 Q192 -10 148.5 13 Q105 36 80.5 77 Q56 118 56 170 L56 344 Q56 396 80.5 437 Q105 478 148 501 Q191 524 246 524 Q300 524 343.5 501 Q387 478 411.5 437 Q436 396 436 344 L436 273 Q436 249 412 249 L126 249 Z M246 458 Q191 458 158.5 426 Q126 394 126 336 L126 309 L366 309 L366 336 Q366 394 333.5 426 Q301 458 246 458 Z M365 741 Q373 741 377.5 737.5 Q382 734 382 729 Q382 722 378 717 L306 616 Q297 604 282 604 L222 604 Q207 604 198 616 L126 717 Q122 722 122 729 Q122 734 126.5 737.5 Q131 741 139 741 L163 741 Q178 741 187 729 L252 647 L317 729 Q326 741 341 741 L365 741 Z " />
<glyph glyph-name="ecircumflex" unicode="&#xea;" horiz-adv-x="487" d="M126 249 L126 178 Q126 120 158.5 88 Q191 56 246 56 Q297 56 324.5 79 Q352 102 364 148 Q367 160 372.5 165.5 Q378 171 389 171 L411 171 Q423 171 429 164.5 Q435 158 434 146 Q424 73 374 31.5 Q324 -10 246 -10 Q192 -10 148.5 13 Q105 36 80.5 77 Q56 118 56 170 L56 344 Q56 396 80.5 437 Q105 478 148 501 Q191 524 246 524 Q300 524 343.5 501 Q387 478 411.5 437 Q436 396 436 344 L436 273 Q436 249 412 249 L126 249 Z M246 458 Q191 458 158.5 426 Q126 394 126 336 L126 309 L366 309 L366 336 Q366 394 333.5 426 Q301 458 246 458 Z M282 741 Q297 741 306 729 L378 628 Q382 623 382 616 Q382 611 377.5 607.5 Q373 604 365 604 L341 604 Q326 604 317 616 L252 698 L187 616 Q178 604 163 604 L139 604 Q131 604 126.5 607.5 Q122 611 122 616 Q122 623 126 628 L198 729 Q207 741 222 741 L282 741 Z " />
<glyph glyph-name="edieresis" unicode="&#xeb;" horiz-adv-x="487" d="M126 249 L126 178 Q126 120 158.5 88 Q191 56 246 56 Q297 56 324.5 79 Q352 102 364 148 Q367 160 372.5 165.5 Q378 171 389 171 L411 171 Q423 171 429 164.5 Q435 158 434 146 Q424 73 374 31.5 Q324 -10 246 -10 Q192 -10 148.5 13 Q105 36 80.5 77 Q56 118 56 170 L56 344 Q56 396 80.5 437 Q105 478 148 501 Q191 524 246 524 Q300 524 343.5 501 Q387 478 411.5 437 Q436 396 436 344 L436 273 Q436 249 412 249 L126 249 Z M246 458 Q191 458 158.5 426 Q126 394 126 336 L126 309 L366 309 L366 336 Q366 394 333.5 426 Q301 458 246 458 Z M191 720 Q211 720 211 700 L211 647 Q211 627 191 627 L145 627 Q125 627 125 647 L125 700 Q125 720 145 720 L191 720 Z M359 720 Q379 720 379 700 L379 647 Q379 627 359 627 L313 627 Q293 627 293 647 L293 700 Q293 720 313 720 L359 720 Z " />
<glyph glyph-name="edotaccent" unicode="&#x117;" horiz-adv-x="487" d="M126 249 L126 178 Q126 120 158.5 88 Q191 56 246 56 Q297 56 324.5 79 Q352 102 364 148 Q367 160 372.5 165.5 Q378 171 389 171 L411 171 Q423 171 429 164.5 Q435 158 434 146 Q424 73 374 31.5 Q324 -10 246 -10 Q192 -10 148.5 13 Q105 36 80.5 77 Q56 118 56 170 L56 344 Q56 396 80.5 437 Q105 478 148 501 Q191 524 246 524 Q300 524 343.5 501 Q387 478 411.5 437 Q436 396 436 344 L436 273 Q436 249 412 249 L126 249 Z M246 458 Q191 458 158.5 426 Q126 394 126 336 L126 309 L366 309 L366 336 Q366 394 333.5 426 Q301 458 246 458 Z M273 720 Q295 720 295 698 L295 649 Q295 627 273 627 L231 627 Q209 627 209 649 L209 698 Q209 720 231 720 L273 720 Z " />
<glyph glyph-name="egrave" unicode="&#xe8;" horiz-adv-x="487" d="M126 249 L126 178 Q126 120 158.5 88 Q191 56 246 56 Q297 56 324.5 79 Q352 102 364 148 Q367 160 372.5 165.5 Q378 171 389 171 L411 171 Q423 171 429 164.5 Q435 158 434 146 Q424 73 374 31.5 Q324 -10 246 -10 Q192 -10 148.5 13 Q105 36 80.5 77 Q56 118 56 170 L56 344 Q56 396 80.5 437 Q105 478 148 501 Q191 524 246 524 Q300 524 343.5 501 Q387 478 411.5 437 Q436 396 436 344 L436 273 Q436 249 412 249 L126 249 Z M246 458 Q191 458 158.5 426 Q126 394 126 336 L126 309 L366 309 L366 336 Q366 394 333.5 426 Q301 458 246 458 Z M136 717 Q132 722 132 729 Q132 734 136.5 737.5 Q141 741 149 741 L192 741 Q208 741 216 727 L274 628 Q278 620 278 617 Q278 611 273 607.5 Q268 604 260 604 L230 604 Q215 604 206 617 L136 717 Z " />
<glyph glyph-name="emacron" unicode="&#x113;" horiz-adv-x="487" d="M126 249 L126 178 Q126 120 158.5 88 Q191 56 246 56 Q297 56 324.5 79 Q352 102 364 148 Q367 160 372.5 165.5 Q378 171 389 171 L411 171 Q423 171 429 164.5 Q435 158 434 146 Q424 73 374 31.5 Q324 -10 246 -10 Q192 -10 148.5 13 Q105 36 80.5 77 Q56 118 56 170 L56 344 Q56 396 80.5 437 Q105 478 148 501 Q191 524 246 524 Q300 524 343.5 501 Q387 478 411.5 437 Q436 396 436 344 L436 273 Q436 249 412 249 L126 249 Z M246 458 Q191 458 158.5 426 Q126 394 126 336 L126 309 L366 309 L366 336 Q366 394 333.5 426 Q301 458 246 458 Z M355 706 Q375 706 375 686 L375 662 Q375 642 355 642 L149 642 Q129 642 129 662 L129 686 Q129 706 149 706 L355 706 Z " />
<glyph glyph-name="eogonek" unicode="&#x119;" horiz-adv-x="487" d="M126 249 L126 178 Q126 120 158.5 88 Q191 56 246 56 Q297 56 324.5 79 Q352 102 364 148 Q367 160 372.5 165.5 Q378 171 389 171 L411 171 Q423 171 429 164.5 Q435 158 434 146 Q428 105 415.5 83 Q403 61 369 26 Q335 -9 322.5 -37 Q310 -65 310 -91 Q310 -120 326 -130.5 Q342 -141 373 -147 Q381 -149 383.5 -152.5 Q386 -156 386 -166 L386 -181 Q386 -192 382 -196 Q378 -200 370 -200 Q314 -200 283.5 -174.5 Q253 -149 253 -99 Q253 -54 283 -7 Q265 -10 246 -10 Q192 -10 148.5 13 Q105 36 80.5 77 Q56 118 56 170 L56 344 Q56 396 80.5 437 Q105 478 148 501 Q191 524 246 524 Q300 524 343.5 501 Q387 478 411.5 437 Q436 396 436 344 L436 273 Q436 249 412 249 L126 249 Z M126 309 L366 309 L366 336 Q366 394 333.5 426 Q301 458 246 458 Q191 458 158.5 426 Q126 394 126 336 L126 309 Z " />
<glyph glyph-name="f" unicode="f" horiz-adv-x="297" d="M256 657 Q216 654 194.5 632.5 Q173 611 173 566 L173 514 L242 514 Q266 514 266 490 L266 476 Q266 452 242 452 L173 452 L173 24 Q173 0 149 0 L127 0 Q103 0 103 24 L103 452 L49 452 Q25 452 25 476 L25 490 Q25 514 49 514 L103 514 L103 573 Q103 642 142.5 682.5 Q182 723 251 723 Q264 723 269.5 718.5 Q275 714 275 702 L275 680 Q275 668 271 663 Q267 658 256 657 Z " />
<glyph glyph-name="g" unicode="g" horiz-adv-x="508" d="M412 514 Q436 514 436 490 L436 -30 Q436 -82 412 -123 Q388 -164 344.5 -187 Q301 -210 246 -210 Q169 -210 118.5 -168 Q68 -126 58 -56 Q57 -44 62.5 -37.5 Q68 -31 80 -31 L104 -31 Q115 -31 121 -36.5 Q127 -42 129 -53 Q152 -144 246 -144 Q302 -144 334 -112 Q366 -80 366 -22 L366 66 Q345 39 313 24.5 Q281 10 240 10 Q187 10 145.5 33 Q104 56 81 97 Q58 138 58 190 L58 344 Q58 396 81 437 Q104 478 145.5 501 Q187 524 240 524 Q284 524 317 507.5 Q350 491 371 461 L371 490 Q371 514 395 514 L412 514 Z M247 76 Q301 76 333.5 108 Q366 140 366 198 L366 336 Q366 394 333.5 426 Q301 458 247 458 Q193 458 160.5 426 Q128 394 128 336 L128 198 Q128 141 160.5 108.5 Q193 76 247 76 Z " />
<glyph glyph-name="gbreve" unicode="&#x11f;" horiz-adv-x="508" d="M412 514 Q436 514 436 490 L436 -30 Q436 -82 412 -123 Q388 -164 344.5 -187 Q301 -210 246 -210 Q169 -210 118.5 -168 Q68 -126 58 -56 Q57 -44 62.5 -37.5 Q68 -31 80 -31 L104 -31 Q115 -31 121 -36.5 Q127 -42 129 -53 Q152 -144 246 -144 Q302 -144 334 -112 Q366 -80 366 -22 L366 66 Q345 39 313 24.5 Q281 10 240 10 Q187 10 145.5 33 Q104 56 81 97 Q58 138 58 190 L58 344 Q58 396 81 437 Q104 478 145.5 501 Q187 524 240 524 Q284 524 317 507.5 Q350 491 371 461 L371 490 Q371 514 395 514 L412 514 Z M247 76 Q301 76 333.5 108 Q366 140 366 198 L366 336 Q366 394 333.5 426 Q301 458 247 458 Q193 458 160.5 426 Q128 394 128 336 L128 198 Q128 141 160.5 108.5 Q193 76 247 76 Z M256 602 Q205 602 170 628 Q135 654 128 699 L128 703 Q128 720 147 720 L167 720 Q176 720 181 715.5 Q186 711 189 701 Q194 679 212 665.5 Q230 652 256 652 Q282 652 300 665.5 Q318 679 323 701 Q326 711 331 715.5 Q336 720 345 720 L365 720 Q387 720 385 700 Q378 655 342.5 628.5 Q307 602 256 602 Z " />
<glyph glyph-name="gcommaaccent" unicode="&#x123;" horiz-adv-x="508" d="M412 514 Q436 514 436 490 L436 -30 Q436 -82 412 -123 Q388 -164 344.5 -187 Q301 -210 246 -210 Q169 -210 118.5 -168 Q68 -126 58 -56 Q57 -44 62.5 -37.5 Q68 -31 80 -31 L104 -31 Q115 -31 121 -36.5 Q127 -42 129 -53 Q152 -144 246 -144 Q302 -144 334 -112 Q366 -80 366 -22 L366 66 Q345 39 313 24.5 Q281 10 240 10 Q187 10 145.5 33 Q104 56 81 97 Q58 138 58 190 L58 344 Q58 396 81 437 Q104 478 145.5 501 Q187 524 240 524 Q284 524 317 507.5 Q350 491 371 461 L371 490 Q371 514 395 514 L412 514 Z M247 76 Q301 76 333.5 108 Q366 140 366 198 L366 336 Q366 394 333.5 426 Q301 458 247 458 Q193 458 160.5 426 Q128 394 128 336 L128 198 Q128 141 160.5 108.5 Q193 76 247 76 Z M224 627 Q204 627 204 647 L204 707 Q204 720 211 731 L243 786 Q248 794 252 797 Q256 800 265 800 L275 800 Q288 800 288 790 Q288 784 284 776 L253 720 L277 720 Q297 720 297 700 L297 647 Q297 627 277 627 L224 627 Z " />
<glyph glyph-name="gdotaccent" unicode="&#x121;" horiz-adv-x="508" d="M412 514 Q436 514 436 490 L436 -30 Q436 -82 412 -123 Q388 -164 344.5 -187 Q301 -210 246 -210 Q169 -210 118.5 -168 Q68 -126 58 -56 Q57 -44 62.5 -37.5 Q68 -31 80 -31 L104 -31 Q115 -31 121 -36.5 Q127 -42 129 -53 Q152 -144 246 -144 Q302 -144 334 -112 Q366 -80 366 -22 L366 66 Q345 39 313 24.5 Q281 10 240 10 Q187 10 145.5 33 Q104 56 81 97 Q58 138 58 190 L58 344 Q58 396 81 437 Q104 478 145.5 501 Q187 524 240 524 Q284 524 317 507.5 Q350 491 371 461 L371 490 Q371 514 395 514 L412 514 Z M247 76 Q301 76 333.5 108 Q366 140 366 198 L366 336 Q366 394 333.5 426 Q301 458 247 458 Q193 458 160.5 426 Q128 394 128 336 L128 198 Q128 141 160.5 108.5 Q193 76 247 76 Z M275 720 Q297 720 297 698 L297 649 Q297 627 275 627 L233 627 Q211 627 211 649 L211 698 Q211 720 233 720 L275 720 Z " />
<glyph glyph-name="h" unicode="h" horiz-adv-x="527" d="M274 524 Q327 524 368 501 Q409 478 432 437.5 Q455 397 455 346 L455 24 Q455 0 431 0 L409 0 Q385 0 385 24 L385 338 Q385 395 353 426.5 Q321 458 267 458 Q213 458 180.5 426.5 Q148 395 148 338 L148 24 Q148 0 124 0 L102 0 Q78 0 78 24 L78 696 Q78 720 102 720 L124 720 Q148 720 148 696 L148 467 Q191 524 274 524 Z " />
<glyph glyph-name="hbar" unicode="&#x127;" horiz-adv-x="529" d="M276 524 Q329 524 370 501 Q411 478 434 437.5 Q457 397 457 346 L457 24 Q457 0 433 0 L411 0 Q387 0 387 24 L387 338 Q387 395 355 426.5 Q323 458 269 458 Q215 458 182.5 426.5 Q150 395 150 338 L150 24 Q150 0 126 0 L104 0 Q80 0 80 24 L80 595 L42 595 Q18 595 18 619 L18 627 Q18 651 42 651 L80 651 L80 696 Q80 720 104 720 L126 720 Q150 720 150 696 L150 651 L270 651 Q294 651 294 627 L294 619 Q294 595 270 595 L150 595 L150 467 Q193 524 276 524 Z " />
<glyph glyph-name="i" unicode="i" horiz-adv-x="248" d="M124 0 Q100 0 100 24 L100 452 L59 452 Q35 452 35 476 L35 490 Q35 514 59 514 L146 514 Q170 514 170 490 L170 24 Q170 0 146 0 L124 0 Z M146 720 Q168 720 168 698 L168 649 Q168 627 146 627 L104 627 Q82 627 82 649 L82 698 Q82 720 104 720 L146 720 Z " />
<glyph glyph-name="dotlessi" unicode="&#x131;" horiz-adv-x="248" d="M124 0 Q100 0 100 24 L100 452 L59 452 Q35 452 35 476 L35 490 Q35 514 59 514 L146 514 Q170 514 170 490 L170 24 Q170 0 146 0 L124 0 Z " />
<glyph glyph-name="iacute" unicode="&#xed;" horiz-adv-x="248" d="M124 0 Q100 0 100 24 L100 452 L59 452 Q35 452 35 476 L35 490 Q35 514 59 514 L146 514 Q170 514 170 490 L170 24 Q170 0 146 0 L124 0 Z M228 741 Q236 741 240.5 737.5 Q245 734 245 729 Q245 722 241 717 L171 617 Q162 604 147 604 L117 604 Q109 604 104 607.5 Q99 611 99 617 Q99 620 103 628 L161 727 Q169 741 185 741 L228 741 Z " />
<glyph glyph-name="icircumflex" unicode="&#xee;" horiz-adv-x="248" d="M124 0 Q100 0 100 24 L100 452 L59 452 Q35 452 35 476 L35 490 Q35 514 59 514 L146 514 Q170 514 170 490 L170 24 Q170 0 146 0 L124 0 Z M155 741 Q170 741 179 729 L251 628 Q255 623 255 616 Q255 611 250.5 607.5 Q246 604 238 604 L214 604 Q199 604 190 616 L125 698 L60 616 Q51 604 36 604 L12 604 Q4 604 -0.5 607.5 Q-5 611 -5 616 Q-5 623 -1 628 L71 729 Q80 741 95 741 L155 741 Z " />
<glyph glyph-name="idieresis" unicode="&#xef;" horiz-adv-x="248" d="M124 0 Q100 0 100 24 L100 452 L59 452 Q35 452 35 476 L35 490 Q35 514 59 514 L146 514 Q170 514 170 490 L170 24 Q170 0 146 0 L124 0 Z M64 720 Q84 720 84 700 L84 647 Q84 627 64 627 L18 627 Q-2 627 -2 647 L-2 700 Q-2 720 18 720 L64 720 Z M232 720 Q252 720 252 700 L252 647 Q252 627 232 627 L186 627 Q166 627 166 647 L166 700 Q166 720 186 720 L232 720 Z " />
<glyph glyph-name="igrave" unicode="&#xec;" horiz-adv-x="248" d="M124 0 Q100 0 100 24 L100 452 L59 452 Q35 452 35 476 L35 490 Q35 514 59 514 L146 514 Q170 514 170 490 L170 24 Q170 0 146 0 L124 0 Z M9 717 Q5 722 5 729 Q5 734 9.5 737.5 Q14 741 22 741 L65 741 Q81 741 89 727 L147 628 Q151 620 151 617 Q151 611 146 607.5 Q141 604 133 604 L103 604 Q88 604 79 617 L9 717 Z " />
<glyph glyph-name="ij" unicode="&#x133;" horiz-adv-x="494" d="M124 0 Q100 0 100 24 L100 452 L59 452 Q35 452 35 476 L35 490 Q35 514 59 514 L146 514 Q170 514 170 490 L170 24 Q170 0 146 0 L124 0 Z M146 720 Q168 720 168 698 L168 649 Q168 627 146 627 L104 627 Q82 627 82 649 L82 698 Q82 720 104 720 L146 720 Z M392 720 Q414 720 414 698 L414 649 Q414 627 392 627 L350 627 Q328 627 328 649 L328 698 Q328 720 350 720 L392 720 Z M394 514 Q418 514 418 490 L418 -52 Q418 -117 383.5 -157 Q349 -197 285 -201 Q260 -202 260 -177 L260 -158 Q260 -146 265.5 -141 Q271 -136 283 -134 Q348 -125 348 -45 L348 452 L307 452 Q283 452 283 476 L283 490 Q283 514 307 514 L394 514 Z " />
<glyph glyph-name="imacron" unicode="&#x12b;" horiz-adv-x="248" d="M124 0 Q100 0 100 24 L100 452 L59 452 Q35 452 35 476 L35 490 Q35 514 59 514 L146 514 Q170 514 170 490 L170 24 Q170 0 146 0 L124 0 Z M228 706 Q248 706 248 686 L248 662 Q248 642 228 642 L22 642 Q2 642 2 662 L2 686 Q2 706 22 706 L228 706 Z " />
<glyph glyph-name="iogonek" unicode="&#x12f;" horiz-adv-x="248" d="M102 627 Q82 627 82 647 L82 700 Q82 720 102 720 L148 720 Q168 720 168 700 L168 647 Q168 627 148 627 L102 627 Z M152 -200 Q98 -200 66.5 -175 Q35 -150 35 -105 Q35 -42 105 7 Q100 14 100 24 L100 452 L59 452 Q35 452 35 476 L35 490 Q35 514 59 514 L146 514 Q170 514 170 490 L170 24 Q170 9 162 3 Q126 -26 109.5 -49 Q93 -72 93 -96 Q93 -138 154 -146 Q168 -148 168 -164 L168 -182 Q168 -200 152 -200 Z " />
<glyph glyph-name="j" unicode="j" horiz-adv-x="246" d="M144 720 Q166 720 166 698 L166 649 Q166 627 144 627 L102 627 Q80 627 80 649 L80 698 Q80 720 102 720 L144 720 Z M146 514 Q170 514 170 490 L170 -52 Q170 -117 135.5 -157 Q101 -197 37 -201 Q12 -202 12 -177 L12 -158 Q12 -146 17.5 -141 Q23 -136 35 -134 Q100 -125 100 -45 L100 452 L59 452 Q35 452 35 476 L35 490 Q35 514 59 514 L146 514 Z " />
<glyph glyph-name="k" unicode="k" horiz-adv-x="488" d="M461 29 Q466 21 466 15 Q466 8 460 4 Q454 0 444 0 L418 0 Q399 0 389 16 L235 270 L148 170 L148 24 Q148 0 124 0 L102 0 Q78 0 78 24 L78 696 Q78 720 102 720 L124 720 Q148 720 148 696 L148 262 L355 501 Q368 514 385 514 L412 514 Q422 514 427.5 510 Q433 506 433 500 Q433 495 425 485 L283 324 L461 29 Z " />
<glyph glyph-name="kcommaaccent" unicode="&#x137;" horiz-adv-x="488" d="M461 29 Q466 21 466 15 Q466 8 460 4 Q454 0 444 0 L418 0 Q399 0 389 16 L235 270 L148 170 L148 24 Q148 0 124 0 L102 0 Q78 0 78 24 L78 696 Q78 720 102 720 L124 720 Q148 720 148 696 L148 262 L355 501 Q368 514 385 514 L412 514 Q422 514 427.5 510 Q433 506 433 500 Q433 495 425 485 L283 324 L461 29 Z M295 -64 Q315 -64 315 -84 L315 -138 Q315 -151 308 -162 L274 -214 Q270 -221 265.5 -224 Q261 -227 252 -227 L245 -227 Q230 -227 230 -218 Q230 -212 236 -203 L267 -151 L247 -151 Q227 -151 227 -131 L227 -84 Q227 -64 247 -64 L295 -64 Z " />
<glyph glyph-name="l" unicode="l" horiz-adv-x="242" d="M122 720 Q146 720 146 696 L146 124 Q146 76 192 64 Q205 61 210 56.5 Q215 52 215 40 L215 23 Q215 9 209.5 3.5 Q204 -2 190 -1 Q136 2 106 32.5 Q76 63 76 117 L76 696 Q76 720 100 720 L122 720 Z " />
<glyph glyph-name="lacute" unicode="&#x13a;" horiz-adv-x="242" d="M122 720 Q146 720 146 696 L146 124 Q146 76 192 64 Q205 61 210 56.5 Q215 52 215 40 L215 23 Q215 9 209.5 3.5 Q204 -2 190 -1 Q136 2 106 32.5 Q76 63 76 117 L76 696 Q76 720 100 720 L122 720 Z M217 913 Q225 913 229.5 909.5 Q234 906 234 901 Q234 894 230 889 L160 789 Q151 776 136 776 L106 776 Q98 776 93 779.5 Q88 783 88 789 Q88 792 92 800 L150 899 Q158 913 174 913 L217 913 Z " />
<glyph glyph-name="lcaron" unicode="&#x13e;" horiz-adv-x="319" d="M122 720 Q146 720 146 696 L146 124 Q146 76 192 64 Q205 61 210 56.5 Q215 52 215 40 L215 23 Q215 9 209.5 3.5 Q204 -2 190 -1 Q136 2 106 32.5 Q76 63 76 117 L76 696 Q76 720 100 720 L122 720 Z M295 720 Q315 720 315 700 L315 640 Q315 629 309 615 L275 546 Q268 531 252 531 Q234 531 234 542 Q234 548 237 554 L270 627 L246 627 Q226 627 226 647 L226 700 Q226 720 246 720 L295 720 Z " />
<glyph glyph-name="lcommaaccent" unicode="&#x13c;" horiz-adv-x="242" d="M122 720 Q146 720 146 696 L146 124 Q146 76 192 64 Q205 61 210 56.5 Q215 52 215 40 L215 23 Q215 9 209.5 3.5 Q204 -2 190 -1 Q136 2 106 32.5 Q76 63 76 117 L76 696 Q76 720 100 720 L122 720 Z M170 -64 Q190 -64 190 -84 L190 -138 Q190 -151 183 -162 L149 -214 Q145 -221 140.5 -224 Q136 -227 127 -227 L120 -227 Q105 -227 105 -218 Q105 -212 111 -203 L142 -151 L122 -151 Q102 -151 102 -131 L102 -84 Q102 -64 122 -64 L170 -64 Z " />
<glyph glyph-name="ldot" unicode="&#x140;" horiz-adv-x="391" d="M122 720 Q146 720 146 696 L146 124 Q146 76 192 64 Q205 61 210 56.5 Q215 52 215 40 L215 23 Q215 9 209.5 3.5 Q204 -2 190 -1 Q136 2 106 32.5 Q76 63 76 117 L76 696 Q76 720 100 720 L122 720 Z M327 435 Q351 435 351 411 L351 359 Q351 335 327 335 L275 335 Q251 335 251 359 L251 411 Q251 435 275 435 L327 435 Z " />
<glyph glyph-name="lslash" unicode="&#x142;" horiz-adv-x="307" d="M238 470 Q246 475 252 475 Q259 475 263 469.5 Q267 464 267 454 L267 435 Q267 416 251 406 L189 368 L189 124 Q189 76 235 64 Q248 61 253 56.5 Q258 52 258 40 L258 23 Q258 9 252.5 3.5 Q247 -2 233 -1 Q179 2 149 32.5 Q119 63 119 117 L119 325 L69 294 Q61 289 55 289 Q48 289 44 294.5 Q40 300 40 310 L40 329 Q40 348 56 358 L119 397 L119 696 Q119 720 143 720 L165 720 Q189 720 189 696 L189 440 L238 470 Z " />
<glyph glyph-name="m" unicode="m" horiz-adv-x="760" d="M525 524 Q599 524 643.5 476.5 Q688 429 688 357 L688 24 Q688 0 664 0 L642 0 Q618 0 618 24 L618 349 Q618 400 591.5 429 Q565 458 518 458 Q471 458 444.5 429 Q418 400 418 349 L418 24 Q418 0 394 0 L372 0 Q348 0 348 24 L348 349 Q348 400 321.5 429 Q295 458 248 458 Q201 458 174.5 429 Q148 400 148 349 L148 24 Q148 0 124 0 L102 0 Q78 0 78 24 L78 490 Q78 514 102 514 L119 514 Q143 514 143 490 L143 467 Q179 524 255 524 Q300 524 334.5 505.5 Q369 487 390 455 Q412 487 446.5 505.5 Q481 524 525 524 Z " />
<glyph glyph-name="n" unicode="n" horiz-adv-x="527" d="M274 524 Q327 524 368 501 Q409 478 432 437.5 Q455 397 455 346 L455 24 Q455 0 431 0 L409 0 Q385 0 385 24 L385 338 Q385 395 353 426.5 Q321 458 267 458 Q213 458 180.5 426.5 Q148 395 148 338 L148 24 Q148 0 124 0 L102 0 Q78 0 78 24 L78 490 Q78 514 102 514 L119 514 Q143 514 143 490 L143 460 Q186 524 274 524 Z " />
<glyph glyph-name="nacute" unicode="&#x144;" horiz-adv-x="527" d="M274 524 Q327 524 368 501 Q409 478 432 437.5 Q455 397 455 346 L455 24 Q455 0 431 0 L409 0 Q385 0 385 24 L385 338 Q385 395 353 426.5 Q321 458 267 458 Q213 458 180.5 426.5 Q148 395 148 338 L148 24 Q148 0 124 0 L102 0 Q78 0 78 24 L78 490 Q78 514 102 514 L119 514 Q143 514 143 490 L143 460 Q186 524 274 524 Z M376 741 Q384 741 388.5 737.5 Q393 734 393 729 Q393 722 389 717 L319 617 Q310 604 295 604 L265 604 Q257 604 252 607.5 Q247 611 247 617 Q247 620 251 628 L309 727 Q317 741 333 741 L376 741 Z " />
<glyph glyph-name="ncaron" unicode="&#x148;" horiz-adv-x="527" d="M274 524 Q327 524 368 501 Q409 478 432 437.5 Q455 397 455 346 L455 24 Q455 0 431 0 L409 0 Q385 0 385 24 L385 338 Q385 395 353 426.5 Q321 458 267 458 Q213 458 180.5 426.5 Q148 395 148 338 L148 24 Q148 0 124 0 L102 0 Q78 0 78 24 L78 490 Q78 514 102 514 L119 514 Q143 514 143 490 L143 460 Q186 524 274 524 Z M386 741 Q394 741 398.5 737.5 Q403 734 403 729 Q403 722 399 717 L327 616 Q318 604 303 604 L243 604 Q228 604 219 616 L147 717 Q143 722 143 729 Q143 734 147.5 737.5 Q152 741 160 741 L184 741 Q199 741 208 729 L273 647 L338 729 Q347 741 362 741 L386 741 Z " />
<glyph glyph-name="ncommaaccent" unicode="&#x146;" horiz-adv-x="527" d="M274 524 Q327 524 368 501 Q409 478 432 437.5 Q455 397 455 346 L455 24 Q455 0 431 0 L409 0 Q385 0 385 24 L385 338 Q385 395 353 426.5 Q321 458 267 458 Q213 458 180.5 426.5 Q148 395 148 338 L148 24 Q148 0 124 0 L102 0 Q78 0 78 24 L78 490 Q78 514 102 514 L119 514 Q143 514 143 490 L143 460 Q186 524 274 524 Z M287 -64 Q307 -64 307 -84 L307 -138 Q307 -151 300 -162 L266 -214 Q262 -221 257.5 -224 Q253 -227 244 -227 L237 -227 Q222 -227 222 -218 Q222 -212 228 -203 L259 -151 L239 -151 Q219 -151 219 -131 L219 -84 Q219 -64 239 -64 L287 -64 Z " />
<glyph glyph-name="eng" unicode="&#x14b;" horiz-adv-x="527" d="M322 -201 Q310 -202 303.5 -195.5 Q297 -189 297 -177 L297 -159 Q297 -139 320 -134 Q385 -123 385 -45 L385 338 Q385 395 353 426.5 Q321 458 267 458 Q213 458 180.5 426.5 Q148 395 148 338 L148 24 Q148 0 124 0 L102 0 Q78 0 78 24 L78 490 Q78 514 102 514 L119 514 Q143 514 143 490 L143 460 Q186 524 274 524 Q327 524 368 501 Q409 478 432 437.5 Q455 397 455 346 L455 -52 Q455 -115 419.5 -155 Q384 -195 322 -201 Z " />
<glyph glyph-name="ntilde" unicode="&#xf1;" horiz-adv-x="527" d="M274 524 Q327 524 368 501 Q409 478 432 437.5 Q455 397 455 346 L455 24 Q455 0 431 0 L409 0 Q385 0 385 24 L385 338 Q385 395 353 426.5 Q321 458 267 458 Q213 458 180.5 426.5 Q148 395 148 338 L148 24 Q148 0 124 0 L102 0 Q78 0 78 24 L78 490 Q78 514 102 514 L119 514 Q143 514 143 490 L143 460 Q186 524 274 524 Z M400 719 Q420 719 418 698 Q413 661 391.5 640.5 Q370 620 334 620 Q315 620 299 626.5 Q283 633 262 645 Q246 654 235 659 Q224 664 213 664 Q189 664 183 639 Q181 629 176 624.5 Q171 620 162 620 L146 620 Q127 620 128 641 Q133 678 154.5 698.5 Q176 719 212 719 Q231 719 247 712.5 Q263 706 284 694 Q300 685 311 680 Q322 675 333 675 Q357 675 363 700 Q365 710 370 714.5 Q375 719 384 719 L400 719 Z " />
<glyph glyph-name="o" unicode="o" horiz-adv-x="497" d="M249 524 Q305 524 349 501 Q393 478 417.5 437 Q442 396 442 344 L442 170 Q442 118 417 77 Q392 36 348 13 Q304 -10 249 -10 Q194 -10 150 13 Q106 36 81 77 Q56 118 56 170 L56 344 Q56 396 80.5 437 Q105 478 149 501 Q193 524 249 524 Z M249 458 Q192 458 159 426.5 Q126 395 126 336 L126 178 Q126 119 159 87.5 Q192 56 249 56 Q306 56 339 87.5 Q372 119 372 178 L372 336 Q372 395 339 426.5 Q306 458 249 458 Z " />
<glyph glyph-name="oacute" unicode="&#xf3;" horiz-adv-x="497" d="M249 524 Q305 524 349 501 Q393 478 417.5 437 Q442 396 442 344 L442 170 Q442 118 417 77 Q392 36 348 13 Q304 -10 249 -10 Q194 -10 150 13 Q106 36 81 77 Q56 118 56 170 L56 344 Q56 396 80.5 437 Q105 478 149 501 Q193 524 249 524 Z M249 458 Q192 458 159 426.5 Q126 395 126 336 L126 178 Q126 119 159 87.5 Q192 56 249 56 Q306 56 339 87.5 Q372 119 372 178 L372 336 Q372 395 339 426.5 Q306 458 249 458 Z M352 741 Q360 741 364.5 737.5 Q369 734 369 729 Q369 722 365 717 L295 617 Q286 604 271 604 L241 604 Q233 604 228 607.5 Q223 611 223 617 Q223 620 227 628 L285 727 Q293 741 309 741 L352 741 Z " />
<glyph glyph-name="ocircumflex" unicode="&#xf4;" horiz-adv-x="497" d="M249 524 Q305 524 349 501 Q393 478 417.5 437 Q442 396 442 344 L442 170 Q442 118 417 77 Q392 36 348 13 Q304 -10 249 -10 Q194 -10 150 13 Q106 36 81 77 Q56 118 56 170 L56 344 Q56 396 80.5 437 Q105 478 149 501 Q193 524 249 524 Z M249 458 Q192 458 159 426.5 Q126 395 126 336 L126 178 Q126 119 159 87.5 Q192 56 249 56 Q306 56 339 87.5 Q372 119 372 178 L372 336 Q372 395 339 426.5 Q306 458 249 458 Z M279 741 Q294 741 303 729 L375 628 Q379 623 379 616 Q379 611 374.5 607.5 Q370 604 362 604 L338 604 Q323 604 314 616 L249 698 L184 616 Q175 604 160 604 L136 604 Q128 604 123.5 607.5 Q119 611 119 616 Q119 623 123 628 L195 729 Q204 741 219 741 L279 741 Z " />
<glyph glyph-name="odieresis" unicode="&#xf6;" horiz-adv-x="497" d="M249 524 Q305 524 349 501 Q393 478 417.5 437 Q442 396 442 344 L442 170 Q442 118 417 77 Q392 36 348 13 Q304 -10 249 -10 Q194 -10 150 13 Q106 36 81 77 Q56 118 56 170 L56 344 Q56 396 80.5 437 Q105 478 149 501 Q193 524 249 524 Z M249 458 Q192 458 159 426.5 Q126 395 126 336 L126 178 Q126 119 159 87.5 Q192 56 249 56 Q306 56 339 87.5 Q372 119 372 178 L372 336 Q372 395 339 426.5 Q306 458 249 458 Z M188 720 Q208 720 208 700 L208 647 Q208 627 188 627 L142 627 Q122 627 122 647 L122 700 Q122 720 142 720 L188 720 Z M356 720 Q376 720 376 700 L376 647 Q376 627 356 627 L310 627 Q290 627 290 647 L290 700 Q290 720 310 720 L356 720 Z " />
<glyph glyph-name="ograve" unicode="&#xf2;" horiz-adv-x="497" d="M249 524 Q305 524 349 501 Q393 478 417.5 437 Q442 396 442 344 L442 170 Q442 118 417 77 Q392 36 348 13 Q304 -10 249 -10 Q194 -10 150 13 Q106 36 81 77 Q56 118 56 170 L56 344 Q56 396 80.5 437 Q105 478 149 501 Q193 524 249 524 Z M249 458 Q192 458 159 426.5 Q126 395 126 336 L126 178 Q126 119 159 87.5 Q192 56 249 56 Q306 56 339 87.5 Q372 119 372 178 L372 336 Q372 395 339 426.5 Q306 458 249 458 Z M133 717 Q129 722 129 729 Q129 734 133.5 737.5 Q138 741 146 741 L189 741 Q205 741 213 727 L271 628 Q275 620 275 617 Q275 611 270 607.5 Q265 604 257 604 L227 604 Q212 604 203 617 L133 717 Z " />
<glyph glyph-name="ohungarumlaut" unicode="&#x151;" horiz-adv-x="497" d="M249 524 Q305 524 349 501 Q393 478 417.5 437 Q442 396 442 344 L442 170 Q442 118 417 77 Q392 36 348 13 Q304 -10 249 -10 Q194 -10 150 13 Q106 36 81 77 Q56 118 56 170 L56 344 Q56 396 80.5 437 Q105 478 149 501 Q193 524 249 524 Z M249 458 Q192 458 159 426.5 Q126 395 126 336 L126 178 Q126 119 159 87.5 Q192 56 249 56 Q306 56 339 87.5 Q372 119 372 178 L372 336 Q372 395 339 426.5 Q306 458 249 458 Z M272 734 Q280 734 285 730.5 Q290 727 290 722 Q290 716 284 710 L217 621 Q208 609 193 609 L165 609 Q148 609 148 622 Q148 628 152 633 L212 721 Q221 734 236 734 L272 734 Z M422 734 Q430 734 435 730.5 Q440 727 440 722 Q440 716 434 710 L367 621 Q358 609 343 609 L315 609 Q298 609 298 622 Q298 628 302 633 L362 721 Q371 734 386 734 L422 734 Z " />
<glyph glyph-name="omacron" unicode="&#x14d;" horiz-adv-x="497" d="M249 524 Q305 524 349 501 Q393 478 417.5 437 Q442 396 442 344 L442 170 Q442 118 417 77 Q392 36 348 13 Q304 -10 249 -10 Q194 -10 150 13 Q106 36 81 77 Q56 118 56 170 L56 344 Q56 396 80.5 437 Q105 478 149 501 Q193 524 249 524 Z M249 458 Q192 458 159 426.5 Q126 395 126 336 L126 178 Q126 119 159 87.5 Q192 56 249 56 Q306 56 339 87.5 Q372 119 372 178 L372 336 Q372 395 339 426.5 Q306 458 249 458 Z M352 706 Q372 706 372 686 L372 662 Q372 642 352 642 L146 642 Q126 642 126 662 L126 686 Q126 706 146 706 L352 706 Z " />
<glyph glyph-name="oslash" unicode="&#xf8;" horiz-adv-x="497" d="M414 443 Q442 399 442 344 L442 170 Q442 118 417 77 Q392 36 348 13 Q304 -10 249 -10 Q171 -10 118 34 L100 9 Q92 -2 82 -2 Q74 -2 65 5 Q52 14 52 25 Q52 33 58 40 L83 74 Q56 117 56 170 L56 344 Q56 396 80.5 437 Q105 478 149 501 Q193 524 249 524 Q325 524 378 482 L394 505 Q401 515 412 515 Q420 515 429 509 Q442 500 442 490 Q442 482 436 474 L414 443 Z M126 178 Q126 156 130 140 L338 428 Q306 460 249 460 Q193 460 159.5 427.5 Q126 395 126 336 L126 178 Z M372 336 Q372 356 367 378 L157 88 Q191 54 249 54 Q305 54 338.5 86.5 Q372 119 372 178 L372 336 Z " />
<glyph glyph-name="otilde" unicode="&#xf5;" horiz-adv-x="497" d="M249 524 Q305 524 349 501 Q393 478 417.5 437 Q442 396 442 344 L442 170 Q442 118 417 77 Q392 36 348 13 Q304 -10 249 -10 Q194 -10 150 13 Q106 36 81 77 Q56 118 56 170 L56 344 Q56 396 80.5 437 Q105 478 149 501 Q193 524 249 524 Z M249 458 Q192 458 159 426.5 Q126 395 126 336 L126 178 Q126 119 159 87.5 Q192 56 249 56 Q306 56 339 87.5 Q372 119 372 178 L372 336 Q372 395 339 426.5 Q306 458 249 458 Z M376 719 Q396 719 394 698 Q389 661 367.5 640.5 Q346 620 310 620 Q291 620 275 626.5 Q259 633 238 645 Q222 654 211 659 Q200 664 189 664 Q165 664 159 639 Q157 629 152 624.5 Q147 620 138 620 L122 620 Q103 620 104 641 Q109 678 130.5 698.5 Q152 719 188 719 Q207 719 223 712.5 Q239 706 260 694 Q276 685 287 680 Q298 675 309 675 Q333 675 339 700 Q341 710 346 714.5 Q351 719 360 719 L376 719 Z " />
<glyph glyph-name="oe" unicode="&#x153;" horiz-adv-x="803" d="M442 249 L442 178 Q442 120 474.5 88 Q507 56 562 56 Q613 56 640.5 79 Q668 102 680 148 Q683 160 688.5 165.5 Q694 171 705 171 L727 171 Q739 171 745 164.5 Q751 158 750 146 Q740 73 690 31.5 Q640 -10 562 -10 Q513 -10 472.5 9.5 Q432 29 407 63 Q382 29 340.5 9.5 Q299 -10 249 -10 Q194 -10 150 13 Q106 36 81 77 Q56 118 56 170 L56 344 Q56 396 80.5 437 Q105 478 149 501 Q193 524 249 524 Q300 524 341 504.5 Q382 485 407 451 Q432 485 472.5 504.5 Q513 524 562 524 Q616 524 659.5 501 Q703 478 727.5 437 Q752 396 752 344 L752 273 Q752 249 728 249 L442 249 Z M372 336 Q372 395 339 426.5 Q306 458 249 458 Q192 458 159 426.5 Q126 395 126 336 L126 178 Q126 119 159 87.5 Q192 56 249 56 Q306 56 339 87.5 Q372 119 372 178 L372 336 Z M442 309 L682 309 L682 336 Q682 394 649.5 426 Q617 458 562 458 Q507 458 474.5 426 Q442 394 442 336 L442 309 Z " />
<glyph glyph-name="p" unicode="p" horiz-adv-x="514" d="M102 -200 Q78 -200 78 -176 L78 490 Q78 514 102 514 L119 514 Q143 514 143 490 L143 460 Q164 491 197.5 507.5 Q231 524 275 524 Q328 524 370 501 Q412 478 435.5 437 Q459 396 459 344 L459 170 Q459 118 435.5 77 Q412 36 370.5 13 Q329 -10 275 -10 Q192 -10 148 47 L148 -176 Q148 -200 124 -200 L102 -200 Z M268 56 Q322 56 355.5 88 Q389 120 389 178 L389 336 Q389 394 355.5 426 Q322 458 268 458 Q214 458 181 426 Q148 394 148 336 L148 178 Q148 120 181 88 Q214 56 268 56 Z " />
<glyph glyph-name="thorn" unicode="&#xfe;" horiz-adv-x="514" d="M275 524 Q328 524 370 501 Q412 478 435.5 437 Q459 396 459 344 L459 170 Q459 118 435.5 77 Q412 36 370.5 13 Q329 -10 275 -10 Q192 -10 148 47 L148 -176 Q148 -200 124 -200 L102 -200 Q78 -200 78 -176 L78 696 Q78 720 102 720 L124 720 Q148 720 148 696 L148 467 Q169 494 201.5 509 Q234 524 275 524 Z M389 336 Q389 394 355.5 426 Q322 458 268 458 Q214 458 181 426 Q148 394 148 336 L148 178 Q148 120 181 88 Q214 56 268 56 Q322 56 355.5 88 Q389 120 389 178 L389 336 Z " />
<glyph glyph-name="q" unicode="q" horiz-adv-x="514" d="M390 -200 Q366 -200 366 -176 L366 47 Q322 -10 239 -10 Q185 -10 143.5 13 Q102 36 78.5 77 Q55 118 55 170 L55 344 Q55 396 78.5 437 Q102 478 144 501 Q186 524 239 524 Q283 524 316.5 507.5 Q350 491 371 460 L371 490 Q371 514 395 514 L412 514 Q436 514 436 490 L436 -176 Q436 -200 412 -200 L390 -200 Z M246 56 Q300 56 333 88 Q366 120 366 178 L366 336 Q366 394 333 426 Q300 458 246 458 Q192 458 158.5 426 Q125 394 125 336 L125 178 Q125 120 158.5 88 Q192 56 246 56 Z " />
<glyph glyph-name="r" unicode="r" horiz-adv-x="319" d="M275 517 Q288 517 293.5 511 Q299 505 299 493 L299 467 Q299 443 275 443 Q209 443 178.5 409.5 Q148 376 148 307 L148 24 Q148 0 124 0 L102 0 Q78 0 78 24 L78 490 Q78 514 102 514 L119 514 Q143 514 143 490 L143 444 Q183 517 275 517 Z " />
<glyph glyph-name="racute" unicode="&#x155;" horiz-adv-x="319" d="M275 517 Q288 517 293.5 511 Q299 505 299 493 L299 467 Q299 443 275 443 Q209 443 178.5 409.5 Q148 376 148 307 L148 24 Q148 0 124 0 L102 0 Q78 0 78 24 L78 490 Q78 514 102 514 L119 514 Q143 514 143 490 L143 444 Q183 517 275 517 Z M292 741 Q300 741 304.5 737.5 Q309 734 309 729 Q309 722 305 717 L235 617 Q226 604 211 604 L181 604 Q173 604 168 607.5 Q163 611 163 617 Q163 620 167 628 L225 727 Q233 741 249 741 L292 741 Z " />
<glyph glyph-name="rcaron" unicode="&#x159;" horiz-adv-x="319" d="M275 517 Q288 517 293.5 511 Q299 505 299 493 L299 467 Q299 443 275 443 Q209 443 178.5 409.5 Q148 376 148 307 L148 24 Q148 0 124 0 L102 0 Q78 0 78 24 L78 490 Q78 514 102 514 L119 514 Q143 514 143 490 L143 444 Q183 517 275 517 Z M302 741 Q310 741 314.5 737.5 Q319 734 319 729 Q319 722 315 717 L243 616 Q234 604 219 604 L159 604 Q144 604 135 616 L63 717 Q59 722 59 729 Q59 734 63.5 737.5 Q68 741 76 741 L100 741 Q115 741 124 729 L189 647 L254 729 Q263 741 278 741 L302 741 Z " />
<glyph glyph-name="rcommaaccent" unicode="&#x157;" horiz-adv-x="319" d="M275 517 Q288 517 293.5 511 Q299 505 299 493 L299 467 Q299 443 275 443 Q209 443 178.5 409.5 Q148 376 148 307 L148 24 Q148 0 124 0 L102 0 Q78 0 78 24 L78 490 Q78 514 102 514 L119 514 Q143 514 143 490 L143 444 Q183 517 275 517 Z M138 -64 Q158 -64 158 -84 L158 -138 Q158 -151 151 -162 L117 -214 Q113 -221 108.5 -224 Q104 -227 95 -227 L88 -227 Q73 -227 73 -218 Q73 -212 79 -203 L110 -151 L90 -151 Q70 -151 70 -131 L70 -84 Q70 -64 90 -64 L138 -64 Z " />
<glyph glyph-name="s" unicode="s" horiz-adv-x="449" d="M220 524 Q290 524 337.5 488 Q385 452 392 394 Q395 369 369 369 L348 369 Q336 369 330.5 374 Q325 379 321 391 Q310 421 285 439.5 Q260 458 219 458 Q172 458 146 436 Q120 414 120 376 Q120 342 143 327 Q166 312 207 303 L243 295 Q330 276 368 242.5 Q406 209 406 146 Q406 101 384 65.5 Q362 30 321 10 Q280 -10 225 -10 Q149 -10 98.5 27.5 Q48 65 39 127 Q38 139 44 145.5 Q50 152 62 152 L85 152 Q96 152 101 147.5 Q106 143 110 131 Q136 56 224 56 Q278 56 307 79 Q336 102 336 142 Q336 179 312.5 197 Q289 215 232 228 L196 236 Q125 251 87.5 281 Q50 311 50 372 Q50 414 71 448.5 Q92 483 131 503.5 Q170 524 220 524 Z " />
<glyph glyph-name="sacute" unicode="&#x15b;" horiz-adv-x="449" d="M220 524 Q290 524 337.5 488 Q385 452 392 394 Q395 369 369 369 L348 369 Q336 369 330.5 374 Q325 379 321 391 Q310 421 285 439.5 Q260 458 219 458 Q172 458 146 436 Q120 414 120 376 Q120 342 143 327 Q166 312 207 303 L243 295 Q330 276 368 242.5 Q406 209 406 146 Q406 101 384 65.5 Q362 30 321 10 Q280 -10 225 -10 Q149 -10 98.5 27.5 Q48 65 39 127 Q38 139 44 145.5 Q50 152 62 152 L85 152 Q96 152 101 147.5 Q106 143 110 131 Q136 56 224 56 Q278 56 307 79 Q336 102 336 142 Q336 179 312.5 197 Q289 215 232 228 L196 236 Q125 251 87.5 281 Q50 311 50 372 Q50 414 71 448.5 Q92 483 131 503.5 Q170 524 220 524 Z M328 741 Q336 741 340.5 737.5 Q345 734 345 729 Q345 722 341 717 L271 617 Q262 604 247 604 L217 604 Q209 604 204 607.5 Q199 611 199 617 Q199 620 203 628 L261 727 Q269 741 285 741 L328 741 Z " />
<glyph glyph-name="scaron" unicode="&#x161;" horiz-adv-x="449" d="M220 524 Q290 524 337.5 488 Q385 452 392 394 Q395 369 369 369 L348 369 Q336 369 330.5 374 Q325 379 321 391 Q310 421 285 439.5 Q260 458 219 458 Q172 458 146 436 Q120 414 120 376 Q120 342 143 327 Q166 312 207 303 L243 295 Q330 276 368 242.5 Q406 209 406 146 Q406 101 384 65.5 Q362 30 321 10 Q280 -10 225 -10 Q149 -10 98.5 27.5 Q48 65 39 127 Q38 139 44 145.5 Q50 152 62 152 L85 152 Q96 152 101 147.5 Q106 143 110 131 Q136 56 224 56 Q278 56 307 79 Q336 102 336 142 Q336 179 312.5 197 Q289 215 232 228 L196 236 Q125 251 87.5 281 Q50 311 50 372 Q50 414 71 448.5 Q92 483 131 503.5 Q170 524 220 524 Z M338 741 Q346 741 350.5 737.5 Q355 734 355 729 Q355 722 351 717 L279 616 Q270 604 255 604 L195 604 Q180 604 171 616 L99 717 Q95 722 95 729 Q95 734 99.5 737.5 Q104 741 112 741 L136 741 Q151 741 160 729 L225 647 L290 729 Q299 741 314 741 L338 741 Z " />
<glyph glyph-name="scedilla" unicode="&#x15f;" horiz-adv-x="449" d="M406 146 Q406 82 362 39 Q318 -4 243 -9 L226 -47 Q273 -44 301 -64.5 Q329 -85 329 -123 Q329 -162 301 -186 Q273 -210 228 -210 Q180 -210 141 -189 Q131 -183 131 -173 Q131 -166 135 -161 L139 -155 Q145 -144 154 -144 Q158 -144 166 -148 Q194 -163 225 -163 Q248 -163 262.5 -153 Q277 -143 277 -124 Q277 -106 263 -97 Q249 -88 225 -88 Q214 -88 209 -89 L205 -89 Q193 -89 182 -77 Q175 -68 175 -61 Q175 -56 178 -50 L197 -9 Q132 -2 89.5 34.5 Q47 71 39 127 Q38 139 44 145.5 Q50 152 62 152 L85 152 Q96 152 101 147.5 Q106 143 110 131 Q136 56 224 56 Q278 56 307 79 Q336 102 336 142 Q336 179 312.5 197 Q289 215 232 228 L196 236 Q125 251 87.5 281 Q50 311 50 372 Q50 414 71 448.5 Q92 483 131 503.5 Q170 524 220 524 Q290 524 337.5 488 Q385 452 392 394 Q395 369 369 369 L348 369 Q336 369 330.5 374 Q325 379 321 391 Q310 421 285 439.5 Q260 458 219 458 Q172 458 146 436 Q120 414 120 376 Q120 342 143 327 Q166 312 207 303 L243 295 Q330 276 368 242.5 Q406 209 406 146 Z " />
<glyph glyph-name="scommaaccent" unicode="&#x219;" horiz-adv-x="449" d="M220 524 Q290 524 337.5 488 Q385 452 392 394 Q395 369 369 369 L348 369 Q336 369 330.5 374 Q325 379 321 391 Q310 421 285 439.5 Q260 458 219 458 Q172 458 146 436 Q120 414 120 376 Q120 342 143 327 Q166 312 207 303 L243 295 Q330 276 368 242.5 Q406 209 406 146 Q406 101 384 65.5 Q362 30 321 10 Q280 -10 225 -10 Q149 -10 98.5 27.5 Q48 65 39 127 Q38 139 44 145.5 Q50 152 62 152 L85 152 Q96 152 101 147.5 Q106 143 110 131 Q136 56 224 56 Q278 56 307 79 Q336 102 336 142 Q336 179 312.5 197 Q289 215 232 228 L196 236 Q125 251 87.5 281 Q50 311 50 372 Q50 414 71 448.5 Q92 483 131 503.5 Q170 524 220 524 Z M247 -64 Q267 -64 267 -84 L267 -138 Q267 -151 260 -162 L226 -214 Q222 -221 217.5 -224 Q213 -227 204 -227 L197 -227 Q182 -227 182 -218 Q182 -212 188 -203 L219 -151 L199 -151 Q179 -151 179 -131 L179 -84 Q179 -64 199 -64 L247 -64 Z " />
<glyph glyph-name="germandbls" unicode="&#xdf;" horiz-adv-x="534" d="M369 397 Q426 376 457.5 329 Q489 282 489 212 Q489 116 431 58 Q373 0 275 0 L248 0 Q224 0 224 24 L224 42 Q224 66 248 66 L275 66 Q338 66 378.5 106 Q419 146 419 212 Q419 277 379 315.5 Q339 354 276 358 Q263 359 256.5 364.5 Q250 370 250 382 L250 400 Q250 413 255 418 Q260 423 273 424 Q322 427 353 458.5 Q384 490 384 544 Q384 601 351.5 632.5 Q319 664 264 664 Q210 664 177 631.5 Q144 599 144 542 L144 24 Q144 0 120 0 L98 0 Q74 0 74 24 L74 550 Q74 601 98.5 642 Q123 683 166.5 706.5 Q210 730 264 730 Q350 730 402 679 Q454 628 454 544 Q454 494 431.5 456.5 Q409 419 369 397 Z " />
<glyph glyph-name="t" unicode="t" horiz-adv-x="314" d="M172 452 L172 155 Q172 71 254 64 Q264 63 269 58 Q274 53 274 40 L274 22 Q274 9 269 3.5 Q264 -2 252 -2 Q181 -2 141.5 38 Q102 78 102 148 L102 452 L49 452 Q25 452 25 476 L25 490 Q25 514 49 514 L102 514 L102 696 Q102 720 126 720 L148 720 Q172 720 172 696 L172 514 L250 514 Q274 514 274 490 L274 476 Q274 452 250 452 L172 452 Z " />
<glyph glyph-name="tbar" unicode="&#x167;" horiz-adv-x="314" d="M172 452 L172 312 L248 312 Q272 312 272 288 L272 276 Q272 252 248 252 L172 252 L172 155 Q172 71 254 64 Q264 63 269 58 Q274 53 274 40 L274 22 Q274 9 269 3.5 Q264 -2 252 -2 Q181 -2 141.5 38 Q102 78 102 148 L102 252 L47 252 Q23 252 23 276 L23 288 Q23 312 47 312 L102 312 L102 452 L49 452 Q25 452 25 476 L25 490 Q25 514 49 514 L102 514 L102 696 Q102 720 126 720 L148 720 Q172 720 172 696 L172 514 L250 514 Q274 514 274 490 L274 476 Q274 452 250 452 L172 452 Z " />
<glyph glyph-name="tcaron" unicode="&#x165;" horiz-adv-x="314" d="M172 452 L172 155 Q172 71 254 64 Q264 63 269 58 Q274 53 274 40 L274 22 Q274 9 269 3.5 Q264 -2 252 -2 Q181 -2 141.5 38 Q102 78 102 148 L102 452 L49 452 Q25 452 25 476 L25 490 Q25 514 49 514 L102 514 L102 696 Q102 720 126 720 L148 720 Q172 720 172 696 L172 514 L250 514 Q274 514 274 490 L274 476 Q274 452 250 452 L172 452 Z M334 808 Q354 808 354 788 L354 728 Q354 717 348 703 L314 634 Q307 619 291 619 Q273 619 273 630 Q273 636 276 642 L309 715 L285 715 Q265 715 265 735 L265 788 Q265 808 285 808 L334 808 Z " />
<glyph glyph-name="uni0163" unicode="&#x163;" horiz-adv-x="314" d="M192 -47 Q239 -44 267 -64.5 Q295 -85 295 -123 Q295 -162 267 -186 Q239 -210 194 -210 Q146 -210 107 -189 Q97 -183 97 -173 Q97 -166 101 -161 L105 -155 Q111 -144 120 -144 Q124 -144 132 -148 Q160 -163 191 -163 Q214 -163 228.5 -153 Q243 -143 243 -124 Q243 -106 229 -97 Q215 -88 191 -88 Q180 -88 175 -89 L171 -89 Q159 -89 148 -77 Q141 -68 141 -61 Q141 -56 144 -50 L173 15 Q139 33 120.5 67 Q102 101 102 148 L102 452 L49 452 Q25 452 25 476 L25 490 Q25 514 49 514 L102 514 L102 696 Q102 720 126 720 L148 720 Q172 720 172 696 L172 514 L250 514 Q274 514 274 490 L274 476 Q274 452 250 452 L172 452 L172 155 Q172 71 254 64 Q264 63 269 58 Q274 53 274 40 L274 22 Q274 9 269 3.5 Q264 -2 252 -2 Q232 -2 214 1 L192 -47 Z " />
<glyph glyph-name="uni021B" unicode="&#x21b;" horiz-adv-x="314" d="M172 452 L172 155 Q172 71 254 64 Q264 63 269 58 Q274 53 274 40 L274 22 Q274 9 269 3.5 Q264 -2 252 -2 Q181 -2 141.5 38 Q102 78 102 148 L102 452 L49 452 Q25 452 25 476 L25 490 Q25 514 49 514 L102 514 L102 696 Q102 720 126 720 L148 720 Q172 720 172 696 L172 514 L250 514 Q274 514 274 490 L274 476 Q274 452 250 452 L172 452 Z M213 -64 Q233 -64 233 -84 L233 -138 Q233 -151 226 -162 L192 -214 Q188 -221 183.5 -224 Q179 -227 170 -227 L163 -227 Q148 -227 148 -218 Q148 -212 154 -203 L185 -151 L165 -151 Q145 -151 145 -131 L145 -84 Q145 -64 165 -64 L213 -64 Z " />
<glyph glyph-name="u" unicode="u" horiz-adv-x="520" d="M418 514 Q442 514 442 490 L442 24 Q442 0 418 0 L401 0 Q377 0 377 24 L377 51 Q335 -10 250 -10 Q197 -10 156.5 13 Q116 36 94 76 Q72 116 72 166 L72 490 Q72 514 96 514 L118 514 Q142 514 142 490 L142 174 Q142 118 173 87 Q204 56 257 56 Q310 56 341 87.5 Q372 119 372 174 L372 490 Q372 514 396 514 L418 514 Z " />
<glyph glyph-name="uacute" unicode="&#xfa;" horiz-adv-x="520" d="M418 514 Q442 514 442 490 L442 24 Q442 0 418 0 L401 0 Q377 0 377 24 L377 51 Q335 -10 250 -10 Q197 -10 156.5 13 Q116 36 94 76 Q72 116 72 166 L72 490 Q72 514 96 514 L118 514 Q142 514 142 490 L142 174 Q142 118 173 87 Q204 56 257 56 Q310 56 341 87.5 Q372 119 372 174 L372 490 Q372 514 396 514 L418 514 Z M363 741 Q371 741 375.5 737.5 Q380 734 380 729 Q380 722 376 717 L306 617 Q297 604 282 604 L252 604 Q244 604 239 607.5 Q234 611 234 617 Q234 620 238 628 L296 727 Q304 741 320 741 L363 741 Z " />
<glyph glyph-name="ucircumflex" unicode="&#xfb;" horiz-adv-x="520" d="M418 514 Q442 514 442 490 L442 24 Q442 0 418 0 L401 0 Q377 0 377 24 L377 51 Q335 -10 250 -10 Q197 -10 156.5 13 Q116 36 94 76 Q72 116 72 166 L72 490 Q72 514 96 514 L118 514 Q142 514 142 490 L142 174 Q142 118 173 87 Q204 56 257 56 Q310 56 341 87.5 Q372 119 372 174 L372 490 Q372 514 396 514 L418 514 Z M290 741 Q305 741 314 729 L386 628 Q390 623 390 616 Q390 611 385.5 607.5 Q381 604 373 604 L349 604 Q334 604 325 616 L260 698 L195 616 Q186 604 171 604 L147 604 Q139 604 134.5 607.5 Q130 611 130 616 Q130 623 134 628 L206 729 Q215 741 230 741 L290 741 Z " />
<glyph glyph-name="udieresis" unicode="&#xfc;" horiz-adv-x="520" d="M418 514 Q442 514 442 490 L442 24 Q442 0 418 0 L401 0 Q377 0 377 24 L377 51 Q335 -10 250 -10 Q197 -10 156.5 13 Q116 36 94 76 Q72 116 72 166 L72 490 Q72 514 96 514 L118 514 Q142 514 142 490 L142 174 Q142 118 173 87 Q204 56 257 56 Q310 56 341 87.5 Q372 119 372 174 L372 490 Q372 514 396 514 L418 514 Z M199 720 Q219 720 219 700 L219 647 Q219 627 199 627 L153 627 Q133 627 133 647 L133 700 Q133 720 153 720 L199 720 Z M367 720 Q387 720 387 700 L387 647 Q387 627 367 627 L321 627 Q301 627 301 647 L301 700 Q301 720 321 720 L367 720 Z " />
<glyph glyph-name="ugrave" unicode="&#xf9;" horiz-adv-x="520" d="M418 514 Q442 514 442 490 L442 24 Q442 0 418 0 L401 0 Q377 0 377 24 L377 51 Q335 -10 250 -10 Q197 -10 156.5 13 Q116 36 94 76 Q72 116 72 166 L72 490 Q72 514 96 514 L118 514 Q142 514 142 490 L142 174 Q142 118 173 87 Q204 56 257 56 Q310 56 341 87.5 Q372 119 372 174 L372 490 Q372 514 396 514 L418 514 Z M144 717 Q140 722 140 729 Q140 734 144.5 737.5 Q149 741 157 741 L200 741 Q216 741 224 727 L282 628 Q286 620 286 617 Q286 611 281 607.5 Q276 604 268 604 L238 604 Q223 604 214 617 L144 717 Z " />
<glyph glyph-name="uhungarumlaut" unicode="&#x171;" horiz-adv-x="520" d="M418 514 Q442 514 442 490 L442 24 Q442 0 418 0 L401 0 Q377 0 377 24 L377 51 Q335 -10 250 -10 Q197 -10 156.5 13 Q116 36 94 76 Q72 116 72 166 L72 490 Q72 514 96 514 L118 514 Q142 514 142 490 L142 174 Q142 118 173 87 Q204 56 257 56 Q310 56 341 87.5 Q372 119 372 174 L372 490 Q372 514 396 514 L418 514 Z M283 734 Q291 734 296 730.5 Q301 727 301 722 Q301 716 295 710 L228 621 Q219 609 204 609 L176 609 Q159 609 159 622 Q159 628 163 633 L223 721 Q232 734 247 734 L283 734 Z M433 734 Q441 734 446 730.5 Q451 727 451 722 Q451 716 445 710 L378 621 Q369 609 354 609 L326 609 Q309 609 309 622 Q309 628 313 633 L373 721 Q382 734 397 734 L433 734 Z " />
<glyph glyph-name="umacron" unicode="&#x16b;" horiz-adv-x="520" d="M418 514 Q442 514 442 490 L442 24 Q442 0 418 0 L401 0 Q377 0 377 24 L377 51 Q335 -10 250 -10 Q197 -10 156.5 13 Q116 36 94 76 Q72 116 72 166 L72 490 Q72 514 96 514 L118 514 Q142 514 142 490 L142 174 Q142 118 173 87 Q204 56 257 56 Q310 56 341 87.5 Q372 119 372 174 L372 490 Q372 514 396 514 L418 514 Z M363 706 Q383 706 383 686 L383 662 Q383 642 363 642 L157 642 Q137 642 137 662 L137 686 Q137 706 157 706 L363 706 Z " />
<glyph glyph-name="uogonek" unicode="&#x173;" horiz-adv-x="520" d="M424 -200 Q370 -200 338.5 -175 Q307 -150 307 -105 Q307 -42 380 10 Q377 15 377 24 L377 51 Q335 -10 250 -10 Q197 -10 156.5 13 Q116 36 94 76 Q72 116 72 166 L72 490 Q72 514 96 514 L118 514 Q142 514 142 490 L142 174 Q142 118 173 87 Q204 56 257 56 Q310 56 341 87.5 Q372 119 372 174 L372 490 Q372 514 396 514 L418 514 Q442 514 442 490 L442 24 Q442 10 431 1 Q396 -29 380 -51 Q364 -73 364 -96 Q364 -122 381 -132.5 Q398 -143 426 -147 Q440 -149 440 -165 L440 -182 Q440 -200 424 -200 Z " />
<glyph glyph-name="uring" unicode="&#x16f;" horiz-adv-x="520" d="M418 514 Q442 514 442 490 L442 24 Q442 0 418 0 L401 0 Q377 0 377 24 L377 51 Q335 -10 250 -10 Q197 -10 156.5 13 Q116 36 94 76 Q72 116 72 166 L72 490 Q72 514 96 514 L118 514 Q142 514 142 490 L142 174 Q142 118 173 87 Q204 56 257 56 Q310 56 341 87.5 Q372 119 372 174 L372 490 Q372 514 396 514 L418 514 Z M260 786 Q304 786 334.5 755.5 Q365 725 365 682 Q365 638 334.5 607.5 Q304 577 260 577 Q216 577 185 607.5 Q154 638 154 682 Q154 725 185 755.5 Q216 786 260 786 Z M260 742 Q234 742 217.5 725 Q201 708 201 682 Q201 655 217.5 638 Q234 621 260 621 Q285 621 301.5 638 Q318 655 318 682 Q318 708 301.5 725 Q285 742 260 742 Z " />
<glyph glyph-name="v" unicode="v" horiz-adv-x="453" d="M398 514 Q408 514 414 509.5 Q420 505 420 497 Q420 495 418 487 L271 20 Q265 0 244 0 L206 0 Q185 0 179 20 L34 487 Q33 490 33 496 Q33 514 54 514 L78 514 Q99 514 105 494 L227 91 L351 494 Q357 514 378 514 L398 514 Z " />
<glyph glyph-name="w" unicode="w" horiz-adv-x="694" d="M585 493 Q590 514 612 514 L632 514 Q645 514 650.5 507 Q656 500 653 488 L546 21 Q542 0 519 0 L483 0 Q462 0 456 20 L347 419 L238 20 Q232 0 211 0 L176 0 Q154 0 149 21 L41 488 Q40 491 40 496 Q40 504 46 509 Q52 514 62 514 L84 514 Q107 514 111 493 L198 94 L306 494 Q312 514 333 514 L363 514 Q384 514 390 494 L498 92 L585 493 Z " />
<glyph glyph-name="wacute" unicode="&#x1e83;" horiz-adv-x="694" d="M585 493 Q590 514 612 514 L632 514 Q645 514 650.5 507 Q656 500 653 488 L546 21 Q542 0 519 0 L483 0 Q462 0 456 20 L347 419 L238 20 Q232 0 211 0 L176 0 Q154 0 149 21 L41 488 Q40 491 40 496 Q40 504 46 509 Q52 514 62 514 L84 514 Q107 514 111 493 L198 94 L306 494 Q312 514 333 514 L363 514 Q384 514 390 494 L498 92 L585 493 Z M451 741 Q459 741 463.5 737.5 Q468 734 468 729 Q468 722 464 717 L394 617 Q385 604 370 604 L340 604 Q332 604 327 607.5 Q322 611 322 617 Q322 620 326 628 L384 727 Q392 741 408 741 L451 741 Z " />
<glyph glyph-name="wcircumflex" unicode="&#x175;" horiz-adv-x="694" d="M585 493 Q590 514 612 514 L632 514 Q645 514 650.5 507 Q656 500 653 488 L546 21 Q542 0 519 0 L483 0 Q462 0 456 20 L347 419 L238 20 Q232 0 211 0 L176 0 Q154 0 149 21 L41 488 Q40 491 40 496 Q40 504 46 509 Q52 514 62 514 L84 514 Q107 514 111 493 L198 94 L306 494 Q312 514 333 514 L363 514 Q384 514 390 494 L498 92 L585 493 Z M378 741 Q393 741 402 729 L474 628 Q478 623 478 616 Q478 611 473.5 607.5 Q469 604 461 604 L437 604 Q422 604 413 616 L348 698 L283 616 Q274 604 259 604 L235 604 Q227 604 222.5 607.5 Q218 611 218 616 Q218 623 222 628 L294 729 Q303 741 318 741 L378 741 Z " />
<glyph glyph-name="wdieresis" unicode="&#x1e85;" horiz-adv-x="694" d="M585 493 Q590 514 612 514 L632 514 Q645 514 650.5 507 Q656 500 653 488 L546 21 Q542 0 519 0 L483 0 Q462 0 456 20 L347 419 L238 20 Q232 0 211 0 L176 0 Q154 0 149 21 L41 488 Q40 491 40 496 Q40 504 46 509 Q52 514 62 514 L84 514 Q107 514 111 493 L198 94 L306 494 Q312 514 333 514 L363 514 Q384 514 390 494 L498 92 L585 493 Z M287 720 Q307 720 307 700 L307 647 Q307 627 287 627 L241 627 Q221 627 221 647 L221 700 Q221 720 241 720 L287 720 Z M455 720 Q475 720 475 700 L475 647 Q475 627 455 627 L409 627 Q389 627 389 647 L389 700 Q389 720 409 720 L455 720 Z " />
<glyph glyph-name="wgrave" unicode="&#x1e81;" horiz-adv-x="694" d="M585 493 Q590 514 612 514 L632 514 Q645 514 650.5 507 Q656 500 653 488 L546 21 Q542 0 519 0 L483 0 Q462 0 456 20 L347 419 L238 20 Q232 0 211 0 L176 0 Q154 0 149 21 L41 488 Q40 491 40 496 Q40 504 46 509 Q52 514 62 514 L84 514 Q107 514 111 493 L198 94 L306 494 Q312 514 333 514 L363 514 Q384 514 390 494 L498 92 L585 493 Z M232 717 Q228 722 228 729 Q228 734 232.5 737.5 Q237 741 245 741 L288 741 Q304 741 312 727 L370 628 Q374 620 374 617 Q374 611 369 607.5 Q364 604 356 604 L326 604 Q311 604 302 617 L232 717 Z " />
<glyph glyph-name="x" unicode="x" horiz-adv-x="425" d="M399 29 Q404 21 404 15 Q404 8 398.5 4 Q393 0 383 0 L357 0 Q338 0 328 16 L211 208 L93 16 Q83 0 64 0 L42 0 Q32 0 26.5 4 Q21 8 21 15 Q21 21 26 29 L173 266 L37 485 Q32 493 32 499 Q32 506 37.5 510 Q43 514 53 514 L78 514 Q97 514 107 498 L213 327 L317 498 Q327 514 346 514 L367 514 Q377 514 382.5 510 Q388 506 388 499 Q388 493 383 485 L250 269 L399 29 Z " />
<glyph glyph-name="y" unicode="y" horiz-adv-x="449" d="M94 -201 Q82 -202 75.5 -195.5 Q69 -189 69 -177 L69 -159 Q69 -139 92 -134 Q123 -128 142 -107 Q161 -86 173 -46 L188 2 L33 487 Q31 495 31 497 Q31 505 37 509.5 Q43 514 53 514 L77 514 Q98 514 104 494 L223 110 L348 494 Q354 514 375 514 L396 514 Q406 514 412 509.5 Q418 505 418 497 Q418 495 416 487 L239 -52 Q216 -124 184 -160.5 Q152 -197 94 -201 Z " />
<glyph glyph-name="yacute" unicode="&#xfd;" horiz-adv-x="449" d="M94 -201 Q82 -202 75.5 -195.5 Q69 -189 69 -177 L69 -159 Q69 -139 92 -134 Q123 -128 142 -107 Q161 -86 173 -46 L188 2 L33 487 Q31 495 31 497 Q31 505 37 509.5 Q43 514 53 514 L77 514 Q98 514 104 494 L223 110 L348 494 Q354 514 375 514 L396 514 Q406 514 412 509.5 Q418 505 418 497 Q418 495 416 487 L239 -52 Q216 -124 184 -160.5 Q152 -197 94 -201 Z M331 741 Q339 741 343.5 737.5 Q348 734 348 729 Q348 722 344 717 L274 617 Q265 604 250 604 L220 604 Q212 604 207 607.5 Q202 611 202 617 Q202 620 206 628 L264 727 Q272 741 288 741 L331 741 Z " />
<glyph glyph-name="ycircumflex" unicode="&#x177;" horiz-adv-x="449" d="M94 -201 Q82 -202 75.5 -195.5 Q69 -189 69 -177 L69 -159 Q69 -139 92 -134 Q123 -128 142 -107 Q161 -86 173 -46 L188 2 L33 487 Q31 495 31 497 Q31 505 37 509.5 Q43 514 53 514 L77 514 Q98 514 104 494 L223 110 L348 494 Q354 514 375 514 L396 514 Q406 514 412 509.5 Q418 505 418 497 Q418 495 416 487 L239 -52 Q216 -124 184 -160.5 Q152 -197 94 -201 Z M258 741 Q273 741 282 729 L354 628 Q358 623 358 616 Q358 611 353.5 607.5 Q349 604 341 604 L317 604 Q302 604 293 616 L228 698 L163 616 Q154 604 139 604 L115 604 Q107 604 102.5 607.5 Q98 611 98 616 Q98 623 102 628 L174 729 Q183 741 198 741 L258 741 Z " />
<glyph glyph-name="ydieresis" unicode="&#xff;" horiz-adv-x="449" d="M94 -201 Q82 -202 75.5 -195.5 Q69 -189 69 -177 L69 -159 Q69 -139 92 -134 Q123 -128 142 -107 Q161 -86 173 -46 L188 2 L33 487 Q31 495 31 497 Q31 505 37 509.5 Q43 514 53 514 L77 514 Q98 514 104 494 L223 110 L348 494 Q354 514 375 514 L396 514 Q406 514 412 509.5 Q418 505 418 497 Q418 495 416 487 L239 -52 Q216 -124 184 -160.5 Q152 -197 94 -201 Z M167 720 Q187 720 187 700 L187 647 Q187 627 167 627 L121 627 Q101 627 101 647 L101 700 Q101 720 121 720 L167 720 Z M335 720 Q355 720 355 700 L355 647 Q355 627 335 627 L289 627 Q269 627 269 647 L269 700 Q269 720 289 720 L335 720 Z " />
<glyph glyph-name="ygrave" unicode="&#x1ef3;" horiz-adv-x="449" d="M94 -201 Q82 -202 75.5 -195.5 Q69 -189 69 -177 L69 -159 Q69 -139 92 -134 Q123 -128 142 -107 Q161 -86 173 -46 L188 2 L33 487 Q31 495 31 497 Q31 505 37 509.5 Q43 514 53 514 L77 514 Q98 514 104 494 L223 110 L348 494 Q354 514 375 514 L396 514 Q406 514 412 509.5 Q418 505 418 497 Q418 495 416 487 L239 -52 Q216 -124 184 -160.5 Q152 -197 94 -201 Z M112 717 Q108 722 108 729 Q108 734 112.5 737.5 Q117 741 125 741 L168 741 Q184 741 192 727 L250 628 Q254 620 254 617 Q254 611 249 607.5 Q244 604 236 604 L206 604 Q191 604 182 617 L112 717 Z " />
<glyph glyph-name="z" unicode="z" horiz-adv-x="412" d="M377 478 Q377 461 367 447 L119 62 L353 62 Q377 62 377 38 L377 24 Q377 0 353 0 L60 0 Q36 0 36 24 L36 36 Q36 53 45 66 L292 452 L70 452 Q46 452 46 476 L46 490 Q46 514 70 514 L353 514 Q377 514 377 490 L377 478 Z " />
<glyph glyph-name="zacute" unicode="&#x17a;" horiz-adv-x="412" d="M377 478 Q377 461 367 447 L119 62 L353 62 Q377 62 377 38 L377 24 Q377 0 353 0 L60 0 Q36 0 36 24 L36 36 Q36 53 45 66 L292 452 L70 452 Q46 452 46 476 L46 490 Q46 514 70 514 L353 514 Q377 514 377 490 L377 478 Z M318 741 Q326 741 330.5 737.5 Q335 734 335 729 Q335 722 331 717 L261 617 Q252 604 237 604 L207 604 Q199 604 194 607.5 Q189 611 189 617 Q189 620 193 628 L251 727 Q259 741 275 741 L318 741 Z " />
<glyph glyph-name="zcaron" unicode="&#x17e;" horiz-adv-x="412" d="M377 478 Q377 461 367 447 L119 62 L353 62 Q377 62 377 38 L377 24 Q377 0 353 0 L60 0 Q36 0 36 24 L36 36 Q36 53 45 66 L292 452 L70 452 Q46 452 46 476 L46 490 Q46 514 70 514 L353 514 Q377 514 377 490 L377 478 Z M328 741 Q336 741 340.5 737.5 Q345 734 345 729 Q345 722 341 717 L269 616 Q260 604 245 604 L185 604 Q170 604 161 616 L89 717 Q85 722 85 729 Q85 734 89.5 737.5 Q94 741 102 741 L126 741 Q141 741 150 729 L215 647 L280 729 Q289 741 304 741 L328 741 Z " />
<glyph glyph-name="zdotaccent" unicode="&#x17c;" horiz-adv-x="412" d="M377 478 Q377 461 367 447 L119 62 L353 62 Q377 62 377 38 L377 24 Q377 0 353 0 L60 0 Q36 0 36 24 L36 36 Q36 53 45 66 L292 452 L70 452 Q46 452 46 476 L46 490 Q46 514 70 514 L353 514 Q377 514 377 490 L377 478 Z M236 720 Q258 720 258 698 L258 649 Q258 627 236 627 L194 627 Q172 627 172 649 L172 698 Q172 720 194 720 L236 720 Z " />
<glyph glyph-name="fi" unicode="&#xfb01;" horiz-adv-x="540" d="M127 0 Q103 0 103 24 L103 452 L49 452 Q25 452 25 476 L25 490 Q25 514 49 514 L103 514 L103 573 Q103 642 143 682.5 Q183 723 252 723 Q264 723 269.5 718.5 Q275 714 275 702 L275 680 Q275 668 271 663 Q267 658 256 657 Q216 654 194.5 632.5 Q173 611 173 566 L173 514 L438 514 Q462 514 462 490 L462 24 Q462 0 438 0 L416 0 Q392 0 392 24 L392 452 L173 452 L173 24 Q173 0 149 0 L127 0 Z M396 627 Q374 627 374 649 L374 698 Q374 720 396 720 L438 720 Q460 720 460 698 L460 649 Q460 627 438 627 L396 627 Z " />
<glyph glyph-name="fl" unicode="&#xfb02;" horiz-adv-x="539" d="M256 657 Q216 654 194.5 632.5 Q173 611 173 566 L173 514 L242 514 Q266 514 266 490 L266 476 Q266 452 242 452 L173 452 L173 24 Q173 0 149 0 L127 0 Q103 0 103 24 L103 452 L49 452 Q25 452 25 476 L25 490 Q25 514 49 514 L103 514 L103 573 Q103 642 142.5 682.5 Q182 723 251 723 Q264 723 269.5 718.5 Q275 714 275 702 L275 680 Q275 668 271 663 Q267 658 256 657 Z M419 720 Q443 720 443 696 L443 124 Q443 76 489 64 Q502 61 507 56.5 Q512 52 512 40 L512 23 Q512 9 506.5 3.5 Q501 -2 487 -1 Q433 2 403 32.5 Q373 63 373 117 L373 696 Q373 720 397 720 L419 720 Z " />
<glyph glyph-name="ordfeminine" unicode="&#xaa;" horiz-adv-x="368" d="M160 295 Q115 295 80.5 321 Q46 347 46 391 Q46 437 74.5 463 Q103 489 165 500 L219 509 Q237 512 244 519.5 Q251 527 251 542 Q251 574 233 592 Q215 610 181 610 Q123 610 111 558 Q107 537 86 537 L74 537 Q62 537 55.5 543.5 Q49 550 51 562 Q59 610 94 638.5 Q129 667 181 667 Q239 667 274.5 632.5 Q310 598 310 542 L310 386 Q310 364 318 357 Q320 355 325 352 Q330 349 333 343.5 Q336 338 336 328 Q336 312 330 306 Q324 300 310 302 Q269 307 257 341 Q227 295 160 295 Z M168 348 Q206 348 228.5 369 Q251 390 251 423 L251 473 Q240 465 217 460 L183 453 Q144 445 126 432 Q108 419 108 395 Q108 373 124.5 360.5 Q141 348 168 348 Z " />
<glyph glyph-name="ordmasculine" unicode="&#xba;" horiz-adv-x="368" d="M184 667 Q243 667 281 631.5 Q319 596 319 541 L319 419 Q319 364 281 328.5 Q243 293 184 293 Q125 293 87 328.5 Q49 364 49 419 L49 541 Q49 596 87 631.5 Q125 667 184 667 Z M184 610 Q150 610 129.5 590.5 Q109 571 109 535 L109 425 Q109 389 129.5 369 Q150 349 184 349 Q218 349 238.5 369 Q259 389 259 425 L259 535 Q259 571 238.5 590.5 Q218 610 184 610 Z " />
<glyph glyph-name="uni0394" unicode="&#x394;" horiz-adv-x="519" d="M48 0 Q26 0 26 18 Q26 24 27 27 L204 699 Q210 720 230 720 L286 720 Q306 720 312 699 L492 27 Q493 24 493 18 Q493 10 487 5 Q481 0 471 0 L48 0 Z M408 69 L257 656 L107 69 L408 69 Z " />
<glyph glyph-name="uni03A9" unicode="&#x3a9;" horiz-adv-x="550" d="M486 69 Q510 69 510 45 L510 24 Q510 0 486 0 L329 0 Q305 0 305 24 L305 71 Q305 81 310 87 Q315 93 326 97 Q365 110 386.5 143.5 Q408 177 408 228 L408 522 Q408 587 372 624 Q336 661 275 661 Q214 661 178 624 Q142 587 142 522 L142 228 Q142 178 163 144 Q184 110 224 96 Q235 92 240 86 Q245 80 245 70 L245 24 Q245 0 221 0 L64 0 Q40 0 40 24 L40 45 Q40 69 64 69 L157 69 Q70 113 70 222 L70 528 Q70 588 96.5 634 Q123 680 169.5 705 Q216 730 275 730 Q334 730 380.5 705 Q427 680 453.5 634 Q480 588 480 528 L480 222 Q480 113 393 69 L486 69 Z " />
<glyph glyph-name="uni03BC" unicode="&#x3bc;" horiz-adv-x="526" d="M424 514 Q448 514 448 490 L448 24 Q448 0 424 0 L407 0 Q383 0 383 24 L383 51 Q341 -10 256 -10 Q188 -10 148 30 L148 -176 Q148 -200 124 -200 L102 -200 Q78 -200 78 -176 L78 490 Q78 514 102 514 L124 514 Q148 514 148 490 L148 174 Q148 118 179 87 Q210 56 263 56 Q316 56 347 87.5 Q378 119 378 174 L378 490 Q378 514 402 514 L424 514 Z " />
<glyph glyph-name="pi" unicode="&#x3c0;" horiz-adv-x="540" d="M491 514 Q515 514 515 490 L515 476 Q515 452 491 452 L448 452 L448 24 Q448 0 424 0 L402 0 Q378 0 378 24 L378 452 L162 452 L162 24 Q162 0 138 0 L116 0 Q92 0 92 24 L92 452 L49 452 Q25 452 25 476 L25 490 Q25 514 49 514 L491 514 Z " />
<glyph glyph-name="zero" unicode="0" horiz-adv-x="520" d="M260 -10 Q205 -10 161.5 13 Q118 36 93.5 77 Q69 118 69 170 L69 550 Q69 602 93.5 643 Q118 684 161.5 707 Q205 730 260 730 Q315 730 358.5 707 Q402 684 426.5 643 Q451 602 451 550 L451 170 Q451 118 426.5 77 Q402 36 358.5 13 Q315 -10 260 -10 Z M260 57 Q316 57 348 89 Q380 121 380 180 L380 540 Q380 599 348 631 Q316 663 260 663 Q204 663 172 631 Q140 599 140 540 L140 180 Q140 121 172 89 Q204 57 260 57 Z " />
<glyph glyph-name="one" unicode="1" horiz-adv-x="520" d="M461 67 Q485 67 485 43 L485 24 Q485 0 461 0 L102 0 Q78 0 78 24 L78 43 Q78 67 102 67 L250 67 L250 625 L115 515 Q107 508 99 508 Q93 508 89.5 513 Q86 518 86 527 L86 558 Q86 575 100 588 L243 709 Q255 720 273 720 L297 720 Q321 720 321 696 L321 67 L461 67 Z " />
<glyph glyph-name="two" unicode="2" horiz-adv-x="520" d="M456 67 Q480 67 480 43 L480 24 Q480 0 456 0 L78 0 Q54 0 54 24 L54 68 Q54 134 81.5 184 Q109 234 176 284 L294 371 Q347 410 375.5 450.5 Q404 491 404 540 Q404 595 367.5 629 Q331 663 272 663 Q216 663 182 631 Q148 599 139 543 Q136 520 114 520 L91 520 Q79 520 72.5 526.5 Q66 533 67 545 Q74 630 130 680 Q186 730 272 730 Q331 730 377 706 Q423 682 449 639 Q475 596 475 540 Q475 489 457.5 450 Q440 411 411 381.5 Q382 352 336 318 L213 227 Q160 188 142.5 150.5 Q125 113 125 67 L456 67 Z " />
<glyph glyph-name="three" unicode="3" horiz-adv-x="520" d="M260 454 Q352 454 409 400 Q466 346 466 255 L466 185 Q466 127 439 83 Q412 39 365 14.5 Q318 -10 260 -10 Q175 -10 118.5 39.5 Q62 89 55 174 Q54 186 60.5 192.5 Q67 199 79 199 L102 199 Q115 199 120 193.5 Q125 188 127 176 Q134 122 170 89.5 Q206 57 260 57 Q321 57 358 95 Q395 133 395 199 L395 246 Q395 313 358.5 350.5 Q322 388 261 388 Q226 388 191 373 Q183 369 176 369 Q167 369 158 378 L142 394 Q134 402 134 410 Q134 419 143 428 L371 653 L102 653 Q78 653 78 677 L78 696 Q78 720 102 720 L436 720 Q460 720 460 696 L460 671 Q460 654 448 642 L260 454 Z " />
<glyph glyph-name="four" unicode="4" horiz-adv-x="520" d="M482 239 Q506 239 506 215 L506 196 Q506 172 482 172 L407 172 L407 24 Q407 0 383 0 L360 0 Q336 0 336 24 L336 172 L53 172 Q29 172 29 196 L29 228 Q29 240 33 250 Q37 260 46 275 L297 704 Q303 713 308.5 716.5 Q314 720 326 720 L356 720 Q366 720 371.5 716 Q377 712 377 705 Q377 699 372 691 L105 239 L336 239 L336 382 Q336 406 360 406 L383 406 Q407 406 407 382 L407 239 L482 239 Z " />
<glyph glyph-name="five" unicode="5" horiz-adv-x="520" d="M266 455 Q323 455 368.5 430 Q414 405 440 359.5 Q466 314 466 254 L466 193 Q466 133 439.5 87 Q413 41 366 15.5 Q319 -10 260 -10 Q174 -10 119.5 38.5 Q65 87 55 174 Q52 199 79 199 L102 199 Q115 199 119 194 Q123 189 126 176 Q136 120 170 88.5 Q204 57 260 57 Q321 57 358 95 Q395 133 395 198 L395 247 Q395 312 358 350 Q321 388 260 388 Q227 388 205 378.5 Q183 369 159 351 Q150 343 144.5 340 Q139 337 130 337 L121 338 L101 341 Q77 344 80 368 L121 698 Q124 720 147 720 L421 720 Q445 720 445 696 L445 677 Q445 653 421 653 L184 653 L155 421 Q176 437 205.5 446 Q235 455 266 455 Z " />
<glyph glyph-name="six" unicode="6" horiz-adv-x="520" d="M260 455 Q319 455 366 429.5 Q413 404 439.5 358 Q466 312 466 252 L466 193 Q466 133 439.5 87 Q413 41 366 15.5 Q319 -10 260 -10 Q201 -10 154 15.5 Q107 41 80.5 87 Q54 133 54 193 L54 252 Q54 291 64.5 320.5 Q75 350 99 393 L267 703 Q276 720 295 720 L324 720 Q334 720 339.5 715.5 Q345 711 345 704 Q345 698 341 691 L208 448 Q232 455 260 455 Z M395 247 Q395 312 358 350 Q321 388 260 388 Q199 388 162 350 Q125 312 125 247 L125 198 Q125 133 162 95 Q199 57 260 57 Q321 57 358 95 Q395 133 395 198 L395 247 Z " />
<glyph glyph-name="seven" unicode="7" horiz-adv-x="520" d="M461 720 Q485 720 485 696 L485 670 Q485 654 478 640 L281 270 Q250 212 240 172 Q230 132 230 62 L230 24 Q230 0 206 0 L183 0 Q159 0 159 24 L159 69 Q159 141 170 186.5 Q181 232 218 300 L409 653 L68 653 Q44 653 44 677 L44 696 Q44 720 68 720 L461 720 Z " />
<glyph glyph-name="eight" unicode="8" horiz-adv-x="520" d="M260 -10 Q200 -10 152 17 Q104 44 76 92 Q48 140 48 201 Q48 258 74.5 305.5 Q101 353 146 381 Q108 407 87 448 Q66 489 66 539 Q66 594 91 637.5 Q116 681 160.5 705.5 Q205 730 260 730 Q315 730 359.5 705.5 Q404 681 429 637.5 Q454 594 454 539 Q454 489 433 448 Q412 407 374 381 Q419 353 445.5 305.5 Q472 258 472 201 Q472 140 444 92 Q416 44 368 17 Q320 -10 260 -10 Z M260 412 Q315 412 349 446.5 Q383 481 383 537 Q383 593 349 628 Q315 663 260 663 Q205 663 171 628 Q137 593 137 537 Q137 481 171 446.5 Q205 412 260 412 Z M260 57 Q320 57 360.5 98 Q401 139 401 201 Q401 263 360.5 304 Q320 345 260 345 Q200 345 159.5 304 Q119 263 119 201 Q119 139 159.5 98 Q200 57 260 57 Z " />
<glyph glyph-name="nine" unicode="9" horiz-adv-x="520" d="M260 730 Q319 730 366 704.5 Q413 679 439.5 633 Q466 587 466 527 L466 468 Q466 429 455.5 399.5 Q445 370 421 327 L253 17 Q245 0 225 0 L198 0 Q188 0 182.5 4.5 Q177 9 177 16 Q177 22 181 29 L314 273 Q290 265 260 265 Q201 265 154 290.5 Q107 316 80.5 362 Q54 408 54 468 L54 527 Q54 587 80.5 633 Q107 679 154 704.5 Q201 730 260 730 Z M395 522 Q395 587 358 625 Q321 663 260 663 Q199 663 162 625 Q125 587 125 522 L125 473 Q125 408 162 370 Q199 332 260 332 Q321 332 358 370 Q395 408 395 473 L395 522 Z " />
<glyph glyph-name="fraction" unicode="&#x2044;" horiz-adv-x="266" d="M357 720 Q375 720 375 708 Q375 703 368 691 L-41 16 Q-51 0 -70 0 L-91 0 Q-109 0 -109 12 Q-109 17 -102 29 L307 704 Q317 720 336 720 L357 720 Z " />
<glyph glyph-name="onehalf" unicode="&#xbd;" horiz-adv-x="1017" d="M309 326 Q333 326 333 302 L333 289 Q333 265 309 265 L74 265 Q50 265 50 289 L50 302 Q50 326 74 326 L162 326 L162 633 L85 575 Q78 569 70 569 Q64 569 60 574.5 Q56 580 56 590 L56 611 Q56 629 70 640 L161 710 Q174 720 191 720 L203 720 Q227 720 227 696 L227 326 L309 326 Z M740 720 Q758 720 758 708 Q758 703 751 691 L342 16 Q332 0 313 0 L292 0 Q274 0 274 12 Q274 17 281 29 L690 704 Q700 720 719 720 L740 720 Z M953 61 Q977 61 977 37 L977 24 Q977 0 953 0 L705 0 Q681 0 681 24 L681 49 Q681 92 698.5 122.5 Q716 153 759 183 L838 238 Q873 262 891.5 284 Q910 306 910 333 Q910 362 888 381.5 Q866 401 833 401 Q804 401 784 386 Q764 371 756 343 Q750 321 731 321 L714 321 Q702 321 695.5 327.5 Q689 334 691 346 Q698 399 737 430.5 Q776 462 833 462 Q895 462 934.5 427 Q974 392 974 334 Q974 288 949 256.5 Q924 225 877 192 L796 135 Q770 116 760 99.5 Q750 83 748 61 L953 61 Z " />
<glyph glyph-name="onequarter" unicode="&#xbc;" horiz-adv-x="971" d="M309 326 Q333 326 333 302 L333 289 Q333 265 309 265 L74 265 Q50 265 50 289 L50 302 Q50 326 74 326 L162 326 L162 633 L85 575 Q78 569 70 569 Q64 569 60 574.5 Q56 580 56 590 L56 611 Q56 629 70 640 L161 710 Q174 720 191 720 L203 720 Q227 720 227 696 L227 326 L309 326 Z M740 720 Q758 720 758 708 Q758 703 751 691 L342 16 Q332 0 313 0 L292 0 Q274 0 274 12 Q274 17 281 29 L690 704 Q700 720 719 720 L740 720 Z M907 156 Q931 156 931 132 L931 120 Q931 96 907 96 L868 96 L868 24 Q868 0 844 0 L828 0 Q804 0 804 24 L804 96 L623 96 Q599 96 599 120 L599 145 Q599 160 608 175 L778 429 Q789 444 807 444 L826 444 Q847 444 847 429 Q847 423 842 415 L668 156 L804 156 L804 227 Q804 251 828 251 L844 251 Q868 251 868 227 L868 156 L907 156 Z " />
<glyph glyph-name="threequarters" unicode="&#xbe;" horiz-adv-x="944" d="M200 557 Q256 553 291 518.5 Q326 484 326 430 L326 387 Q326 330 286 294 Q246 258 183 258 Q127 258 88.5 286.5 Q50 315 42 365 Q40 377 46.5 383.5 Q53 390 65 390 L82 390 Q93 390 97 386.5 Q101 383 103.5 377 Q106 371 107 368 Q117 344 134.5 331.5 Q152 319 183 319 Q218 319 240.5 338.5 Q263 358 263 390 L263 427 Q263 459 240.5 478.5 Q218 498 182 498 Q165 498 147 493 Q142 491 133 491 Q122 491 114 500 L104 513 Q97 521 97 529 Q97 537 105 545 L227 659 L81 659 Q57 659 57 683 L57 696 Q57 720 81 720 L293 720 Q317 720 317 696 L317 684 Q317 667 304 654 L200 557 Z M713 720 Q731 720 731 708 Q731 703 724 691 L315 16 Q305 0 286 0 L265 0 Q247 0 247 12 Q247 17 254 29 L663 704 Q673 720 692 720 L713 720 Z M880 156 Q904 156 904 132 L904 120 Q904 96 880 96 L841 96 L841 24 Q841 0 817 0 L801 0 Q777 0 777 24 L777 96 L596 96 Q572 96 572 120 L572 145 Q572 160 581 175 L751 429 Q762 444 780 444 L799 444 Q820 444 820 429 Q820 423 815 415 L641 156 L777 156 L777 227 Q777 251 801 251 L817 251 Q841 251 841 227 L841 156 L880 156 Z " />
<glyph glyph-name="uni00B9" unicode="&#xb9;" horiz-adv-x="383" d="M309 326 Q333 326 333 302 L333 289 Q333 265 309 265 L74 265 Q50 265 50 289 L50 302 Q50 326 74 326 L162 326 L162 633 L85 575 Q78 569 70 569 Q64 569 60 574.5 Q56 580 56 590 L56 611 Q56 629 70 640 L161 710 Q174 720 191 720 L203 720 Q227 720 227 696 L227 326 L309 326 Z " />
<glyph glyph-name="uni00B2" unicode="&#xb2;" horiz-adv-x="376" d="M312 326 Q336 326 336 302 L336 289 Q336 265 312 265 L64 265 Q40 265 40 289 L40 314 Q40 357 57.5 387.5 Q75 418 118 448 L197 503 Q232 527 250.5 549 Q269 571 269 598 Q269 627 247 646.5 Q225 666 192 666 Q163 666 143 651 Q123 636 115 608 Q109 586 90 586 L73 586 Q61 586 54.5 592.5 Q48 599 50 611 Q57 664 96 695.5 Q135 727 192 727 Q254 727 293.5 692 Q333 657 333 599 Q333 553 308 521.5 Q283 490 236 457 L155 400 Q129 381 119 364.5 Q109 348 107 326 L312 326 Z " />
<glyph glyph-name="uni00B3" unicode="&#xb3;" horiz-adv-x="366" d="M200 557 Q256 553 291 518.5 Q326 484 326 430 L326 387 Q326 330 286 294 Q246 258 183 258 Q127 258 88.5 286.5 Q50 315 42 365 Q40 377 46.5 383.5 Q53 390 65 390 L82 390 Q93 390 97 386.5 Q101 383 103.5 377 Q106 371 107 368 Q117 344 134.5 331.5 Q152 319 183 319 Q218 319 240.5 338.5 Q263 358 263 390 L263 427 Q263 459 240.5 478.5 Q218 498 182 498 Q165 498 147 493 Q142 491 133 491 Q122 491 114 500 L104 513 Q97 521 97 529 Q97 537 105 545 L227 659 L81 659 Q57 659 57 683 L57 696 Q57 720 81 720 L293 720 Q317 720 317 696 L317 684 Q317 667 304 654 L200 557 Z " />
<glyph glyph-name="asterisk" unicode="&#x2a;" horiz-adv-x="386" d="M325 531 Q338 524 338 512 Q338 506 334 499 Q327 486 315 486 Q308 486 301 490 L217 539 L217 441 Q217 417 193 417 Q169 417 169 441 L169 539 L85 490 Q78 486 71 486 Q59 486 52 499 Q48 506 48 512 Q48 524 61 531 L146 580 L61 629 Q48 636 48 648 Q48 655 52 662 Q60 674 71 674 Q78 674 85 670 L169 621 L169 719 Q169 743 193 743 Q217 743 217 719 L217 621 L301 670 Q308 674 315 674 Q327 674 334 662 Q338 655 338 648 Q338 636 325 629 L240 580 L325 531 Z " />
<glyph glyph-name="backslash" unicode="&#x5c;" horiz-adv-x="378" d="M60 720 Q80 720 87 701 L357 28 Q360 22 360 17 Q360 0 338 0 L318 0 Q298 0 291 19 L21 692 Q18 698 18 703 Q18 720 40 720 L60 720 Z " />
<glyph glyph-name="middot" unicode="&#xb7;" horiz-adv-x="280" d="M166 370 Q190 370 190 346 L190 294 Q190 270 166 270 L114 270 Q90 270 90 294 L90 346 Q90 370 114 370 L166 370 Z " />
<glyph glyph-name="bullet" unicode="&#x2022;" horiz-adv-x="456" d="M228 147 Q182 147 143.5 169.5 Q105 192 82.5 230.5 Q60 269 60 315 Q60 361 82.5 399.5 Q105 438 143.5 460.5 Q182 483 228 483 Q274 483 312.5 460.5 Q351 438 373.5 399.5 Q396 361 396 315 Q396 269 373.5 230.5 Q351 192 312.5 169.5 Q274 147 228 147 Z " />
<glyph glyph-name="colon" unicode="&#x3a;" horiz-adv-x="268" d="M160 514 Q184 514 184 490 L184 438 Q184 414 160 414 L108 414 Q84 414 84 438 L84 490 Q84 514 108 514 L160 514 Z M160 100 Q184 100 184 76 L184 24 Q184 0 160 0 L108 0 Q84 0 84 24 L84 76 Q84 100 108 100 L160 100 Z " />
<glyph glyph-name="comma" unicode="&#x2c;" horiz-adv-x="220" d="M136 100 Q160 100 160 76 L160 15 Q160 1 154 -14 L118 -101 Q113 -112 108 -116 Q103 -120 90 -120 Q67 -120 67 -106 Q67 -102 71 -92 L107 0 L84 0 Q60 0 60 24 L60 76 Q60 100 84 100 L136 100 Z " />
<glyph glyph-name="ellipsis" unicode="&#x2026;" horiz-adv-x="660" d="M136 100 Q160 100 160 76 L160 24 Q160 0 136 0 L84 0 Q60 0 60 24 L60 76 Q60 100 84 100 L136 100 Z M356 100 Q380 100 380 76 L380 24 Q380 0 356 0 L304 0 Q280 0 280 24 L280 76 Q280 100 304 100 L356 100 Z M576 100 Q600 100 600 76 L600 24 Q600 0 576 0 L524 0 Q500 0 500 24 L500 76 Q500 100 524 100 L576 100 Z " />
<glyph glyph-name="exclam" unicode="&#x21;" horiz-adv-x="284" d="M162 720 Q173 720 179.5 713.5 Q186 707 185 696 L170 204 Q169 180 145 180 L139 180 Q116 180 114 204 L99 696 Q98 707 104.5 713.5 Q111 720 122 720 L162 720 Z M168 100 Q192 100 192 76 L192 24 Q192 0 168 0 L116 0 Q92 0 92 24 L92 76 Q92 100 116 100 L168 100 Z " />
<glyph glyph-name="exclamdown" unicode="&#xa1;" horiz-adv-x="284" d="M116 414 Q92 414 92 438 L92 490 Q92 514 116 514 L168 514 Q192 514 192 490 L192 438 Q192 414 168 414 L116 414 Z M122 -206 Q111 -206 104.5 -199.5 Q98 -193 99 -182 L114 310 Q116 334 139 334 L145 334 Q169 334 170 310 L185 -182 Q186 -193 179.5 -199.5 Q173 -206 162 -206 L122 -206 Z " />
<glyph glyph-name="numbersign" unicode="&#x23;" horiz-adv-x="520" d="M486 491 Q500 491 505 485 Q510 479 510 465 Q510 439 486 439 L405 439 L376 283 L452 283 Q466 283 471 277 Q476 271 476 257 Q476 231 452 231 L366 231 L327 22 Q323 0 301 0 L292 0 Q279 0 273.5 7 Q268 14 270 26 L308 231 L168 231 L129 22 Q125 0 103 0 L94 0 Q81 0 75.5 7 Q70 14 72 26 L110 231 L34 231 Q10 231 10 257 Q10 272 15.5 277.5 Q21 283 34 283 L120 283 L149 439 L68 439 Q44 439 44 465 Q44 480 49.5 485.5 Q55 491 68 491 L158 491 L197 698 Q201 720 223 720 L232 720 Q245 720 250.5 713 Q256 706 254 694 L216 491 L356 491 L395 698 Q399 720 421 720 L430 720 Q443 720 448.5 713 Q454 706 452 694 L414 491 L486 491 Z M347 439 L207 439 L178 283 L318 283 L347 439 Z " />
<glyph glyph-name="period" unicode="&#x2e;" horiz-adv-x="220" d="M136 100 Q160 100 160 76 L160 24 Q160 0 136 0 L84 0 Q60 0 60 24 L60 76 Q60 100 84 100 L136 100 Z " />
<glyph glyph-name="question" unicode="&#x3f;" horiz-adv-x="480" d="M284 313 Q254 284 244.5 263.5 Q235 243 233 209 Q232 193 227 186.5 Q222 180 208 180 L198 180 Q183 180 178.5 186.5 Q174 193 173 209 Q170 264 184.5 296 Q199 328 243 368 L278 400 Q359 474 359 547 Q359 597 327 628 Q295 659 243 659 Q190 659 163 632 Q136 605 125 560 Q123 549 117 543.5 Q111 538 99 538 L75 538 Q49 538 52 563 Q61 636 112 682 Q163 728 243 728 Q326 728 378.5 678.5 Q431 629 431 547 Q431 505 417 472 Q403 439 381.5 413.5 Q360 388 324 352 L284 313 Z M230 100 Q254 100 254 76 L254 24 Q254 0 230 0 L178 0 Q154 0 154 24 L154 76 Q154 100 178 100 L230 100 Z " />
<glyph glyph-name="questiondown" unicode="&#xbf;" horiz-adv-x="411" d="M231 414 Q207 414 207 438 L207 490 Q207 514 231 514 L283 514 Q307 514 307 490 L307 438 Q307 414 283 414 L231 414 Z M177 201 Q207 230 216.5 250.5 Q226 271 228 305 Q229 321 234 327.5 Q239 334 253 334 L263 334 Q278 334 282.5 327.5 Q287 321 288 305 Q291 250 276.5 218 Q262 186 218 146 L183 114 Q102 40 102 -33 Q102 -83 134 -114 Q166 -145 218 -145 Q271 -145 298 -118 Q325 -91 336 -46 Q338 -35 344 -29.5 Q350 -24 362 -24 L386 -24 Q412 -24 409 -49 Q400 -122 349 -168 Q298 -214 218 -214 Q135 -214 82.5 -164.5 Q30 -115 30 -33 Q30 9 44 42 Q58 75 79.5 100.5 Q101 126 137 162 L177 201 Z " />
<glyph glyph-name="quotedbl" unicode="&#x22;" horiz-adv-x="356" d="M102 720 Q126 720 126 696 L126 538 Q126 514 102 514 L84 514 Q60 514 60 538 L60 696 Q60 720 84 720 L102 720 Z M272 720 Q296 720 296 696 L296 538 Q296 514 272 514 L254 514 Q230 514 230 538 L230 696 Q230 720 254 720 L272 720 Z " />
<glyph glyph-name="quotesingle" unicode="&#x27;" horiz-adv-x="186" d="M102 720 Q126 720 126 696 L126 538 Q126 514 102 514 L84 514 Q60 514 60 538 L60 696 Q60 720 84 720 L102 720 Z " />
<glyph glyph-name="semicolon" unicode="&#x3b;" horiz-adv-x="268" d="M160 514 Q184 514 184 490 L184 438 Q184 414 160 414 L108 414 Q84 414 84 438 L84 490 Q84 514 108 514 L160 514 Z M160 100 Q184 100 184 76 L184 15 Q184 1 178 -14 L142 -101 Q137 -112 132 -116 Q127 -120 114 -120 Q92 -120 92 -105 Q92 -100 95 -92 L131 0 L108 0 Q84 0 84 24 L84 76 Q84 100 108 100 L160 100 Z " />
<glyph glyph-name="slash" unicode="&#x2f;" horiz-adv-x="378" d="M338 720 Q360 720 360 703 Q360 698 357 692 L87 19 Q80 0 60 0 L40 0 Q18 0 18 17 Q18 22 21 28 L291 701 Q298 720 318 720 L338 720 Z " />
<glyph glyph-name="underscore" unicode="&#x5f;" horiz-adv-x="520" d="M-22 -117 Q-22 -93 0 -93 L520 -93 Q542 -93 542 -117 L542 -125 Q542 -149 520 -149 L0 -149 Q-22 -149 -22 -125 L-22 -117 Z " />
<glyph glyph-name="braceleft" unicode="&#x7b;" horiz-adv-x="373" d="M270 -135 Q222 -135 197 -124 Q172 -113 161.5 -81.5 Q151 -50 151 12 L151 173 Q151 221 132.5 244 Q114 267 74 272 Q50 275 50 296 L50 322 Q50 343 74 346 Q114 351 132.5 374 Q151 397 151 445 L151 605 Q151 667 161.5 698.5 Q172 730 197 741 Q222 752 270 752 L299 752 Q323 752 323 728 L323 722 Q323 698 297 698 Q258 698 241.5 691.5 Q225 685 220 666.5 Q215 648 215 603 L215 436 Q215 382 195 350.5 Q175 319 121 310 L121 308 Q175 299 195 267.5 Q215 236 215 182 L215 10 Q215 -35 220 -54 Q225 -73 241.5 -79.5 Q258 -86 297 -86 Q323 -86 323 -110 L323 -111 Q323 -135 299 -135 L270 -135 Z " />
<glyph glyph-name="braceright" unicode="&#x7d;" horiz-adv-x="373" d="M74 -135 Q50 -135 50 -111 L50 -110 Q50 -86 76 -86 Q115 -86 131.5 -79.5 Q148 -73 153 -54 Q158 -35 158 10 L158 182 Q158 236 178 267.5 Q198 299 252 308 L252 310 Q198 319 178 350.5 Q158 382 158 436 L158 603 Q158 648 153 666.5 Q148 685 131.5 691.5 Q115 698 76 698 Q50 698 50 722 L50 728 Q50 752 74 752 L103 752 Q151 752 176 741 Q201 730 211.5 698.5 Q222 667 222 605 L222 445 Q222 397 240.5 374 Q259 351 299 346 Q323 343 323 322 L323 296 Q323 275 299 272 Q259 267 240.5 244 Q222 221 222 173 L222 12 Q222 -50 211.5 -81.5 Q201 -113 176 -124 Q151 -135 103 -135 L74 -135 Z " />
<glyph glyph-name="bracketleft" unicode="&#x5b;" horiz-adv-x="326" d="M252 752 Q276 752 276 728 L276 722 Q276 698 252 698 L164 698 L164 -82 L252 -82 Q276 -82 276 -106 L276 -111 Q276 -135 252 -135 L124 -135 Q100 -135 100 -111 L100 728 Q100 752 124 752 L252 752 Z " />
<glyph glyph-name="bracketright" unicode="&#x5d;" horiz-adv-x="326" d="M202 752 Q226 752 226 728 L226 -111 Q226 -135 202 -135 L74 -135 Q50 -135 50 -111 L50 -106 Q50 -82 74 -82 L162 -82 L162 698 L74 698 Q50 698 50 722 L50 728 Q50 752 74 752 L202 752 Z " />
<glyph glyph-name="parenleft" unicode="&#x28;" horiz-adv-x="354" d="M265 766 Q272 774 282 774 Q291 774 298 767 L306 759 Q315 752 315 742 Q315 733 308 725 Q229 634 188 532 Q147 430 147 307 Q147 185 188 82 Q229 -21 308 -111 Q315 -119 315 -128 Q315 -138 307 -145 L298 -153 Q291 -160 282 -160 Q272 -160 265 -152 Q80 45 80 307 Q80 569 265 766 Z " />
<glyph glyph-name="parenright" unicode="&#x29;" horiz-adv-x="354" d="M89 766 Q274 569 274 307 Q274 45 89 -152 Q82 -160 72 -160 Q63 -160 56 -153 L47 -145 Q39 -138 39 -128 Q39 -119 46 -111 Q125 -21 166 82 Q207 185 207 307 Q207 430 166 532 Q125 634 46 725 Q39 733 39 742 Q39 752 48 759 L56 767 Q63 774 72 774 Q82 774 89 766 Z " />
<glyph glyph-name="emdash" unicode="&#x2014;" horiz-adv-x="968" d="M50 303 Q50 327 74 327 L894 327 Q918 327 918 303 L918 285 Q918 261 894 261 L74 261 Q50 261 50 285 L50 303 Z " />
<glyph glyph-name="endash" unicode="&#x2013;" horiz-adv-x="620" d="M50 303 Q50 327 74 327 L546 327 Q570 327 570 303 L570 285 Q570 261 546 261 L74 261 Q50 261 50 285 L50 303 Z " />
<glyph glyph-name="hyphen" unicode="&#x2d;" horiz-adv-x="370" d="M40 303 Q40 327 64 327 L306 327 Q330 327 330 303 L330 285 Q330 261 306 261 L64 261 Q40 261 40 285 L40 303 Z " />
<glyph glyph-name="guillemotleft" unicode="&#xab;" horiz-adv-x="576" d="M264 468 Q274 468 279.5 464 Q285 460 285 454 Q285 447 279 439 L145 253 L279 67 Q285 60 285 52 Q285 46 279.5 42 Q274 38 264 38 L245 38 Q227 38 216 53 L82 236 Q76 245 76 253 Q76 261 82 270 L216 453 Q227 468 245 468 L264 468 Z M475 468 Q485 468 490.5 464 Q496 460 496 454 Q496 447 490 439 L356 253 L490 67 Q496 60 496 52 Q496 46 490.5 42 Q485 38 475 38 L456 38 Q438 38 427 53 L293 236 Q287 245 287 253 Q287 261 293 270 L427 453 Q438 468 456 468 L475 468 Z " />
<glyph glyph-name="guillemotright" unicode="&#xbb;" horiz-adv-x="576" d="M91 439 Q85 447 85 454 Q85 460 90.5 464 Q96 468 106 468 L125 468 Q143 468 154 453 L288 270 Q294 261 294 253 Q294 245 288 236 L154 53 Q143 38 125 38 L106 38 Q96 38 90.5 42 Q85 46 85 52 Q85 60 91 67 L225 253 L91 439 Z M302 439 Q296 447 296 454 Q296 460 301.5 464 Q307 468 317 468 L336 468 Q354 468 365 453 L499 270 Q505 261 505 253 Q505 245 499 236 L365 53 Q354 38 336 38 L317 38 Q307 38 301.5 42 Q296 46 296 52 Q296 60 302 67 L436 253 L302 439 Z " />
<glyph glyph-name="guilsinglleft" unicode="&#x2039;" horiz-adv-x="365" d="M264 468 Q274 468 279.5 464 Q285 460 285 454 Q285 447 279 439 L145 253 L279 67 Q285 60 285 52 Q285 46 279.5 42 Q274 38 264 38 L245 38 Q227 38 216 53 L82 236 Q76 245 76 253 Q76 261 82 270 L216 453 Q227 468 245 468 L264 468 Z " />
<glyph glyph-name="guilsinglright" unicode="&#x203a;" horiz-adv-x="365" d="M86 439 Q80 447 80 454 Q80 460 85.5 464 Q91 468 101 468 L120 468 Q138 468 149 453 L283 270 Q289 261 289 253 Q289 245 283 236 L149 53 Q138 38 120 38 L101 38 Q91 38 85.5 42 Q80 46 80 52 Q80 60 86 67 L220 253 L86 439 Z " />
<glyph glyph-name="quotedblbase" unicode="&#x201e;" horiz-adv-x="380" d="M87 -115 Q76 -115 71 -112.5 Q66 -110 66 -104 Q66 -99 71 -87 L107 0 L84 0 Q60 0 60 24 L60 77 Q60 101 84 101 L133 101 Q157 101 157 77 L157 15 Q157 1 151 -14 L115 -97 Q110 -108 105 -111.5 Q100 -115 87 -115 Z M260 -115 Q249 -115 244 -112.5 Q239 -110 239 -104 Q239 -99 244 -87 L280 0 L257 0 Q233 0 233 24 L233 77 Q233 101 257 101 L306 101 Q330 101 330 77 L330 15 Q330 1 324 -14 L288 -97 Q283 -107 278 -111 Q273 -115 260 -115 Z " />
<glyph glyph-name="quotedblleft" unicode="&#x201c;" horiz-adv-x="380" d="M84 504 Q60 504 60 528 L60 590 Q60 604 66 619 L102 702 Q107 713 112 716.5 Q117 720 130 720 Q141 720 146 717.5 Q151 715 151 709 Q151 704 146 692 L110 605 L133 605 Q157 605 157 581 L157 528 Q157 504 133 504 L84 504 Z M257 504 Q233 504 233 528 L233 590 Q233 604 239 619 L275 702 Q280 713 285 716.5 Q290 720 303 720 Q314 720 319 717.5 Q324 715 324 709 Q324 704 319 692 L283 605 L306 605 Q330 605 330 581 L330 528 Q330 504 306 504 L257 504 Z " />
<glyph glyph-name="quotedblright" unicode="&#x201d;" horiz-adv-x="380" d="M87 504 Q76 504 71 506.5 Q66 509 66 515 Q66 520 71 532 L107 619 L84 619 Q60 619 60 643 L60 696 Q60 720 84 720 L133 720 Q157 720 157 696 L157 634 Q157 620 151 605 L115 522 Q110 512 105 508 Q100 504 87 504 Z M260 504 Q249 504 244 506.5 Q239 509 239 515 Q239 520 244 532 L280 619 L257 619 Q233 619 233 643 L233 696 Q233 720 257 720 L306 720 Q330 720 330 696 L330 634 Q330 620 324 605 L288 522 Q283 512 278 508 Q273 504 260 504 Z " />
<glyph glyph-name="quoteleft" unicode="&#x2018;" horiz-adv-x="217" d="M84 504 Q60 504 60 528 L60 590 Q60 604 66 619 L102 702 Q107 713 112 716.5 Q117 720 130 720 Q141 720 146 717.5 Q151 715 151 709 Q151 704 146 692 L110 605 L133 605 Q157 605 157 581 L157 528 Q157 504 133 504 L84 504 Z " />
<glyph glyph-name="quoteright" unicode="&#x2019;" horiz-adv-x="217" d="M87 504 Q76 504 71 506.5 Q66 509 66 515 Q66 520 71 532 L107 619 L84 619 Q60 619 60 643 L60 696 Q60 720 84 720 L133 720 Q157 720 157 696 L157 634 Q157 620 151 605 L115 522 Q110 512 105 508 Q100 504 87 504 Z " />
<glyph glyph-name="quotesinglbase" unicode="&#x201a;" horiz-adv-x="217" d="M87 -115 Q76 -115 71 -112.5 Q66 -110 66 -104 Q66 -99 71 -87 L107 0 L84 0 Q60 0 60 24 L60 77 Q60 101 84 101 L133 101 Q157 101 157 77 L157 15 Q157 1 151 -14 L115 -97 Q110 -108 105 -111.5 Q100 -115 87 -115 Z " />
<glyph glyph-name="uni00A0" unicode="&#xa0;" horiz-adv-x="220" d="" />
<glyph glyph-name="cent" unicode="&#xa2;" horiz-adv-x="520" d="M425 178 Q437 178 443.5 171.5 Q450 165 449 153 Q442 84 400.5 42 Q359 0 292 -8 L292 -56 Q292 -80 268 -80 L258 -80 Q234 -80 234 -56 L234 -9 Q161 -1 115.5 48.5 Q70 98 70 170 L70 344 Q70 416 115.5 465.5 Q161 515 234 523 L234 570 Q234 594 258 594 L268 594 Q292 594 292 570 L292 522 Q359 514 400.5 471 Q442 428 449 361 Q450 349 443.5 342.5 Q437 336 425 336 L403 336 Q383 336 378 359 Q362 441 292 455 L292 59 Q328 67 350 91 Q372 115 378 155 Q381 178 403 178 L425 178 Z M140 178 Q140 127 165 96 Q190 65 234 58 L234 456 Q190 449 165 418 Q140 387 140 336 L140 178 Z " />
<glyph glyph-name="currency" unicode="&#xa4;" horiz-adv-x="600" d="M516 187 Q524 179 524 170 Q524 160 512 148 Q501 137 491 137 Q482 137 474 145 L421 198 Q370 160 301 160 Q230 160 179 198 L126 145 Q118 137 109 137 Q99 137 88 148 Q76 160 76 170 Q76 179 84 187 L138 241 Q110 285 110 340 L110 380 Q110 437 139 480 L84 535 Q76 543 76 552 Q76 562 88 574 Q99 585 109 585 Q118 585 126 577 L180 523 Q229 560 301 560 Q371 560 420 523 L474 577 Q482 585 491 585 Q501 585 512 574 Q524 562 524 552 Q524 543 516 535 L461 480 Q490 437 490 380 L490 340 Q490 285 462 241 L516 187 Z M301 229 Q355 229 386.5 261 Q418 293 418 351 L418 369 Q418 427 386.5 459 Q355 491 301 491 Q246 491 214 459.5 Q182 428 182 369 L182 351 Q182 293 214 261 Q246 229 301 229 Z " />
<glyph glyph-name="dollar" unicode="&#x24;" horiz-adv-x="520" d="M460 199 Q460 113 411 57 Q362 1 283 -8 L283 -56 Q283 -80 259 -80 L249 -80 Q225 -80 225 -56 L225 -9 Q150 -1 101.5 48.5 Q53 98 46 176 Q45 188 51.5 194.5 Q58 201 70 201 L94 201 Q114 201 119 178 Q127 129 153.5 98.5 Q180 68 225 61 L225 351 Q141 381 100 425 Q59 469 59 540 Q59 617 104.5 667.5 Q150 718 225 727 L225 776 Q225 800 249 800 L259 800 Q283 800 283 776 L283 726 Q351 718 394.5 674 Q438 630 445 563 Q446 551 439.5 544.5 Q433 538 421 538 L397 538 Q377 538 372 561 Q354 642 283 656 L283 406 Q373 373 416.5 326.5 Q460 280 460 199 Z M130 539 Q130 498 154.5 472 Q179 446 225 427 L225 657 Q180 650 155 618.5 Q130 587 130 539 Z M283 61 Q333 70 361 107 Q389 144 389 199 Q389 250 361 281 Q333 312 283 331 L283 61 Z " />
<glyph glyph-name="Euro" unicode="&#x20ac;" horiz-adv-x="520" d="M453 191 Q477 191 477 170 Q477 118 452.5 77 Q428 36 384.5 13 Q341 -10 286 -10 Q231 -10 187.5 13 Q144 36 119.5 77 Q95 118 95 170 L95 266 L58 266 Q34 266 34 290 L34 300 Q34 324 58 324 L95 324 L95 406 L58 406 Q34 406 34 430 L34 440 Q34 464 58 464 L95 464 L95 550 Q95 602 119.5 643 Q144 684 187.5 707 Q231 730 286 730 Q341 730 384.5 707 Q428 684 452.5 643 Q477 602 477 550 Q477 529 453 529 L429 529 Q417 529 411.5 533.5 Q406 538 405 550 Q394 661 286 661 Q231 661 199 629.5 Q167 598 167 539 L167 464 L330 464 Q354 464 354 440 L354 430 Q354 406 330 406 L167 406 L167 324 L330 324 Q354 324 354 300 L354 290 Q354 266 330 266 L167 266 L167 181 Q167 123 199 91 Q231 59 286 59 Q395 59 405 170 Q406 183 411 187 Q416 191 429 191 L453 191 Z " />
<glyph glyph-name="sterling" unicode="&#xa3;" horiz-adv-x="520" d="M468 69 Q492 69 492 45 L492 24 Q492 0 468 0 L62 0 Q38 0 38 24 L38 42 Q38 63 49 66 Q105 78 105 172 L105 307 L68 307 Q44 307 44 331 L44 346 Q44 370 68 370 L105 370 L105 550 Q105 602 129.5 643 Q154 684 197.5 707 Q241 730 296 730 Q351 730 394.5 706.5 Q438 683 462.5 642 Q487 601 487 550 Q487 529 463 529 L442 529 Q429 529 422.5 533.5 Q416 538 415 550 Q400 661 296 661 Q241 661 209 629.5 Q177 598 177 539 L177 370 L360 370 Q384 370 384 346 L384 331 Q384 307 360 307 L177 307 L177 168 Q177 104 147 69 L468 69 Z " />
<glyph glyph-name="yen" unicode="&#xa5;" horiz-adv-x="520" d="M248 0 Q224 0 224 24 L224 266 L74 266 Q50 266 50 290 L50 300 Q50 324 74 324 L224 324 L224 355 L197 406 L74 406 Q50 406 50 430 L50 440 Q50 464 74 464 L166 464 L44 691 Q40 698 40 704 Q40 711 45.5 715.5 Q51 720 61 720 L86 720 Q106 720 114 703 L260 426 L405 703 Q414 720 433 720 L458 720 Q468 720 473.5 715.5 Q479 711 479 704 Q479 698 475 691 L353 464 L446 464 Q470 464 470 440 L470 430 Q470 406 446 406 L322 406 L296 357 L296 324 L446 324 Q470 324 470 300 L470 290 Q470 266 446 266 L296 266 L296 24 Q296 0 272 0 L248 0 Z " />
<glyph glyph-name="approxequal" unicode="&#x2248;" horiz-adv-x="520" d="M480 470 Q488 460 488 453 Q488 444 480 436 Q451 406 422.5 394.5 Q394 383 358 383 Q333 383 310 390 Q287 397 253 411 Q224 423 203 429.5 Q182 436 162 436 Q138 436 119 428.5 Q100 421 81 404 Q72 395 63 395 Q54 395 47 404 L40 411 Q32 421 32 428 Q32 437 40 445 Q69 475 97.5 486.5 Q126 498 162 498 Q187 498 210 491 Q233 484 267 470 Q296 458 317 451.5 Q338 445 358 445 Q382 445 401 452.5 Q420 460 439 477 Q448 486 457 486 Q465 486 473 477 L480 470 Z M480 300 Q488 290 488 283 Q488 274 480 266 Q451 236 422.5 224.5 Q394 213 358 213 Q333 213 310 220 Q287 227 253 241 Q224 253 203 259.5 Q182 266 162 266 Q138 266 119 258.5 Q100 251 81 234 Q72 225 63 225 Q54 225 47 234 L40 241 Q32 251 32 258 Q32 267 40 275 Q69 305 97.5 316.5 Q126 328 162 328 Q187 328 210 321 Q233 314 267 300 Q296 288 317 281.5 Q338 275 358 275 Q382 275 401 282.5 Q420 290 439 307 Q448 316 457 316 Q466 316 473 307 L480 300 Z " />
<glyph glyph-name="asciitilde" unicode="&#x7e;" horiz-adv-x="508" d="M480 385 Q488 375 488 368 Q488 359 480 351 Q451 321 422.5 309.5 Q394 298 358 298 Q333 298 310 305 Q287 312 253 326 Q224 338 203 344.5 Q182 351 162 351 Q138 351 119 343.5 Q100 336 81 319 Q72 310 63 310 Q54 310 47 319 L40 326 Q32 336 32 343 Q32 352 40 360 Q69 390 97.5 401.5 Q126 413 162 413 Q187 413 210 406 Q233 399 267 385 Q296 373 317 366.5 Q338 360 358 360 Q382 360 401 367.5 Q420 375 439 392 Q448 401 457 401 Q466 401 473 392 L480 385 Z " />
<glyph glyph-name="divide" unicode="&#xf7;" horiz-adv-x="520" d="M281 581 Q303 581 303 559 L303 510 Q303 488 281 488 L239 488 Q217 488 217 510 L217 559 Q217 581 239 581 L281 581 Z M40 364 Q40 388 64 388 L456 388 Q480 388 480 364 L480 349 Q480 325 456 325 L64 325 Q40 325 40 349 L40 364 Z M281 225 Q303 225 303 203 L303 154 Q303 132 281 132 L239 132 Q217 132 217 154 L217 203 Q217 225 239 225 L281 225 Z " />
<glyph glyph-name="equal" unicode="&#x3d;" horiz-adv-x="520" d="M40 454 Q40 478 64 478 L456 478 Q480 478 480 454 L480 439 Q480 415 456 415 L64 415 Q40 415 40 439 L40 454 Z M40 274 Q40 298 64 298 L456 298 Q480 298 480 274 L480 259 Q480 235 456 235 L64 235 Q40 235 40 259 L40 274 Z " />
<glyph glyph-name="greater" unicode="&#x3e;" horiz-adv-x="520" d="M67 175 Q59 173 57 173 Q40 173 40 194 L40 210 Q40 231 59 238 L404 357 L60 475 Q40 482 40 503 L40 519 Q40 540 57 540 Q59 540 67 538 L461 400 Q480 393 480 372 L480 341 Q480 320 461 313 L67 175 Z " />
<glyph glyph-name="greaterequal" unicode="&#x2265;" horiz-adv-x="520" d="M67 175 Q59 173 57 173 Q40 173 40 194 L40 210 Q40 231 59 238 L404 357 L60 475 Q40 482 40 503 L40 519 Q40 540 57 540 Q59 540 67 538 L461 400 Q480 393 480 372 L480 341 Q480 320 461 313 L67 175 Z M64 35 Q40 35 40 59 L40 74 Q40 98 64 98 L456 98 Q480 98 480 74 L480 59 Q480 35 456 35 L64 35 Z " />
<glyph glyph-name="infinity" unicode="&#x221e;" horiz-adv-x="826" d="M223 127 Q175 127 138 148 Q101 169 80.5 206.5 Q60 244 60 290 Q60 336 80.5 373.5 Q101 411 138 432 Q175 453 223 453 Q275 453 317.5 428.5 Q360 404 413 345 Q466 404 508.5 428.5 Q551 453 603 453 Q651 453 688 432 Q725 411 745.5 373.5 Q766 336 766 290 Q766 244 745.5 206.5 Q725 169 688 148 Q651 127 603 127 Q551 127 508.5 151.5 Q466 176 413 235 Q360 176 317.5 151.5 Q275 127 223 127 Z M223 193 Q263 193 294.5 215 Q326 237 371 290 Q326 343 294.5 365 Q263 387 223 387 Q185 387 157.5 361 Q130 335 130 290 Q130 245 157.5 219 Q185 193 223 193 Z M603 193 Q641 193 668.5 219 Q696 245 696 290 Q696 335 668.5 361 Q641 387 603 387 Q563 387 531.5 365 Q500 343 455 290 Q500 237 531.5 215 Q563 193 603 193 Z " />
<glyph glyph-name="less" unicode="&#x3c;" horiz-adv-x="520" d="M59 313 Q40 320 40 341 L40 372 Q40 393 59 400 L453 538 Q461 540 463 540 Q480 540 480 519 L480 503 Q480 482 460 475 L116 357 L461 238 Q480 231 480 210 L480 194 Q480 173 463 173 Q461 173 453 175 L59 313 Z " />
<glyph glyph-name="lessequal" unicode="&#x2264;" horiz-adv-x="520" d="M59 313 Q40 320 40 341 L40 372 Q40 393 59 400 L453 538 Q461 540 463 540 Q480 540 480 519 L480 503 Q480 482 460 475 L116 357 L461 238 Q480 231 480 210 L480 194 Q480 173 463 173 Q461 173 453 175 L59 313 Z M64 35 Q40 35 40 59 L40 74 Q40 98 64 98 L456 98 Q480 98 480 74 L480 59 Q480 35 456 35 L64 35 Z " />
<glyph glyph-name="logicalnot" unicode="&#xac;" horiz-adv-x="520" d="M480 171 Q480 147 456 147 L439 147 Q415 147 415 171 L415 325 L64 325 Q40 325 40 349 L40 364 Q40 388 64 388 L456 388 Q480 388 480 364 L480 171 Z " />
<glyph glyph-name="minus" unicode="&#x2212;" horiz-adv-x="520" d="M40 364 Q40 388 64 388 L456 388 Q480 388 480 364 L480 349 Q480 325 456 325 L64 325 Q40 325 40 349 L40 364 Z " />
<glyph glyph-name="multiply" unicode="&#xd7;" horiz-adv-x="520" d="M466 198 Q474 191 474 181 Q474 172 466 164 L454 152 Q446 144 437 144 Q430 144 420 152 L261 311 L101 152 Q93 144 84 144 Q77 144 67 152 L55 164 Q47 174 47 181 Q47 190 55 198 L214 357 L55 516 Q47 526 47 533 Q47 542 55 550 L67 562 Q75 570 84 570 Q94 570 101 562 L261 403 L420 562 Q428 570 437 570 Q447 570 454 562 L466 550 Q474 543 474 533 Q474 524 466 516 L307 357 L466 198 Z " />
<glyph glyph-name="notequal" unicode="&#x2260;" horiz-adv-x="520" d="M319 415 L265 298 L456 298 Q480 298 480 274 L480 259 Q480 235 456 235 L236 235 L187 128 Q180 110 159 110 L142 110 Q132 110 126.5 114.5 Q121 119 121 126 Q121 132 124 138 L169 235 L64 235 Q40 235 40 259 L40 274 Q40 298 64 298 L198 298 L252 415 L64 415 Q40 415 40 439 L40 454 Q40 478 64 478 L281 478 L333 592 Q341 610 361 610 L378 610 Q388 610 393.5 605.5 Q399 601 399 594 Q399 588 396 582 L348 478 L456 478 Q480 478 480 454 L480 439 Q480 415 456 415 L319 415 Z " />
<glyph glyph-name="percent" unicode="&#x25;" horiz-adv-x="894" d="M671 720 Q689 720 689 708 Q689 703 682 691 L273 16 Q263 0 244 0 L223 0 Q205 0 205 12 Q205 17 212 29 L621 704 Q631 720 650 720 L671 720 Z M691 372 Q733 372 768 353 Q803 334 823.5 300.5 Q844 267 844 226 L844 136 Q844 96 824 62.5 Q804 29 769 10 Q734 -9 691 -9 Q648 -9 612.5 10 Q577 29 556.5 62.5 Q536 96 536 136 L536 226 Q536 267 556 300.5 Q576 334 611.5 353 Q647 372 691 372 Z M780 216 Q780 259 755.5 284 Q731 309 691 309 Q650 309 625.5 284 Q601 259 601 216 L601 147 Q601 103 625.5 78.5 Q650 54 691 54 Q731 54 755.5 78.5 Q780 103 780 147 L780 216 Z M205 729 Q247 729 282 710 Q317 691 337.5 657.5 Q358 624 358 583 L358 493 Q358 453 338 419.5 Q318 386 283 367 Q248 348 205 348 Q162 348 126.5 367 Q91 386 70.5 419.5 Q50 453 50 493 L50 583 Q50 624 70 657.5 Q90 691 125.5 710 Q161 729 205 729 Z M294 573 Q294 616 269.5 641 Q245 666 205 666 Q164 666 139.5 641 Q115 616 115 573 L115 504 Q115 460 139.5 435.5 Q164 411 205 411 Q245 411 269.5 435.5 Q294 460 294 504 L294 573 Z " />
<glyph glyph-name="perthousand" unicode="&#x2030;" horiz-adv-x="1291" d="M671 720 Q689 720 689 708 Q689 703 682 691 L273 16 Q263 0 244 0 L223 0 Q205 0 205 12 Q205 17 212 29 L621 704 Q631 720 650 720 L671 720 Z M691 372 Q733 372 768 353 Q803 334 823.5 300.5 Q844 267 844 226 L844 136 Q844 96 824 62.5 Q804 29 769 10 Q734 -9 691 -9 Q648 -9 612.5 10 Q577 29 556.5 62.5 Q536 96 536 136 L536 226 Q536 267 556 300.5 Q576 334 611.5 353 Q647 372 691 372 Z M780 216 Q780 259 755.5 284 Q731 309 691 309 Q650 309 625.5 284 Q601 259 601 216 L601 147 Q601 103 625.5 78.5 Q650 54 691 54 Q731 54 755.5 78.5 Q780 103 780 147 L780 216 Z M205 729 Q247 729 282 710 Q317 691 337.5 657.5 Q358 624 358 583 L358 493 Q358 453 338 419.5 Q318 386 283 367 Q248 348 205 348 Q162 348 126.5 367 Q91 386 70.5 419.5 Q50 453 50 493 L50 583 Q50 624 70 657.5 Q90 691 125.5 710 Q161 729 205 729 Z M294 573 Q294 616 269.5 641 Q245 666 205 666 Q164 666 139.5 641 Q115 616 115 573 L115 504 Q115 460 139.5 435.5 Q164 411 205 411 Q245 411 269.5 435.5 Q294 460 294 504 L294 573 Z M1088 372 Q1130 372 1165 353 Q1200 334 1220.5 300.5 Q1241 267 1241 226 L1241 136 Q1241 96 1221 62.5 Q1201 29 1166 10 Q1131 -9 1088 -9 Q1045 -9 1009.5 10 Q974 29 953.5 62.5 Q933 96 933 136 L933 226 Q933 267 953 300.5 Q973 334 1008.5 353 Q1044 372 1088 372 Z M1177 216 Q1177 259 1152.5 284 Q1128 309 1088 309 Q1047 309 1022.5 284 Q998 259 998 216 L998 147 Q998 103 1022.5 78.5 Q1047 54 1088 54 Q1128 54 1152.5 78.5 Q1177 103 1177 147 L1177 216 Z " />
<glyph glyph-name="plus" unicode="&#x2b;" horiz-adv-x="519" d="M456 388 Q480 388 480 364 L480 349 Q480 325 456 325 L293 325 L293 171 Q293 147 269 147 L252 147 Q228 147 228 171 L228 325 L64 325 Q40 325 40 349 L40 364 Q40 388 64 388 L228 388 L228 543 Q228 567 252 567 L269 567 Q293 567 293 543 L293 388 L456 388 Z " />
<glyph glyph-name="plusminus" unicode="&#xb1;" horiz-adv-x="520" d="M456 388 Q480 388 480 364 L480 349 Q480 325 456 325 L293 325 L293 171 Q293 147 269 147 L252 147 Q228 147 228 171 L228 325 L64 325 Q40 325 40 349 L40 364 Q40 388 64 388 L228 388 L228 543 Q228 567 252 567 L269 567 Q293 567 293 543 L293 388 L456 388 Z M456 98 Q480 98 480 74 L480 59 Q480 35 456 35 L64 35 Q40 35 40 59 L40 74 Q40 98 64 98 L456 98 Z " />
<glyph glyph-name="bar" unicode="&#x7c;" horiz-adv-x="306" d="M162 800 Q186 800 186 776 L186 -176 Q186 -200 162 -200 L144 -200 Q120 -200 120 -176 L120 776 Q120 800 144 800 L162 800 Z " />
<glyph glyph-name="at" unicode="&#x40;" horiz-adv-x="934" d="M625 189 Q619 167 619 142 Q619 64 695 64 Q732 64 762.5 89 Q793 114 810.5 161.5 Q828 209 828 272 Q828 381 780.5 459 Q733 537 653.5 576.5 Q574 616 479 616 Q369 616 284 565 Q199 514 152.5 425.5 Q106 337 106 229 Q106 125 151 41.5 Q196 -42 283.5 -90 Q371 -138 495 -138 Q582 -138 665 -112 Q670 -110 679 -110 Q697 -110 697 -126 L697 -140 Q697 -149 694 -153 Q691 -157 685 -159 Q603 -190 488 -190 Q352 -190 253 -136.5 Q154 -83 102 12.5 Q50 108 50 231 Q50 355 102 454.5 Q154 554 251 610.5 Q348 667 476 667 Q595 667 687.5 618.5 Q780 570 832 481.5 Q884 393 884 275 Q884 196 859.5 137 Q835 78 791 45.5 Q747 13 691 13 Q627 13 597.5 41.5 Q568 70 563 109 Q531 62 491 37.5 Q451 13 396 13 Q330 13 290.5 55 Q251 97 251 168 Q251 239 280 306 Q309 373 363 415 Q417 457 487 457 Q536 457 566.5 437.5 Q597 418 607 385 L617 434 Q618 441 624 445 Q630 449 638 449 L655 449 Q668 449 672 441.5 Q676 434 674 423 L625 189 Z M402 68 Q461 68 501.5 108.5 Q542 149 561.5 205.5 Q581 262 581 307 Q581 353 558.5 377.5 Q536 402 489 402 Q438 402 398 368.5 Q358 335 336 282 Q314 229 314 173 Q314 123 338.5 95.5 Q363 68 402 68 Z " />
<glyph glyph-name="ampersand" unicode="&#x26;" horiz-adv-x="629" d="M606 333 Q619 325 619 312 Q619 305 615 298 Q559 204 509 139 L594 34 Q604 21 604 14 Q604 0 579 0 L555 0 Q542 0 534 3 Q526 6 519 15 L462 86 Q415 38 363.5 14 Q312 -10 250 -10 Q188 -10 140 15 Q92 40 66 82.5 Q40 125 40 175 Q40 246 78 295.5 Q116 345 206 406 Q165 461 146 499.5 Q127 538 127 575 Q127 616 146.5 650 Q166 684 201.5 704.5 Q237 725 283 725 Q329 725 364.5 705 Q400 685 419 652 Q438 619 438 581 Q438 525 407 485 Q376 445 304 394 L468 190 Q509 246 559 331 Q567 344 580 344 Q585 344 591 341 L606 333 Z M282 666 Q242 666 217.5 640.5 Q193 615 193 575 Q193 549 209.5 519.5 Q226 490 266 440 Q320 476 346 509.5 Q372 543 372 579 Q372 617 347.5 641.5 Q323 666 282 666 Z M250 51 Q342 51 422 136 L243 360 Q166 308 136.5 268 Q107 228 107 177 Q107 122 147 86.5 Q187 51 250 51 Z " />
<glyph glyph-name="paragraph" unicode="&#xb6;" horiz-adv-x="637" d="M517 720 Q534 720 543.5 710.5 Q553 701 553 684 L553 -64 Q553 -81 543.5 -90.5 Q534 -100 517 -100 Q485 -100 485 -64 L485 651 L393 651 L393 -64 Q393 -81 383.5 -90.5 Q374 -100 357 -100 Q325 -100 325 -64 L325 290 L257 290 Q172 290 121 340 Q70 390 70 472 L70 538 Q70 620 121 670 Q172 720 257 720 L517 720 Z " />
<glyph glyph-name="copyright" unicode="&#xa9;" horiz-adv-x="856" d="M428 728 Q531 728 615 680 Q699 632 747.5 547.5 Q796 463 796 360 Q796 257 747.5 172.5 Q699 88 615 40 Q531 -8 428 -8 Q325 -8 241 40 Q157 88 108.5 172.5 Q60 257 60 360 Q60 463 108.5 547.5 Q157 632 241 680 Q325 728 428 728 Z M428 678 Q337 678 265 636.5 Q193 595 152.5 522.5 Q112 450 112 360 Q112 270 152.5 197.5 Q193 125 265 83.5 Q337 42 428 42 Q518 42 590.5 83.5 Q663 125 703.5 197.5 Q744 270 744 360 Q744 450 703.5 522.5 Q663 595 590.5 636.5 Q518 678 428 678 Z M432 580 Q540 580 596 495 Q600 488 600 482 Q600 470 585 462 L573 456 Q567 453 561 453 Q549 453 540 466 Q519 494 493.5 507 Q468 520 433 520 Q369 520 330 475.5 Q291 431 291 360 Q291 289 329.5 245 Q368 201 433 201 Q471 201 497 214.5 Q523 228 544 262 Q551 275 564 275 Q570 275 577 272 L589 266 Q603 258 603 247 Q603 240 599 233 Q570 185 530.5 162.5 Q491 140 432 140 Q370 140 323 168.5 Q276 197 250 247.5 Q224 298 224 360 Q224 422 250 472.5 Q276 523 323 551.5 Q370 580 432 580 Z " />
<glyph glyph-name="registered" unicode="&#xae;" horiz-adv-x="542" d="M271 729 Q333 729 383.5 700 Q434 671 463 620.5 Q492 570 492 508 Q492 446 463 395.5 Q434 345 383.5 316 Q333 287 271 287 Q209 287 158.5 316 Q108 345 79 395.5 Q50 446 50 508 Q50 570 79 620.5 Q108 671 158.5 700 Q209 729 271 729 Z M271 694 Q218 694 176.5 669.5 Q135 645 111.5 603 Q88 561 88 508 Q88 455 111.5 413 Q135 371 176.5 346.5 Q218 322 271 322 Q324 322 365.5 346.5 Q407 371 430.5 413.5 Q454 456 454 508 Q454 560 430.5 602.5 Q407 645 365.5 669.5 Q324 694 271 694 Z M287 635 Q322 635 343 613.5 Q364 592 364 558 Q364 506 318 488 L361 416 Q366 408 366 402 Q366 395 360 391 Q354 387 344 387 Q331 387 322 404 L276 483 L228 483 L228 411 Q228 387 206 387 Q197 387 191.5 393 Q186 399 186 411 L186 611 Q186 635 210 635 L287 635 Z M228 598 L228 518 L278 518 Q323 518 323 558 Q323 598 278 598 L228 598 Z " />
<glyph glyph-name="section" unicode="&#xa7;" horiz-adv-x="516" d="M359 124 Q395 100 415.5 69.5 Q436 39 436 -2 Q436 -44 414.5 -78.5 Q393 -113 354 -133.5 Q315 -154 264 -154 Q194 -154 147.5 -118 Q101 -82 92 -24 Q90 -12 96.5 -5.5 Q103 1 115 1 L138 1 Q149 1 154.5 -4.5 Q160 -10 163 -21 Q171 -50 199.5 -69 Q228 -88 267 -88 Q315 -88 341.5 -66 Q368 -44 368 -6 Q368 19 353 38 Q338 57 320.5 68.5 Q303 80 266 101 L218 128 Q156 163 123.5 185 Q91 207 70.5 237.5 Q50 268 50 309 Q50 357 78.5 393.5 Q107 430 157 449 Q121 473 100.5 503.5 Q80 534 80 575 Q80 617 101.5 651.5 Q123 686 162 706.5 Q201 727 252 727 Q322 727 368.5 691 Q415 655 424 597 Q426 585 419.5 578.5 Q413 572 401 572 L381 572 Q370 572 364 577 Q358 582 353 593 Q340 622 314 641.5 Q288 661 247 661 Q199 661 173.5 639 Q148 617 148 579 Q148 554 163 535 Q178 516 195.5 504.5 Q213 493 250 472 L298 445 Q360 410 392.5 388 Q425 366 445.5 335.5 Q466 305 466 264 Q466 216 437.5 179.5 Q409 143 359 124 Z M297 162 Q340 169 368 196 Q396 223 396 259 Q396 293 366.5 318.5 Q337 344 278 378 L219 411 Q176 404 148 377 Q120 350 120 314 Q120 280 149.5 254.5 Q179 229 238 195 L297 162 Z " />
<glyph glyph-name="trademark" unicode="&#x2122;" horiz-adv-x="785" d="M171 304 Q163 304 157 310 Q151 316 151 324 L151 675 L48 675 Q40 675 34 681 Q28 687 28 695 L28 700 Q28 708 34 714 Q40 720 48 720 L301 720 Q309 720 315 714 Q321 708 321 700 L321 695 Q321 687 315 681 Q309 675 301 675 L199 675 L199 324 Q199 316 193 310 Q187 304 179 304 L171 304 Z M413 304 Q405 304 399 310 Q393 316 393 324 L393 700 Q393 708 399 714 Q405 720 413 720 L434 720 Q445 720 450 710 L566 489 L682 710 Q687 720 698 720 L719 720 Q727 720 733 714 Q739 708 739 700 L739 324 Q739 316 733 310 Q727 304 719 304 L713 304 Q705 304 699 310 Q693 316 693 324 L693 639 L583 431 Q579 421 566 421 Q556 421 549 431 L439 640 L439 324 Q439 316 433 310 Q427 304 419 304 L413 304 Z " />
<glyph glyph-name="degree" unicode="&#xb0;" horiz-adv-x="378" d="M189 730 Q227 730 259 712.5 Q291 695 309.5 663.5 Q328 632 328 593 Q328 554 309.5 522.5 Q291 491 259 473.5 Q227 456 189 456 Q151 456 119 473.5 Q87 491 68.5 522.5 Q50 554 50 593 Q50 632 68.5 663.5 Q87 695 119 712.5 Q151 730 189 730 Z M189 678 Q153 678 128.5 654 Q104 630 104 593 Q104 556 128.5 532 Q153 508 189 508 Q225 508 249.5 532 Q274 556 274 593 Q274 630 249.5 654 Q225 678 189 678 Z " />
<glyph glyph-name="asciicircum" unicode="&#x5e;" horiz-adv-x="520" d="M486 318 Q489 312 489 306 Q489 290 469 290 L448 290 Q428 290 420 308 L260 650 L100 308 Q93 290 72 290 L51 290 Q41 290 35.5 294.5 Q30 299 30 307 Q30 312 33 318 L217 702 Q225 720 245 720 L275 720 Q295 720 303 702 L486 318 Z " />
<glyph glyph-name="dagger" unicode="&#x2020;" horiz-adv-x="533" d="M439 514 Q463 514 463 490 L463 469 Q463 445 439 445 L302 445 L302 -76 Q302 -100 278 -100 L254 -100 Q230 -100 230 -76 L230 445 L94 445 Q70 445 70 469 L70 490 Q70 514 94 514 L230 514 L230 696 Q230 720 254 720 L278 720 Q302 720 302 696 L302 514 L439 514 Z " />
<glyph glyph-name="daggerdbl" unicode="&#x2021;" horiz-adv-x="533" d="M302 445 L302 214 L439 214 Q463 214 463 190 L463 169 Q463 145 439 145 L302 145 L302 -76 Q302 -100 278 -100 L254 -100 Q230 -100 230 -76 L230 145 L94 145 Q70 145 70 169 L70 190 Q70 214 94 214 L230 214 L230 445 L94 445 Q70 445 70 469 L70 490 Q70 514 94 514 L230 514 L230 696 Q230 720 254 720 L278 720 Q302 720 302 696 L302 514 L439 514 Q463 514 463 490 L463 469 Q463 445 439 445 L302 445 Z " />
<glyph glyph-name="uni0326" unicode="&#x326;" d="M-80 -64 Q-60 -64 -60 -84 L-60 -138 Q-60 -151 -67 -162 L-101 -214 Q-105 -221 -109.5 -224 Q-114 -227 -123 -227 L-130 -227 Q-145 -227 -145 -218 Q-145 -212 -139 -203 L-108 -151 L-128 -151 Q-148 -151 -148 -131 L-148 -84 Q-148 -64 -128 -64 L-80 -64 Z " />
<glyph glyph-name="acute" unicode="&#xb4;" horiz-adv-x="289" d="M199 741 Q207 741 211.5 737.5 Q216 734 216 729 Q216 722 212 717 L142 617 Q133 604 118 604 L88 604 Q80 604 75 607.5 Q70 611 70 617 Q70 620 74 628 L132 727 Q140 741 156 741 L199 741 Z " />
<glyph glyph-name="breve" unicode="&#x2d8;" horiz-adv-x="377" d="M190 602 Q139 602 104 628 Q69 654 62 699 L62 703 Q62 720 81 720 L101 720 Q110 720 115 715.5 Q120 711 123 701 Q128 679 146 665.5 Q164 652 190 652 Q216 652 234 665.5 Q252 679 257 701 Q260 711 265 715.5 Q270 720 279 720 L299 720 Q321 720 319 700 Q312 655 276.5 628.5 Q241 602 190 602 Z " />
<glyph glyph-name="caron" unicode="&#x2c7;" horiz-adv-x="406" d="M316 741 Q324 741 328.5 737.5 Q333 734 333 729 Q333 722 329 717 L257 616 Q248 604 233 604 L173 604 Q158 604 149 616 L77 717 Q73 722 73 729 Q73 734 77.5 737.5 Q82 741 90 741 L114 741 Q129 741 138 729 L203 647 L268 729 Q277 741 292 741 L316 741 Z " />
<glyph glyph-name="cedilla" unicode="&#xb8;" horiz-adv-x="324" d="M161 -47 Q208 -44 236 -64.5 Q264 -85 264 -123 Q264 -162 236 -186 Q208 -210 163 -210 Q115 -210 76 -189 Q66 -183 66 -173 Q66 -166 70 -161 L74 -155 Q80 -144 89 -144 Q93 -144 101 -148 Q129 -163 160 -163 Q183 -163 197.5 -153 Q212 -143 212 -124 Q212 -106 198 -97 Q184 -88 160 -88 Q149 -88 144 -89 L140 -89 Q128 -89 117 -77 Q110 -68 110 -61 Q110 -56 113 -50 L152 37 L193 22 L161 -47 Z " />
<glyph glyph-name="circumflex" unicode="&#x2c6;" horiz-adv-x="406" d="M233 741 Q248 741 257 729 L329 628 Q333 623 333 616 Q333 611 328.5 607.5 Q324 604 316 604 L292 604 Q277 604 268 616 L203 698 L138 616 Q129 604 114 604 L90 604 Q82 604 77.5 607.5 Q73 611 73 616 Q73 623 77 628 L149 729 Q158 741 173 741 L233 741 Z " />
<glyph glyph-name="dieresis" unicode="&#xa8;" horiz-adv-x="374" d="M126 720 Q146 720 146 700 L146 647 Q146 627 126 627 L80 627 Q60 627 60 647 L60 700 Q60 720 80 720 L126 720 Z M294 720 Q314 720 314 700 L314 647 Q314 627 294 627 L248 627 Q228 627 228 647 L228 700 Q228 720 248 720 L294 720 Z " />
<glyph glyph-name="dotaccent" unicode="&#x2d9;" horiz-adv-x="206" d="M124 720 Q146 720 146 698 L146 649 Q146 627 124 627 L82 627 Q60 627 60 649 L60 698 Q60 720 82 720 L124 720 Z " />
<glyph glyph-name="grave" unicode="&#x60;" horiz-adv-x="289" d="M77 717 Q73 722 73 729 Q73 734 77.5 737.5 Q82 741 90 741 L133 741 Q149 741 157 727 L215 628 Q219 620 219 617 Q219 611 214 607.5 Q209 604 201 604 L171 604 Q156 604 147 617 L77 717 Z " />
<glyph glyph-name="hungarumlaut" unicode="&#x2dd;" horiz-adv-x="437" d="M196 734 Q204 734 209 730.5 Q214 727 214 722 Q214 716 208 710 L141 621 Q132 609 117 609 L89 609 Q72 609 72 622 Q72 628 76 633 L136 721 Q145 734 160 734 L196 734 Z M346 734 Q354 734 359 730.5 Q364 727 364 722 Q364 716 358 710 L291 621 Q282 609 267 609 L239 609 Q222 609 222 622 Q222 628 226 633 L286 721 Q295 734 310 734 L346 734 Z " />
<glyph glyph-name="overscore" unicode="&#xaf;" horiz-adv-x="362" d="M284 706 Q304 706 304 686 L304 662 Q304 642 284 642 L78 642 Q58 642 58 662 L58 686 Q58 706 78 706 L284 706 Z " />
<glyph glyph-name="ogonek" unicode="&#x2db;" horiz-adv-x="255" d="M177 -200 Q123 -200 91.5 -175 Q60 -150 60 -105 Q60 -30 161 27 L195 0 Q117 -42 117 -96 Q117 -122 134 -132.5 Q151 -143 179 -147 Q193 -149 193 -165 L193 -182 Q193 -200 177 -200 Z " />
<glyph glyph-name="ring" unicode="&#x2da;" horiz-adv-x="331" d="M166 786 Q210 786 240.5 755.5 Q271 725 271 682 Q271 638 240.5 607.5 Q210 577 166 577 Q122 577 91 607.5 Q60 638 60 682 Q60 725 91 755.5 Q122 786 166 786 Z M166 742 Q140 742 123.5 725 Q107 708 107 682 Q107 655 123.5 638 Q140 621 166 621 Q191 621 207.5 638 Q224 655 224 682 Q224 708 207.5 725 Q191 742 166 742 Z " />
<glyph glyph-name="tilde" unicode="&#x2dc;" horiz-adv-x="412" d="M333 719 Q353 719 351 698 Q346 661 324.5 640.5 Q303 620 267 620 Q248 620 232 626.5 Q216 633 195 645 Q179 654 168 659 Q157 664 146 664 Q122 664 116 639 Q114 629 109 624.5 Q104 620 95 620 L79 620 Q60 620 61 641 Q66 678 87.5 698.5 Q109 719 145 719 Q164 719 180 712.5 Q196 706 217 694 Q233 685 244 680 Q255 675 266 675 Q290 675 296 700 Q298 710 303 714.5 Q308 719 317 719 L333 719 Z " />
</font>
</svg>
