<?xml version="1.0" encoding="utf-8"?>
<!-- Generator: Adobe Illustrator 18.1.1, SVG Export Plug-In . SVG Version: 6.00 Build 0)  -->
<!DOCTYPE svg PUBLIC "-//W3C//DTD SVG 1.1//EN" "http://www.w3.org/Graphics/SVG/1.1/DTD/svg11.dtd">
<svg version="1.1" id="sweco" xmlns="http://www.w3.org/2000/svg" xmlns:xlink="http://www.w3.org/1999/xlink" x="0px" y="0px"
	 viewBox="0 0 284 142" enable-background="new 0 0 284 142" xml:space="preserve">
<g>
	<g>
		<path fill="#FFFFFF" d="M231.7,89v5.1h-30.9V89l15.4-15.3L231.7,89z M242.1,66.6l-18.8,0l12.1-12.1l-4.3-4.3l-14.9,14.9l-15-15.2
			l-4.3,4.4l12.3,12.3h-18.7v5.7h18.6l-14.4,14.2v13.7h43V86.4l-14.4-14.2h18.7V66.6z"/>
		<path fill="#FFFFFF" d="M222.4,48.3c0,3.4-2.7,6.1-6.1,6.1c-3.4,0-6.1-2.7-6.1-6.1c0-3.4,2.7-6.1,6.1-6.1
			C219.7,42.2,222.4,44.9,222.4,48.3"/>
		<path fill="#FFFFFF" d="M165.8,75.1c8.1,0,12.4,4.6,12.4,12.6c0,7.8-4.3,12.6-12.4,12.6c-8.1,0-12.4-4.8-12.4-12.6
			C153.5,79.7,157.8,75.1,165.8,75.1 M165.8,95.5c4,0,5.4-3.8,5.4-7.8c0-4.3-1.3-7.8-5.4-7.8c-4,0-5.6,3.5-5.6,7.8
			C160.2,91.8,161.8,95.5,165.8,95.5"/>
		<path fill="#FFFFFF" d="M141.6,75.1c2.4,0,4.8,0.5,7.3,1.1l-0.5,5.4c-2.2-1.1-4.3-1.6-6.5-1.6c-4.6,0-7.8,3.2-7.8,7.8
			c0,4.8,3.5,7.8,8.3,7.8c2.2,0,4.3-0.5,6.2-1.3l0.3,5.1c-1.9,0.5-4,1.1-7.3,1.1c-6.7,0-14.3-3.2-14.3-12.6
			C127.4,79.1,133.6,75.1,141.6,75.1"/>
		<polygon fill="#FFFFFF" points="104.8,75.4 122,75.4 122,79.9 111,79.9 111,85 121.2,85 121.2,89.9 111,89.9 111,95.3 122.3,95.3 
			122.3,100.1 104.8,100.1 		"/>
		<polygon fill="#FFFFFF" points="65,75.4 71.7,75.4 74.7,94.2 74.9,94.2 78.2,75.4 86.5,75.4 90,94.2 93.2,75.4 99.7,75.4 
			94,100.1 85.7,100.1 82.2,81 79,100.1 70.4,100.1 		"/>
		<path fill="#FFFFFF" d="M52.9,75.1c2.4,0,4.6,0.3,6.5,0.8L58.8,81c-1.6-0.8-3.5-1.1-5.4-1.1c-1.6,0-4.6,0-4.6,2.2
			c0,4,11.8,1.3,11.8,10.2c0,6.5-5.4,8.1-11,8.1c-2.1,0-5.1-0.3-7.3-1.1l0.5-5.4c1.9,0.8,4,1.6,6.7,1.6c2.2,0,4-0.5,4-2.4
			c0-4.6-11.6-1.6-11.6-10.5C42.1,76.7,48,75.1,52.9,75.1"/>
	</g>
</g>
</svg>
